<mxfile host="65bd71144e">
    <diagram id="YjDVdDA9KOuDnD9hrAWB" name="Page-1">
        <mxGraphModel dx="1096" dy="696" grid="1" gridSize="10" guides="1" tooltips="1" connect="1" arrows="1" fold="1" page="1" pageScale="1" pageWidth="1169" pageHeight="827" math="0" shadow="0">
            <root>
                <mxCell id="0"/>
                <mxCell id="1" parent="0"/>
                <mxCell id="LGkPL24XH27C2ci5rPlH-9" style="orthogonalLoop=1;jettySize=auto;html=1;fontSize=32;fontColor=#999999;endArrow=blockThin;endFill=1;strokeWidth=5;strokeColor=#999999;exitX=1;exitY=0.5;exitDx=0;exitDy=0;edgeStyle=orthogonalEdgeStyle;entryX=0;entryY=0.75;entryDx=0;entryDy=0;" parent="1" source="LGkPL24XH27C2ci5rPlH-1" target="LGkPL24XH27C2ci5rPlH-6" edge="1">
                    <mxGeometry relative="1" as="geometry"/>
                </mxCell>
                <mxCell id="LGkPL24XH27C2ci5rPlH-1" value="" style="shape=image;verticalLabelPosition=bottom;verticalAlign=top;imageAspect=0;aspect=fixed;image=data:image/png,iVBORw0KGgoAAAANSUhEUgAAAHgAAAB4CAYAAAA5ZDbSAAAAGXRFWHRTb2Z0d2FyZQBBZG9iZSBJbWFnZVJlYWR5ccllPAAAAyRpVFh0WE1MOmNvbS5hZG9iZS54bXAAAAAAADw/eHBhY2tldCBiZWdpbj0i77u/IiBpZD0iVzVNME1wQ2VoaUh6cmVTek5UY3prYzlkIj8+IDx4OnhtcG1ldGEgeG1sbnM6eD0iYWRvYmU6bnM6bWV0YS8iIHg6eG1wdGs9IkFkb2JlIFhNUCBDb3JlIDUuNS1jMDIxIDc5LjE1NDkxMSwgMjAxMy8xMC8yOS0xMTo0NzoxNiAgICAgICAgIj4gPHJkZjpSREYgeG1sbnM6cmRmPSJodHRwOi8vd3d3LnczLm9yZy8xOTk5LzAyLzIyLXJkZi1zeW50YXgtbnMjIj4gPHJkZjpEZXNjcmlwdGlvbiByZGY6YWJvdXQ9IiIgeG1sbnM6eG1wTU09Imh0dHA6Ly9ucy5hZG9iZS5jb20veGFwLzEuMC9tbS8iIHhtbG5zOnN0UmVmPSJodHRwOi8vbnMuYWRvYmUuY29tL3hhcC8xLjAvc1R5cGUvUmVzb3VyY2VSZWYjIiB4bWxuczp4bXA9Imh0dHA6Ly9ucy5hZG9iZS5jb20veGFwLzEuMC8iIHhtcE1NOkRvY3VtZW50SUQ9InhtcC5kaWQ6RERCMUIwQTM4NkNFMTFFM0FBNTJFRTMzNTJEMUJDNDYiIHhtcE1NOkluc3RhbmNlSUQ9InhtcC5paWQ6RERCMUIwQTI4NkNFMTFFM0FBNTJFRTMzNTJEMUJDNDYiIHhtcDpDcmVhdG9yVG9vbD0iQWRvYmUgUGhvdG9zaG9wIENTNiAoTWFjaW50b3NoKSI+IDx4bXBNTTpEZXJpdmVkRnJvbSBzdFJlZjppbnN0YW5jZUlEPSJ4bXAuaWlkOkU1MTc4QTMyOTlBMDExRTI5QTE1QkMxMDQ2QTg5MDREIiBzdFJlZjpkb2N1bWVudElEPSJ4bXAuZGlkOjJBNDE0QUJDOTlBMTExRTI5QTE1QkMxMDQ2QTg5MDREIi8+IDwvcmRmOkRlc2NyaXB0aW9uPiA8L3JkZjpSREY+IDwveDp4bXBtZXRhPiA8P3hwYWNrZXQgZW5kPSJyIj8+8kSqyAAADD5JREFUeNrsXQ2QlVUZfllYUBe2YCuQFNel9Q9EcVEQSA3xB2pTSVcESjELnZomBW0ya5w0m1GyzKSmtEYDc6hGohRDrUGQZUko0EARCAXK+FEwXFz2yvY+fO/d+fbu/fm++533+7n3PDPPwC6Xc77zPvc7P+95z3t6dHR0kEXpoleJtGMwcwTzE8w6Zi1zELNG2JfZJ+P/tDEPMPcK32JuY25lbmauZ/476YbpkcA3+BjmucxxwlHMAUp1vc18ifmisJnZagU2jyHMKcxJzPOzvI1hAW/9MuYS5pPMN6zAxeNjzOnMq5mjY/qMLcyFzPnMXVZgb7iQOYt5ObMyIT1hO/MPzJ8xn7cCZ5/sTWXeKpOlJAOTs/uYTzBT5S4whJ3BvIM5tMRWKFuYd0v3nSpHgT/NnMs8pcSXoq8xZzOfKheBT2I+wLy0zHwOzzC/LoKHhooQ68KE6XYZo8pNXJI2rxMbVJbaG3wa83HmGWRBIvQ05oakv8E9mF9hrrHidsEZYpOvio0S+QbD//tL5lVWz7z4HXMmOX7xxAhcz1wkXbNFYWxkXsZ8PQld9HjmKiuuL5wqNhsfd4GbyHHVDbCa+cYAsV1TXAXGOPIbZm+rVdHoLTa8Pm4C3yQTqgqrkRFNHhGbxmKSNVPEtTCPLwa1bVCBm6RLsW+uDg4zryFnzzl0gcfLpMCOubo4RM4e+YowBa6Xab2dLYcDxIaNKWadXIzA8FCtlrWbRXiAM+Qc8unx8jt2wm/6KytuJDhVbN9DU2BsHFwZ8EH3keNof1n+XurYJ21Fm/cHLOtK0UCli4brcS0FD1n9DHWNbjhOJhHYL4U/9uiEC3qQnAC8Z2QSusP1b43MxQHLR+huA/OfJgXGBvXfKPiWHyYLOHHQnuPfq8mJ0UJUZdKC7/CWIqoSMVjv5rHjf5n9A9aF/eSz89jRdxd9G5nZz11S4KFgmHlSF4LcWxIg7Gp51hHy7O/m+Wy72CAoYJ9vmBqDT2Z+25AxXvDxWXRxOKLyOXLOC8UNW2VMHCPP6hXLDdV/h2gTuIv+M/NiQw/VIOO4X2DcnyNftFxzgDdkXHqVuZOcg2MgDpa9J2Njm6s8jPVV5BxOGyz8ODlRnsOYJ+QZA+9h3st8v0gbvGTInkuZlwQRGKGtfzL0MO1i0PYAZcDBAkf8cOZK6RGWy/hnOiIC6/3TyfHYnUfOQTd8gW6gYJGRlfKFMxV4lzlp9SxwL2nQSYYe5M08b4XftTh4OOQuOT2cmah3u6weTOB1WeGk/I7BMwyKC7xlqJyOCMRNC2uq3v8YfK560crXJKtSBnHT60MLB6bPGEOr3n4ExkGwoVaHxABaXe1H4DkKD3GU1aETGt66W70KPJF0vEgnWF07MUShzNNFu4IC36jUqIHMflbbIzYYqFT2TYUERtqEzypVjqXNWVbfIzbQOq7SKBrmFHgG6Z58m2j1VbVBZeaSKVPgJuXGNVp91W3QlEtgJBDTzmZzt9VX3Qaj3Utct8CXK1d8Fzkn6codsMF3leu4LJvAkxQrXBVCo5KEu8QmWpjcObOVzQakB0S0hUYGuQ9kjbbR6toF2JbELphGvlBsaSKkuTX9Bo8jvfSAD1lxs+JVsY0G+oimnV30WKWKsCH+PatlTtxDxQUNeMFYt8DjlCr5NcU0h2NMsEtspIFx7jF4L+kcQ8GUfbXVMS9wWkEjuBBzqhoIjDikHQoVbCW75egVW8QPYRrHoYvWij9+2urmGUuUyh0BgeuVCl9hdYvcVvUQuFapcDv2Rm+rWi2BERr7ptXNM2CrlJbAgxQKRljoB1Y3z4C4OxXKHQSBaxQK/p/VzDc0jtLWaAm83+rlGwe0BNaIk+pp9fINjU2HfhBYI0tOX6uXb2iEFffWym9VZfXyjWqNQrUEtrmzYmIz+KI1EkYfki7HXm3q/UXDtmGlRsEppW/jYKubZwwmnXDlVIXikuZEq5tn1CmVu7+C9HJV1VndIn8Z9kHg3UqFj7K6ecbZSuXuhsA7lQofa3WL3FY7NQU+k5xwXIvCPoMRmgJvVioc7soJVr+CmEB6rt3NEHiT4sNPsfoVxBWKZW+CowPpfLYrVYBtQ+w3t1odswJDGLIPaR2MPx5vMCIq9ypVgAefbnXMiemK4iJsdkfaF71GsRG3kL20Ixt6iW20cCRdYtrwKxUrwiGra62e3fB50r39vNkt8IvKjcEZnGqraSeqxSaaWOEWGD+0KVaGidb9VtdO/Ih0gh3TaMsUGFtVy5UbhVu8plltjyRJmalcx3LRtMvk548hNO5hcpJ8lytw4u/nIdTTmQLanU4Ymei2hVA5Ut4jwXhLmYmLk5ZLQ5qL1JKTIL3LG4xfhHHcpFoaenEZiYv8J8+GJO7qtLiUZX26IMRZJE7U3UmlHWKLtiFt0lMUXhrHx90/ZGZ8/yg5u0uVIRoBSzRc9rSuxMRFysJ5pJ97zA2cCYPreVeuNxib/4simHjAk/YT0snCGjYQnfELcjxJo0OuexFlpMzIdmfDBcy/+ii0WWZtKBjZArB5jS2wXkV+AzFM/JSSdfwUyUU/SU6m3qYIh50JmdrlupQDV9+M9FAgbg/5EHU/SYiu/mbmbCo+3hepl56QL8/fKX4huD1lyYekY1Mp+iBDDHFndvvm5RAYi3Gv2V9uZ34/y0IbnpTH5I0cGfDhcR3cC9Jb4Iq9Vyj8iy0xtuE6n1HSS0HcD8foCwff9nyvAqN7RaIur0lUHiDnqrU215pvgMyUEZKykFzp9QwB25xbZD39TTJ/Ewsmmj+WttRJTxVXwA7YuOge4w6Bc/DaDn/YyByZUcYVzGXMY+VP0ziQpU6TbGC+3xF/XJerDfkaV8Fc77OiVuYlrjKGMXczJzFrmNsNN2yWorhpfi3m4r4sWmV9/kJX28ED4zcdEu5HQlbzbHvMkynPNWxFTCrOIv1LsjCZQtLQuN56PpnypGEqFGmxhPzfXYgrY35PXe8OqBJXHcaIRw017D4K5wY0rBDujam4T1OBHFtebh/FRAt3GPrNRovdqfQFH8fIpAj37OG2TORKPjlAwxDMN5DCu02trziB4nT3Eya0w2SCRcW+wekZ2neKeIBG18y5VTxWt8nyppGCBdz/hcK9Ku+A1Bkn3FlIXK8CA/dTcXfe/sBVBxwXy6S7xloSV9duKLJxKyMwaJwy98G1O9fLB70KnBLnh9+35hTqfssI7uPFjseD5By6wpfgkI8yEai/NAKjxiWp+UHRImVSYOA1cT/6xeyMn58jJ7LjoHTdc8TN9y1ydpYyg+T3iGcM9xyMkS/NPyIw7LaYCHyzOKG8oYh14fwi1mrn5invROazzAeZR8nv+jOHMPu5PjeKOZd5fghr32ysjcGad4Hf5y6moVXMdT4frJnZM0d5dcw98rkG+d158rsNIjZ+t1Y+Mz8igT8SsbhwOvX1+9zFnDh4T5Y/fg6Oj5FZXzYgcfjx5ISRrnGNM0jQ+S+Xfxt3AV3KvD6irjEVYbe8R2zuOxuel3VwLmA35XnydxcuIjfmUTKBnaN3IppUTSx25RDkzBC27qb69CY9JNP7ygQKHMUzw7bTgiwLgx4KW8z8gk+RMatGQMFFCRO4KgJxYdtAIVQmTv0tkHHRj8jDZS2Lvdwbyd8xjmOp9JOdwpazyECUa5AxOBM46/pYgC8N3G6vyHpzn6yHEeuEdMfYuKgl54o8BBL0p/AjOmpl0hfWm2skhNlkCls8EJKqLfQ58UpjKHmPIOlTom/uQZnXLDZVoOmD2dha/BTp33Z2dAmKC5tdaFJcDYFJxtVzInInJhXrxWbNpgvWSq2AszHYVHjUalcQiF4dS67zREkQGIDH6zrmDfJ3i+72+ZJMqNTsE0ZylEfICchusZp2GcYQT/awdkVhZb9BNj1EdNxC4UZixHGWPEdssSmMCsNMb4TgtR+SE534ZBmKizafRk6AQ2iXhkWRvwqTiSmyJFhbBsLiXNVF0uZtYVceZYIyBLEhNusa8h8Ok4SUTBulbWjjc1E9RNQZ6OAnxQlC+KZx7HKVx//3dgTP6jXNVIu0Zbi07XCUBjbpizYFBAekz9lm81itoeiyySOytCGH+L8l51zzyjgZM44Cp4EN9qvI2cRAcAE2HnC4+ctaTgEPqCXn9P4F8maix1kg4r4TRyPGWWCLEhiDLZTxfwEGAIg2ItsKhKpcAAAAAElFTkSuQmCC" parent="1" vertex="1">
                    <mxGeometry x="280" y="160" width="80" height="80" as="geometry"/>
                </mxCell>
                <mxCell id="LGkPL24XH27C2ci5rPlH-3" value="GitHub" style="text;html=1;align=center;verticalAlign=middle;resizable=0;points=[];autosize=1;fontSize=32;fontColor=#999999;" parent="1" vertex="1">
                    <mxGeometry x="260" y="250" width="120" height="40" as="geometry"/>
                </mxCell>
                <mxCell id="LGkPL24XH27C2ci5rPlH-6" value="" style="shape=image;verticalLabelPosition=bottom;labelBackgroundColor=#ffffff;verticalAlign=top;aspect=fixed;imageAspect=0;image=data:image/png,iVBORw0KGgoAAAANSUhEUgAAAggAAAIICAYAAAAL/BZjAAAgAElEQVR4Xuy9B5xdR3n3/5055Z7btu9Kq7rqlmW5ycYVsCnGBhxCkcAhEEKxg19MAgmQ8v5fSYSSf8IbCCQmmBIHQrMCAQx2AgYb4wqustxULEurtr3cftq8nzl3DcbByHJ27652Z2A/K1nnnjnzfebc8zszTxGYZggYAoaAIWAIGAKGwDMICEPEEDAEDAFDwBAwBAyBZxIwAsHMCUPAEDAEDAFDwBD4bwSMQDCTwhAwBAwBQ8AQMASMQDBzwBAwBAwBQ8AQMASOTsCsIBydkTnCEDAEDAFDwBCYcwSMQJhzJjcDNgQMAUPAEDAEjk7ACISjMzJHGAKGgCFgCBgCc46AEQhzzuRmwIaAIWAIGAKGwNEJGIFwdEbmCEPAEDAEDAFDYM4RMAJhzpncDNgQMAQMAUPAEDg6ASMQjs7IHGEIGAKGgCFgCMw5AkYgzDmTmwEbAoaAIWAIGAJHJ2AEwtEZmSMMAUPAEDAEDIE5R8AIhDlncjNgQ8AQMAQMAUPg6ASMQDg6I3OEIWAIGAKGgCEw5wgYgTDnTG4GbAgYAoaAIWAIHJ2AEQhHZ2SOMAQMAUPAEDAE5hwBIxDmnMnNgA0BQ8AQMAQMgaMTMALh6IzMEYbALCGgBBfcYvFibHpaPAYCjwd2pTg06lB2JHG5/n3gtEekFwS0rw4pP1gmWOxzzsk1thAhhJolMMwwDAFD4CgEjEAwU8QQmAsENit7/vd2tx6Z92A3S72VtC4+HX/ecvpJ40cebuggLAU1CQrSzUXslM+eXwxi2Y9hu/fQHPZ2jA2PDH7vd4pghMJcmDZmjHObgBEIc9v+ZvSzmIBSCLFJSQYG0uy8cyHnnPYSsiNryMVL8NLLKTvtjIQRsRfhuQJhRdg+xKGNEDFaKRx5JMKxjiCdXRD3gnqQrgV387K1Q2wiMEJhFk8gM7Q5T8AIhDk/BQyAWUtgh3L50p55/GLoRI4cOY/T17ySlkwLKVtiOxalIGa07IMlcD2bOJI4UUwUWQilsF2fcsHGy0gyTTFhJaA0uJNK5Uac9rv40Y27uWqoyNatWkyYZggYArOMgBEIs8ygZjiGQEKgV6X5sb+cX/Sfw4GRV1BNrSc7JkilLGxHAhJfBfjEWI5NOmslKwZuFBHFkjiwkTLG8hS5Tsg6LjEphgcr9D9+hPHibfT3fpezNm3nC02jEysOBr4hYAjMIgJGIMwiY5qhGAIoJfk+HttHV3OweDGhOofIW4XblGJo9whBOQfa3yAVIdIgHIFlWbgpAVJh+wphxUS+jf52EFoWNEvcnJusNASixthhQfnIEKJ2G1H7j1nQchdD84bYJiJjAUPAEJg9BIxAmD22NCMxBOC63jTXbl8D+QtpXXouGW8laihFdZ9D7mwX31f4RIRKIaXCsQWqZqGobxOIqoVlh4mjIrHAL0WoSEJOC4qYSLjEqZh0LGl1Rujdfx99I9/jiLqbXS8cNFEOZhIaArOHgBEIs8eWZiRzmYBC8DsqTdP4Okbuv4CW9g1kW5chRQulQcHoAZv5Z6aIRUAUK8JIQKywdNBCrH8mBEIoQU74FMSCoKLqYiEVIi1FGKbAU6QdaLZiCrURKqMP4trf4bwTfsYVYmwum8GM3RCYTQSMQJhN1jRjmbMENtzzOefe/7NpAU54Mdbhl9LW0oMjOwkCSSkIKQYxTWntZzA5TUWg1x2yrRaqMkJc+T5u6hsEAzu55oxgcjoxZzEEDIHpJGAEwnTSN30bApNF4IPfzXNv8xk0L3odln8uKdlOJiUJYkU1CqhFinRqEgWCXlaIIZt3sYTP+JO9jB/8d6zMd3EvOmT8ESbLsOY8hsD0ETACYfrYm54Ngckh8DnlcMt9axnuewNNy84jnV5EdbyJlFdFWSrZQohVjLR19MLkNBUrRCzwmiWeFzL8WIqhnbfR3P551l1yF1tEeXI6MmcxBAyB6SJgBMJ0kTf9GgKTReBjhU4ePPw65PDbSXe2ghdRGM5BqopE4AiZ5D6oaqUwSU1pt8ZQkm1RpDMB4wfTjO/ZQ1PXV1m09gc4mT62JsmWTDMEDIHjlIARCMep4cxlGwIJAe2c+I4nVjOWeifd8vWI2KEUVSmWRSIIbCXJpiQZ26EYTZ5vQKwFggAvDZ4nkGFMbbBMKnMfqvxlTivexRVnmFUEM00NgeOYgBEIx7HxzKUbAqiNFq//k/MQq69kTdsLCEcchsehEJcp1wQ2Fm05QUp5jMXVSSOWCAQrxrEtbOGR7xhHVi3Capmx3Z/n7CVf5z2LhiatP3MiQ8AQaDgBIxAajtx0aAhMIoG/uaeZ8vx3MhC/jZKXJe6v+wbEeVCpJNMRogqyCrH++yQ1/c2RuDQonWhJJoWebP1nZ4SRvp9Qc6/lWydsn6TezGkMAUNgGggYgTAN0E2XhsCkEXjLl7toPeUvKTW9kdDziQaiJANiQwWCIxJRYgmJZRcZHthOUV3D9Sf/xCROmjRLmxMZAg0nYARCw5GbDqeTgK5w+FT/QiQZgJ7W1MS/CZWkLK5nCGJGP+TO+5slLHvxh0ktvpgoVSU8HDdOIIg6L8sFIgudnFlaIWMDo1SiTzNy+le4RYTTaW/TtyFgCDx/AkYgPH925pPHKwGVCAHJwwNptnd6PIDLgUcdqpYFXn1UmVslZUq0+EUW52tqy6bgvwuKGQDgpL9ewYkv/wjNa15ITBW/d6KCwlRvMQiwJwSC4yqi0MZBl4yOKQ5FVNWnWXfy1WwV/gygZC7BEDAEngcBIxCeBzTzkeOPgF45EHq/HFI8TCffrC5ldHgVxYFljPW240ceyo7BjokDC3+4SmlkmLi4m6B6kIVN+7jotfu5amX9gSfEM1YfponJ8r9exemv3UrH6nMISiF+r175aJAPghYIAlw3JvRdHAukFVEaFVS5mnlrP8VnRG2ayDxjcUhJrsXlwQc8imtyHL7XJTrs6OmQNNeFcEwxeBBEWaHGQpxsjVU9ZZZeUGVLTy2xuRaXM8X2MwKsuYjZTMAIhNlsXTO2hMDNm7Ev/OnmHPNfvYxsy0lElROJ42VYogdLdeH7HpGSyHSYvAEjJV5TTHkspDY8TFAZQYWP0tnxY7y2J7hvdx8LF46y7aTpfzte/n9Xc+qm/0PbghcSDsWEhxRCNsgH4dcEQgrXjrHcgHLZpsbnWLX079mqPSSnsd2jHH5YaOLJcAFjA6cRjJxMrr2bsJQhjhxcXdHSjrFTWvRB5GtxKPGrIXE0ipfvI9e9j8N9d7LGPcDK6jiXb6gYkTCNNjVdN4yAEQgNQ206aiQBlbzaApuV6MnctGbfj4rrqUVnYHsn09K2iFxTFi/vYHsSywlRjk79o70S6tkGcyJFrCJiUaFShkJ/jaj6GFHUy1DxEVoW3cP61bvYQgExjWWOT/i/qznp0i20LngRwVhI0KeQtpp6J0VdHVoXegokKS2qYivJ1Cg9n6As8Wtf4LI1n+CV07SCoDZL3vq6NAMswnZOxbE3YIUvIA5X07YgxPG0M6cAZaG9Nhxk8j/tRxGj7R5SrgpquvZUPMa+x+4k591He9MDnLB2Jyvzo2yaRrs38mYyfc1ZAkYgzFnTz96B6+2ELVs2i6t/+r8ylXv+ZXHx/Ve+gR37zqMiF2LnM+RaFJmaQ1SNCfxn2SqQChXYCDtKfBWVihGyqt3wcLxx4uJtxLWfsiazndXLDrNpmvbaT/3rVax96Udo7nkhNb+MP2ghXUXcrFDaeTCWCF9NephjEj6p0ziXJK4vsNwIJT3IhYSDIaWDX2TTJZ+YFi6btcjb28RD+1ZRjc8hM+888p0rkUGeuJzCt6Kjz3759HkR40cV8PuwgnvJZW8lZ93PwaX9pubE0UmaI45fAkYgHL+2M1f+LAQSf4M+leGjnMGO21/DkszLqNlpRE4R2w62iJHauV7nC3i2W0CqxBdBWjFxLJBSv5lHENkQClTYT6V/F074I1au+ylvmndQrRONd2Q8++M9LHnxFloWXUSkqviDApwGCQS92FJNKkHX8yF4FmFKUOmNqPb/Ixe/5h+4Qkxe9sbnMuO1j8CF32mmI7+eauUc7LZzySxcipPJoso2lCBKP4cz/ZpAAFFTeJkKUaVAUNxOWLmJinM3rzzzSMPH+Byu3hxiCEwGASMQJoOiOceMItDzL3u9J5/sOYMx3kRh9FWIgwtw0kVkdpxCSRBXoObH6BdeeyJq4VlHoB8UcT3kUch6bQGpbNJpF6JxSr0PURn+IQt7btmwrvzkvVc0uNTxhk92s/ZFf0m6/XUoKyQYjImtxggEvWlvBRFOACqysbOK0BVUnxhCiU/w2vOva/gy/FWqibt3nkJP8aWknRcg2pZBU5qgolDjkqgYYDc/h6JVzxAIckjStAhSTS5B5QjDh+6lEt/CklV38Kn0AcCEc86obwFzMZNBwAiEyaBozjFDCCjBZiwO7TqJseIfklt4MU1dbaSjCpWSRai9/MuKUlkQqADpCqzUs98DWhBovwTtmZDkT9DL9UrhSEW6zSGTCxk7XKNv5+NYuR/gyp/wR4V9XHhh4x4Wv/sfLeR6/hg39wfYWRt/ICYScUO2GDQTO6wLhDh0cPIxoVMlOPIzsh2f5bNLH2iYM59eOXjfaDOPPXkqfv58VnWejStXE6UsCkVJUNQZJWOUD1bmOXzvPXMFoQi5Fotch8R2qxTHxxgfux/b+SlP/OvtXPbnB81Kwgz5GjCXMWkEnsONMml9mRMZAlNP4I+OdDHS+wcE8RuRrT3klxRpsoqUh3PEI4JIhfjKIsj5WEis8FneJvUDQv8/lsk2gxYLUc3VdZOTLQorbWN7LlgBxf4R/OBRnNL3eelJP+Sd2QFEgyoZblYu+x57A8J6F27LYvwBizBqzAqCEgI7iLB9iYosnAyo9BiW+iar267l/ZmDU29wvbajBP8/TTy+Yx1jpYvJ9pxKV9cSgmo7Rd9nbESHJ0S4QiGloz9w9Ot6hkAIghApJa5lk85AOu1jWUMo/1EObL+etRt+zrpMX8NXTI4+EHOEIfC8CRiB8LzRmQ/ONAIbOdHddslHzifd/L/JLV9EGYsxv0pTJotVkMhajGX7xGmXsDNCVgV26VmGoZ0UI0kc2EnonmWHhIFOBaTQfu9KSOLYQWRipBsgrSLRnp/Tmv8mC1f/nA+JQkP46IyP79h/LtTegdvxAmpHMoRhYwQCln4rVzgVK4kZkZkQmT9AR9u1vNz5DheK0YYw2KFcPvXYeoLShbhNL6Zp/nKUk6Ew7FKslRgrxwhLkvNsMhmJX3oOZaifIRCKVkA4rgiHBVnbYt4iRfcim9Avsm/PTcS1m+gu/Yy/Pb8xdm8IWNPJXCdgBMJcnwGzYPzaKXHTJiW3NflrsYpXUQ0vZKxf4LmC1vlZRger6LxGentA/0FIgX64JZmUj/Ks+GViHH0CnWhJf14J4shCWBEqtsCKsRwf2yqQzt1GOvdVPoFeXp9yB73EIXPTzxaTaXszbUveSFBrpzSuqCmfIIyIpMRJKWIs3PDY7/dk5URHcyRRC3F9/CgiFVErW3Q1e7SnHXwVcKBvLyP2TcR8k3MO7WZrA7ZaNiuJyzzu3/U7VIOX4lnLaW9pIUJS1QWqYkWcBKLoolICS+eIiJ/DCsIzboxYJ0nSwQ+RzsEpsGxwPB1M6yM5yIh/N60t13FNy/aGrR7NgnvXDGFmEzj2L4yZPR5zdXOQQP0huSOLlXkJmeyfE6UWMrK/Ssaz6F6RoX/f5Cfr0cJB50+IQ5tY51bS2xCehxPsIZBfIJ+7ns+2jDTEHB9UeaqHXkIl/EPi9EkIVxL6IbWSReALXBtESoH/PO73xEmznkJZipgoslB6zKEirMV0LHDp7FCM9Xkc2n0XxcyXCFt+wk0rdAKBqW/v603jzzuZvgO/RxCchQjaae+0iGIIavVr/1V76s/HLhB+4zl0ZIsAz6kwGj6O07qNV+Zu4M1Jboz/SR9Tz830YAg8BwLP4wvjOZzVHGIINJKAjnv/+Q0LSOV+l9yCy5GtLYwfqeFZFl1LHIaOTP6bfOLAqHRxopiw5iQhkDIliMrD+IVvUQm+yQ9+8CRsfQ7L2f9DWPotOhxeyL7dryHufg1e10JsYRMWXaKihEC//QcETxWjOpb+JpbaZbKCorfvJXFoEUcRURSRX+zgZWMGHvOo7v4O3akv8LJX7GhE/oON111nbbt+6RJ8643I7O9QEy0QOuTbrMTNIAoaIBAUuDKiIEuUh+7nhObPcUXPA6yapgRRx2Jac6whcBQCRiCYKXL8E7j8cw7jp56NX3kXmaXnQ86iMODj4dIxH0ZHn0NinGPGoKMaBFa6SlhLTbxl+yjpI0rbKY1+EafpZw1Lx/z3Ks0DP1lPeclrsLxzSLmLSedcqOjQvpigHBEeLaTzNzGYWEHQERzJO7F29LP11oreeoC42SEQVYqP76Kt9EXOTv2UP7lgrCFv0Jcrh/E7zyTw301uwXmEIqRWg1SbjdUggaCLVco4JmgWFPYN0Db+T5zd9QOuPLkxq0fHPG3NBwyB507ACITnzsocOVMJ/Nl/ZRnofCuVyvvJLEvhE1IthqSUQ74ZSuXJX+7VXvs6wsHJlZLoBv33WiUg326TSg8zvvPLiOBf+doLG/Og0KsIB7a1UDv9BZT6L8LOnEvzwnZQKWrFgOqwwm17DvH/z2JkPdZEH1gRQurqjRYhilpUIxzfQ1j8Hmf0XM9Hl/Y1bA/+SpXj0C9eiafeQcfiEygVfYplhTXPwlYCpbNkTvEWg9IiqRrjLLLxj5QQu/+dNblr2XLBvoaIpJl6T5rrmhUEjECYFWac44O4/J5mRObPKFXeQ2ZVPyNjNlElwrMkriMInodz3m9FKrTjmy5EILBTAbHvoISi0B/RNj9Dx4IiQ3t+BOXPUHpiF9s2TcUKxn+/ws2bJYs+0MntD72AcvASsotPJfIWU6jElIZiOtt17uXn2+oOmlJGxJFNEDnE6TLx8E684D9ZvfQm3tD+BCc1MOX0mwYWEOx7H+2tF9PS3sLoUMDIaAjdEkcIklX+qRYIflKqAXe5gxX7+Hfvpa3yYT79hjumtUbH87Wy+Zwh8DQCRiCY6XD8E/jz7a2M5v6Kqv9Osj37GTycpVZTuLoUsWWjJjIgTtZI9Rt04oMQi2QVQYUWViqgMBDSNK+J7nkl+g7+nHDgn6hl7mnYNoMen1IWf19ZwGMPnkOt9cX4mXWU/FZGyjbLmjLJQz7ZK9Av10/5JCTBCToZ1H9vSfSHrmmkdNRGDG6YRDWE+Fhde5G9d3Ne9/d4d/MOwG/oW/NbH11NYfxvmL/oNJrzDkOHQkYrPmJevehSolUaIBDCUYG3wiGd8yn8WJItfIgrNv0HZ0x9FMtkTWlzHkPgNxEwAsHMi+OfwMZbO0kvfj9h7a2k0lWCWFDTyYImEuLolYRGtKiscFokdlNEtXg//vA3OKnrv9jaVWxE978m/K/e18KP+87HzbwQt/0sUtmFiNDB1kUolCIuW/glNxEKsqQQQUTsBMSWIAhs7dcIbkRO11rIgp1XhNKm5CvGCpKqswPpXE/nyts4nZ28dxqc8q46eBrV6oepxCdCWhFYFrZfr5swUahxyrnripaWJamUY5yswo5TREOfIO98gatParTdp3y4poO5RcAIhLll79k52pkmEKwmRW18H+Hwt1jBV/mbaXBYu1nZfKfUTv++dRSHzyHmdKLiKizXI5Wpx/Bb0sFOKTxP54ywCSZWEQJ03oR6igiREQgXpBMQFCRj+8fxS/fTvPAWmvffznlrDm1+y2crW0UDojWeOXvfvXsDteAj1DgBdJpnS+LoyAUd1Vqv5DzlzQiEKUdsOpg+AkYgTB970/NkEZhpAsHOC6rj44Sj32Nlxz/w8e6ByRrqMZ1HOy7efm8e1TePaGQ1MvMqapXleLkmcm1ZvPYMXpNFKidwXUkkIqSlfQzipJJl6DuMeDrLkI/lj6JGhrBG7qPTvpF1K3dtkH86cs/l14RCJ06ajnbFY2dQCz+KL09A5CMinflaryBUjECYDnuYPmcdASMQZp1J5+CAZpxAaBJUx0oEI9fTk/l7PrGyf7qskiSR0n4El16T5tzfX8djA6sZ2XMCqdyZyPwK7LRDFAsiXd1SKPyaSvbudSIkvRUxXiuQcnfS0XwXC73HeHH7Y3R+6KDa8LlQv6SLxKdhmloiEIKP4VtrjECYJhuYbmc1ASMQZrV558jgZpxAyEOtcJhg6D9Y1PZFPrl4eLotkQgFHfK4nzTfopUD1aX4spuxoSbG+9MUC4KgIhBFiYgCUl6JTFOZsdoAnfEgL2o7xJVnjsEmX7EtnrZVg6eD1FsM1dpH8cUJ0BSZLYbpnmWm/9lGwAiE2WbRuTieGScQmiL84nb8oW+yzLmBvz1hZhTw0Zkff9UE92Lxj1gMIfGoO3IO3FI/Ip+POb095pGegBNRbEkKWSRtRogDfSGJk2Llr6nEayFjnBTn4r1vxjylBIxAmFK85uQNIXDZzR3kVn6Amv82Um2jFMZtglqECCy8VIySk+2tNpETQMRJqOBTJaH98Rq57hTpJovi6G2UDv4L68ZuZ+uFk18LoiFgZ3gnf3j4RILxj5LLn4abthgbjimVQ0Re4eiSSlOV5frplR5j0MmSrFZBKhtTfchGjX2YrhO/zicXa2cI0wyB45aAEQjHrenMhf+SwLt/1grLPkCxfAVe9xAjoxaqFOD4qUQgBM7kzvOnKjzqlMNJPoG4Xu64MOjTsTxFptmmcPBGSgeu3tC64+F7r7li8mtBGPPDW4aXUDn8F8xvewmZ5hyjB0L6Cj7M01GPEiuYXLv/kvnTBILyIarFZFfo+g8xtVsHcAtbWbrxJrbqPMymGQLHL4EpuoGOXyDmyo9DAm++oQmWXElUeB/plVWqQYg/FuHFDtkmQSmYildJgZARUpdDjqwkq2JpUNC+WEAmYnzPvzJW+Wd+eO5APTmRaZNO4G0jLYzvfT1N2d+juWsVo8MRI2MBdkd9y2TKns9PFwgBRFVFeqmkOlQleORGFslr+NTFuxqWcnrSwZoTGgJ1AkYgmJlw/BO44F88WnouJuZKWtesIrahdDggbVnkWlyK/hS8wT/1kJjI1KdXE8KKwM5JfL9C4cgnCce/zg9fUTr+Ac/QEbxtr8dY3wtxnXeQnXcW1ZKiVA2wW208nf5xCsyeoHj6FkOoM1Iq4jaL0r5h8oevoaf723z89OkJbZ2hpjKXdXwSMALh+LSbueqnE9i40WL0rctxM5toXb0JK9tE4UCIZwna5qUZGddJ+Se3WXZIFNrEgY2wI+yUn9Qo0OWQi2P7GSt9nP4DP+GRTTrfr2lTQGDD5+5x7r1FrCXk93GaLqYWpggjSOcdbJ0oaapW+J8mEISuxyEVBTugdPgx5qt/4iWL7+Ct840wnAKbm1M2loARCI3lbXqbAgJJCN+F9zfTnHoFze3vB3c+40/WyLiCeT1Z+vsm30lQVzUktggDC8sNk60GITywBxgeuomo83PcePVemIYMg1PAeEaeUvuCvHl/C5Z9PqXSGwnVGmTUTFMuqcRAqHM5TEV7mkCQCKQdUIyexA9v5Pz517Es08cm0ZgCXVMxPHNOQ2CCgBEIZioc9wQSgXDGPTbrVp+BDD+IEqsY3muRT9nMW5Gl/9DkC4R60SOZ+CHoFQSlhYKjyLTcz0jtW5zWdgMfEjMjvPG4t/BvGcBmZTNSW8a+fa8nlmdjhT20ZHIoLMKoEQIhwE2NMhbeg5PbxtdabkdMmfPDbLakGdsMJGAEwgw0irmkYydQzxi4Ic0L/uRCFix9Cx1rTsIP80QVaF0SMH5YUuqzsK0aqfmQa0vjVxQVXR74WdvT7w9d1UihAyLsyKJQ9SmMg+U4LF1cIU+KA4/vx8ptY/2p1/N+DjS0suGxI5s9n7hZefzzT16E1/UiovA0aoWl2C0dyHyFoFakXLbwcimaFzpkMjbD+ybCD39bpcen+xkAB4IyXs2jKyVpUx6WI1AOVOx9PFq+j4EH7sAVP+CB147OHrBmJHOdgBEIc30GzKrxK8Hv3rIUv/pamua/nOYFq8m0pIjsmOKwojAQI2sBuDbpFl0GWjsWHgMBAVYscAJBzYmpCQevuYgdV5Gj41QO38SK07/Dh7Pag30KVi2O4VLn0qHXXWdx4+kLqBVOJyq9jGz3WlKdHZTGWykPQEgVmYZ0i0OmFcqHJ1YWjkEgjKoanvDI45KzJW6uQKVcYLy0lwODP8TO307bI7vZZnxO5tLUm+1jNQJhtlt4ro1v4x1p+vefREvnRSw46ZUs6OphMA6plgXloQi/EBDXBDpZsJvTVQqPUgr616IVBNQEVqRwOxzslphAjDO0Z4BI3U62cj0XLniIKxaU5xr2aR/v5cph/IGFSP9FdK45C5FaRWF0CbWCm4S96jyQsQTb1fpwInHWMQiE0IlIWSlSugqmCPHjIcqjuwiD+6k8cDMXbHyMP6NsVo2mfSaYC5hEAkYgTCJMc6oZQUBw3ndzLOw6meb5l9LW/jIGiu3omsVRLSTwQ4JqgD8usDMWXstvEQi/ljFP3yuCqKZ3GhS5Dhs3XWVoqJeBAz/HWfiftIX389VV2u9giva+ZwTfmXsRG3e4LJ7Xg5U+l6EjZ1HzV2JlOgmDLNWKJI5DahVJW/eEzY9BILi2RLgWtlelUhxh9MheQusu5i28Hfndx1j89hJbpyx148xlbq5sVhMwAmFWm3eODk57t28ZzjMWrufgzlcTZl6AnZmHl/ewhUutEhAUYyxbYmWO5R4QRDrmXfhknSrR+BCFQ3cicjfScvZ2vrSlZKIWpnnOfVqlODSwmCd2n0lQORO75WTSbZ2oKIvvK/yqINM2YfNjEAgysLG9CjU1xviR3VRG76Cl9Q5ec8ZO3ir0ipERhdNsetP95BM4li/Hye/dnIuJ9msAACAASURBVNEQmCoCWiT8r4ez3PXd5Szf+GLi4nmkm9bjNecRNoTFgOBYU/FKRWRH1FLjOEN78YbuocP7KT09j/De9vGpGoo57zES2PA5h7PeMp/BRzZA7RzS3etwMssJSRHWkirW9fYcBYLQD3+d1kD2UY0eIYjupq3lDtbLvbxvUdVsKxyjfczhxw0BIxCOG1OZC31+BDY4vOv7qzmy92xk5cU0da0j3dyJsAWRiKlFCqkfANFERmT98FDg5nRufUWAIgggLKskpW5EH7X0DjKl7Sy07+Kv1j1K55YywuQ7eH72maJPKeXw3uF59D25Dkuchdu8HiFXEUedhKkAywrrxZwimfxYSkekSGxPJpkRdZ7mwBeEFUkUVSiP7UbIx1Hcz6Jlv+BF7fvYiBEHU2Q+c9qZQcAIhJlhB3MVU0tAsv7dzXht6+ledxZtSzeQyixBtqWJMg4iSkPgkLwp6vw2CjKdUAtDimGZcrlCbaSAGhohKD1EeehmTj9pF7+/YZAzxFTl851aInPl7Jtv9rj9yVXkelYg7fPBOYX04lZsKRCxjRNnsGInyZ7spm3cvMCvVZPwyNp4TLVcQLpP8uToLaTDHWTLvXzrFf0IkwhprkyhuTxOIxDmsvXn0tj1lsP77/RYcVKGgcpChsdXI+3FCG8BxcH1VKqLSPLzOooYgd9bI4iGUJmHsNr3I+yDdOX3khGHOcAwGxf5Jlve8TCBlGAzDhVSDPd1MHx4AQuXnUxlZB6FgW6kOgEr3UGkJKoM/tgYUbATJfdhOSOk5u2ma/ETjLYeppkiLyQ0dj8e7G6ucTIIGIEwGRTNOY4vArpewo04FItNjKpWdty7nP7qfGrNkrhNIXMxwTcVMj2Es3YP6zcMsiFfpkLNPByOL1P/t6vdqCz+kjw/Gc5z/+42RsaWklrQhmqPKe5WjN1ZRXi9dHceoev0IietLnAVvvEzOM7tbi7/eREwAuF5YTMfmhUEVJKxX6E2S7ZtEWwDTpzwRt/yyxHWPdqEKdk8K2z+a4NQgo3UQx613Z+yuf69Vc8DY/PZZ3MzomMhYATCsdAyxxoChoAhYAgYAnOEgBEIc8TQZpiGgCFgCBgChsCxEDAC4VhomWMNAUPAEDAEDIE5QsAIhDliaDNMQ8AQMAQMAUPgWAgYgXAstMyxhoAhYAgYAobAHCFgBMIcMbQZpiFgCBgChoAhcCwEjEA4FlrmWEPAEDAEDAFDYI4QMAJhjhjaDNMQMAQMAUPAEDgWAkYgHAstc6whYAgYAoaAITBHCBiBMEcMbYZpCBgChoAhYAgcCwEjEI6FljnWEDAEDAFDwBCYIwSMQJgjhm70MJWuc6ArGKAEn8FmPzarUGwgYIOuqSz0EfU6B6YZAobAbyOg7yWLq3ZZ1LIW2UjxO4sCLkhqk5s6IWbuTBkBIxCmDO0cP7G6wOYH2Tw//LsOeodWIHJLCPOKTOUQGWc3aTXIi6MCm07y5zgpM3xD4DcT0CXK30GOA4daGH2ojfbKMly3g2yuwqIVezh14V4uYwyomWJiZhJNBQEjEKaC6lw/5+eUw46D8xh/5ESq886kOnoWVmolwnLwRw+iontxs3vILn6S5rYn2JA/QpYyELGR2HzZzfUJNEfHrwUBSLYdcLl9tIlDohvcE6lGPcRiEcH+dXjeIrxMFSfeQVj4GdnWn3Hlabs4Q+j7xzRDYFIJGIEwqTjNydioLEqlTpR/JmHhZXR7Z5MWnXiWS4RFtepTqpXAKiFlgdpwHyq+jfJDOxCPHmZ8dIDbPqvfimJD0xCYEwS0MLiWFE/e20Wc7WQotYC+vWdBeh1eZwtWLg9eChlkSblNeG5ItVDhyGP7qRS+QcfpN/C1Bb3mnpkTs6WhgzQCoaG450BnbzmSJZIbwL6UWJyLV52HK20cSxEjCYkJlCAWElGTVIYgLh8gKO7FcQ+Tm7ebYPfPaF0xxOo1Ra6iiBBGLMyBqTNnhqgFwb3YFEjxBE30sRifZfQNrqU0vIDYaSEoLceyO5Aphe2B5YSIrMIu26QqEX5WMlKpEQ7twJPfRtz3Pb7y1tKcYWgG2hACRiA0BPMc6uQPd3Wi1Otx218DzkoqvRLlaB+rxF+x3iRgC6xAIFEoEUEcYcXa6WqIoQduw/L2kpKHcfKPU6gNsSKqMn6RzzUiQGkPx3rTXpBziK4Z6vFKQCnJNgSlJx123JljILsY2TMPOb8HyzsHwjVUxpvAt1CuAmFBbP1quFIRN4EcAntcEbYr4q4YeyjEHvo+1d6/4+uXDh6veMx1z0wCRiDMTLscv1f1ym+vJtXxAdpXn4XltFA6FGNlfILIQdgK9BddLLFSCisUiKg+B7U2UJEEP0RUCgRhkaBQojp6hCjqJd18kPblOzll7S4uZZwlFBKfBfFLrXD8MjNXPnsJ1P0KHP6WDgp+M4X9qxh44jQKAyuR+fm4i5uw29qReATjYHlVpCsgfsZ3s75vmsEaBGtU4LcJ4jawRxXW8Peo7Pko2zYNzF6QZmTTQcAIhOmgPmv7VIKXX3sKTtfH6TrlBGzXodofYWcr+L4HtkJYcV0geDGyZoEWBclSQIRUURL6OK/Hxa9JqiNQHLRQqkxYreF4u3Gt7aSyB+kSD1MY3MWYHAcCrtkQJqGTphkC00lArxQ8jM223R6FajNV0U7o9TAysA4v14XXfAJxuAarDJHtQEtE4IREFUU4rrDtEGwXLSxE8vVcF9VaMMStMVa/RI5K/FaJ6lDIYYU98D2qvX9tBMJ0Gn529m0Ewuy06zSNSgku+uY63NYtdK1fj3QyVI/EWNkqQZBCOPGvrSCIQCbPdCljhIohFMShpGOpC0oSqZAwiYIM8EseqhYQlYtUigHVyuOMD9+OHe8h6/UzltnPaKVA1wkRL1gZsEVvRBjBME0TYS51K2Cj5PIPSfp7syxb30F7VxcjpQUc7juF8ZFTEU4LqWwTmRaHVDaP2yRpDhXVOKQYxxTGHMIKiFBhp3yELVCRFsYgrfo9QywnBIJAjkvCFkHUplcTFNbAd6nu/4gRCHNp2jVmrEYgNIbz3OnldXctwnXeQX7xRQhnIZVDCtyIWO+p6i863SQIvcUQiGTFQL8tqUCiwvrSqtMaENVcpFRIO8bSekHvx1YFQr9p2eA7w1TG+pHFcZxonCH/CWJxmHTHMJ3z9tIk+/HcKj35CleISv1NzDRDYBIIKGXxSVz2k2Ko0oRTWMj44XaKTy7Hyawg39GKl8sRim7CcB6pfJUYB71gIISFdEPaRTPlSo1R36dQshB2TFbaCCciDPV2m1VPJibrAkFvv8UtCltvMRQgbIO4Q00IhOsp7/mYEQiTYFtzil8jYASCmRCTS+Ddo60E5VdheZchnBMo9QpiKcDRjlcTfSVOihI7UthCiwcmVg8EUikKBZ8ocLFssD2FlbJJeREqVIiCRLU6OPP1K5ckG1nYgcV45OMLn+CwguqDqOoDtLX20r3sSf7SeZwFVOkm4NVEbE3EghEMk2v52X22CzbbpNst1l/mIjva6RtcSrl/EUH5RNqWnUtQasYvplAEidgNqy75bgfbSqNkQGUoRRzXiKL6PF7e4zAyKhgtB1SJSGfAS6ewnQi/oojDuoOisOpZR+NEIIA9pLCLiqgjJu6sCwTZ/wP83o8ZJ8XZPQWnY3RGIEwH9dnc5+X3ZDhy8EJy3e+j54wTOdRbJvYdlIyIAotIBPVtVUskP5PWJlYnYl8iZAlpjxFHiqgmGJJ7EZkjZNp30UQvfjhAutbLyZ1jnEY9Za3Zjpg0S8yCEwk2bxase2eK/c1ZdlaaeU3LqfTKZewqL2FoqIdAtSBatT9NGootiFiH6jy96bk9uSK03B+S6XASMZ1tlrTN9zi0U9D787/l5vd/FgaKs4C9GcIMIjCJX9AzaFTmUqaPwMbrXGL3NLx5H2T+mecxdLD4K4EQSiKCZD9V2nWRMFlNL8WqWP5qaVa/eemti8hCdCjioIY/HFE5JAjGemnu/AW22kMufpK0OEIpNwqZAmetqXI5oREMk2WY4+A81ymLm5B0k2ZkpIWx3XlwWojLy6mMLyWuddO85FRUPI/IsojSIL0IUhAisWp1J8KpFgiVkYhsq03kC9JN0DnfY2B3zBO/+Btu/sAX4JDJpngcTLfj6RIn7wv6eBq1udYpJKAEb/rhIuL8X9F18u9SGigRhTbKComVIAx1zgOJsESyhTBZrS4QLFQs6vu2ugktQiLSrSkdEQlVG+Hr/Y0yKVmiWqhSGqnhF0exeBDyd9PV+QRLuo5w93+OsG1TvRiOabOTwFMJi75CG727F5LKnIItX4A/3I3nZHBkHossblpSHJWEQZrYFpCKEDYo7UxoKYR2pG2AQKiOxmRbbKIoxnUF7Qs9+veU6H34Y9z8/q/Bk9XZaSgzqukiYATCdJGfzf1edk8HfvAXtJ1wGeFohSiwUXZIHAlCnfAgtpI8MJMpELS3t96nTXSBFSdOXfoBIO0QWQlRysZybNJZgSMVli1xtEARknIRSoOjjA3sxXLuoXXJvRz69gNc+r5+rtBbIqbNOgJ6bnwSj137u+k9cDoV/2zy3evJdi9GVtJ4SZ4OCRUHy4opln2CwEkiC4QWCHqqaSdaK6rPuwYIBL+oSDXZiCBKHHebO9MM7R2kb/eH+dGHvwP3mrk66ybq9A7ICITp5T87e3/3vlYG+t5PZtlbsIra98CpC4RYEEbh1K0gTHhB1iMjZLLFgIgZ3Vn/Qk3nI6QjwEphS4nX4eA1WQhZJqiGFA5JKoX92OkH6Xv4Fpac+wuWLepjqwhnp6Hm8KjuUQ7/vmcpB0bOpVJ5ObE6GbujBa89RsowSQMe1ySqIhOnQzoq9QygWiCIelRBEmmg20Segl/HOfk+CGFNkWlyCMsBOv4n3+owdvBxjjzxEW564FbYalKSz+EpPRVDNwJhKqjO9XNepZo4fO97SS9+C1bV+qUPQhhKXYlhSnwQngqhTLIx6iQzlq4KGetsCKhaTFBzQUdT2BHKCbFSAbaSiFIucSVzO4paVhBWBEGxwOjIbUTuTYTevdy8rs/4JMyySf3BgTyHd19AuvW1WKkNxDUP4Viksi4hikpNEvhx4lSrwpg442El8wlkohcjpK4RktQV+Q2ZDxOxOrlOinqbzGuxCEcDokCSbq4yevCHDA59lpsv3mkShc2yOToDhmMEwgwwwqy7hMtVhiN3vh2Rfw8teTdJhhTpn0gSKh3kDZac5CiGiTe5ONA57CVSF7exI4QSuE0WSoeKxQK9gBHo73X9uxhjBQEiBcrP4mYivJYqcQ0KtcMUB2+jVvk+Lzr/frYmG82mzQICF2y+2b5l/wmriQf+AEteQsrppBqXcbOQ9TwtYakE2v9EUYsVkc7P4YX1kEO9lVC16s9+VU8brnN1NGKLAUvnBZFE5QhLWdhilJGDX6dk/xs/Ov/QLDCNGcIMI2AEwgwzyKy4nM0329w5cjFh7SMsfEELbrqGX3OIFdTiCBGLRCDon5nTJt74knDJmKb2GgMjOymWvsuKhd/nH/PDM2YVYbOSbEneUPWPXlb+TW+qT2db//f/SShnvabAr1q9/3rTWSt/leRC/5df/V0XKHoYNVMyWyqdX/OrQ3nuUK8jdt9OOLyEQl+NYs4i1QRpvZ0wQ5vwYqoFXapMktdbDcO9DO77R+a/8vt8SegQx0lesZihHMxlNYzATPqCbtigTUdTTEA/wB76yamUx6+i86SzsD2XMLCSR1kt0gu4AkfMMIHw1IqwdlsAvIyiUBtmfOR2WtTnWX3Ko2yd5rLT2tHyajxuvW0Bi1bMT6I2rDYf3w6pjIN0FOmdIAcVnqWwnRDX1SGbISkr5gcLSlhKIdMKMuAISSxs3FEBo7+aFH5K4bkRhBFvWiopIhFVC79mUS1IqiVJW5NkoFtQ9G0KT3rJbzsNKUcQFiDfJPG6JVKVKEYDLKqO8SctunT3tPpzJALhTx9axJHw7WS634gKsoz116hlJV4TuNWZLBAUwZj2q41Ju2n8sceoFP8368+7x/jJTPF32hw9vREIc9TwUzps/bb5+9sXMrzvTXSdeBnCaku2GLRAqEb10MEZIxCeSv/8FBGdSyEWuFJRzkaMD/dij3yai865gfeK2pRy+20nv1nZfPnWbgr2WsYPX0zz0tMJVQYRh0idjbKma1dAOKj9MgMsUcV2KzhWBdvxsZyQgfQwSsZYuvaFrouh3zkjifRJfp7eRFJ1E3LzBCllE2hv/sBF+S4qcBApgWrTOSXS+OVWVC2N1Cm0LUHgQybr0tINMrWPyuD9ROI+Fp76EB8Vh3XazGnjqHMefPXWs7Cty2ntOR8/thjvD7CaJam0QPgz9ztR5hXBIElBJyfOEYz/HDv3Pq5d++S08TQdz2oCM/dmmNXYZ/3gBJvHWnl016Wk269ERd1JJkXt4lWN4qT+gi3kzNhieBaBkNKhj92KcjSGNbCN1y28lre2H/ofLdM/X7NrwfX2Gzs41H8hzqJXYTedRWZxCnw3KZetHTLdicI+SWVAoagWLVSoxU6chJZqEeHl6274+nhdIEsJkdS/cHT9i2e5uDEZEEYCqbeDIgtL55rQayw1iVWSuI5CWWDrsEBHYQmLqBrhpVxSXRJbBQzuHmN06HayXT/mjn+6i5e+/QjXnDE9IXlX7sjxZOldNLtvIrewk2pFMDoW4uXAc21if+Yu03stgvKAFoA+Tqxt/xN6lv0FW/L9z3dqmc8ZAr+NgBEIZn5MDYHrlMsP9p6NdLcQVleBFdR9EAKVOAxqgWBPRIlNzRUc41mfscWg+hWstAjzBYIDt7I4uJZPrb4vKUvd6LZxh0vt8TOpqbfTdspZpLpyRKKCDF2kb2EjsNEObIrAFSin7pAZhxBpJ7tAJdvT6YyXsP+lL8KEX4Hk2bd7hiphsqRtOzG2VDi6hpD24a8J/IG6cNClu/V/j2X9H+OSQCfJzLf72JaiMCoZHzhCHG5n/IHrWf3aO/n7ppGGiy29CvPxb61ELfpLuprOp6lbMDQClWpINiNI2za+P3NDBdNNNlUdwVAKcO1Bcvlvc3r687yjs9DoKWn6mxsEjECYG3Zu/Cj1W+87x1cgyp+kVjoVZfuJC1U1WcrWb5oyeajMjPbUfaBfw+tvkOpAiDjBQ7YXqOx+FLVjG2876/tcuqDx6Wwv+XQT9oI34S35I1pOakevxQwerOLqQlVC4iFwhUTqipc6z4MOG5kQB2GkkFGcfCbM1cPydNNZLXVLdtxtUc8P8RuaKFtJuKh04mS1QCYhfZIghNFanPQp0gGOpSPznUSkhONx8iauKxdalsBrKSeJsSojFap7vkfXCd/gRT272NRAsaVXPd57V5477nwJbef/MfOaTiDf4TNYjCiVA/Iph1zKolprvAB8rveAl3eICj6VEZ90+gE6O7/KH3T8kJNMhM1zRWiOOzYCRiAcGy9z9LEQuOxrHfR3baVz6SV0LXKpVWBssExUldjpKQhzPJaLO8qxTrNi/LBeNg9obQ9I8QBNTVdznnM/r2ywL8Jrb2pn8UmXYzf/MaUaDPUNIUUaGUtsVy/VS50PCqEf3k/F30d6I0cLAf2vOnGUfq5PVNR8ZtBB8rFnEQh6CyMpO1wHlhyma1woCBKXv3pq6/rHtUgA3woQRQu7ZuEqSVZXHWzV1TlHObz7CEf2/QMveuUPGupYpxNnXcVSHt35Jrp4I5mm1iTvRVUX9FIhVmzXxxBO7xaDFtZPrfDoVSDtaKrFTRzYjPSGzFtj0ZZVlPp+il35zMYXP/7gtk0mJfgk3vnmVE8jYASCmQ5TR+CDX8xz2/x30b34zSxeM59yEDNyqEJUk6S8mS0QvDbByBM6CkDRsdwjLg1SHf4sZ63+Dy5nqKHL46/9djvLX/Iu3KZ3MzJiM/BEGa/dSlJJa3+Cegz+U3skU2fP53rmqoywKhaejElFNm7ahk6LXLbInofgyCMfo/uNX2VbA998t6gMj4dnMt7/ZjrDc7G8LEGY5NxM/GNUkj9jQlE914FOwXGJTXUtEZ2AKZLYKV39tP7nvr01Fp3s0tGkKB7ZhlX6580d3+zdutVkUJwCS5hTPiN22QAxBCaXwOX3OOz3X0TG+iPmrz2TKBaM9GpfBEkqO7Onn7KhVopwbUHrvAh/oMjAozeyeN2/8fqe3VzYwHC9V321lYVnvZ2mxZdTqDoM7nRId9UjKiK//uarow5mShx8qJNS1SQZXQdDudiWg9MUYTcFHLq7wMD+j1D8ve9wb4PqXFyuHEoPr2K49nukOi6hI5tFhR5BIFE6AkRpkaWXSGKIZsBLk94iStKET6xmaNHghAwfCOla7pKyy1D6JCvd6/jA/NLk3rTmbIbArwjMgJvBmGPWEtD5EB6740Si4N20r7yY0LIY649QLniemCnPs9/Iv1JReLkYC4+0V6I8UGFsZz8L1n+FdSv/i6uSVYTGOLRdcF2Ojo630rT8T3E7FaO9DpYbIe2IqOYmv/WS/0xpsd7X0Jn+PC0QLGSsC2VFhKrCyPZ7CYJPka3d37BqmVf25zi084UEXEHz2tNopoJfThMF+iEcJVsl9f2TiQfzTACpC4pZEVFoJasHOjX4eL+gqV1iBX2I4CMsXfvDhm7TzAQs5hoaSsAIhIbinoOdvee+BQyX3k56/mXEMstYMURmBG5K0MCX8GMmP9of0bFUYokMwXiR8pEKstZC1wk/IpP9Eie23ssfisaU173khhRW9EqyXX9Jy5pWgpqgWtAVMSOUTvWrfydOhzNDdOmIyFiKRAjiRMiKRNQUqjqAv+9rdK/9Jv+wrL8htQO0SD38xCJGhl6FTL+JptU9yLEaQdUj1okjRJyk3q5XYZopAkFvv0VJ3ZC4Vq8gKZ2ISsEhnS0Tjm1Hhn/HqtN1CvDGiNRjvoHMB2YDASMQZoMVZ/IYthzKMFi+lFD9CWUxn6IOm8vKJONeg1aYnxeewQM+C05M4aUcBh6rUT1SoWtJjtaexxh84ivYfTfyxYuHn9e5j/VD+iG346HVuPG7yM67SGchojxYv3ef2q+eSW/AOuwyTsfEjk2cDgiHBdZ4hOvvo0l+hg+d/CMWi8qxYjjm47VouvrhLDf0XUK29XU0L1lPti1PcZ9IanQoKyAMBToKFL3v/7T00cfc2aR+oC4QEsfS0K6LBakIY4eUt4fa+PXYqW/wbz066ZRphsCUETACYcrQmhMnBHTmunsOnslo8Spq6lRKykVlJI4jsKYvMeFRrTO0v8aCtWmyTTGHtscU9oX0nBnT3F6g94EfU3voKxsvu2Xntk3bGhMW9xeqncGB1+CXryTVPI9qsUpYcxAyAiWTaAVLape7GdB0lcysfgO2CVM+/ohCDg/Q7P6CVUu+yIdueATRAM/7zZsl4Wu7ufXx99K14hK6V+dwsoKxnemkmBduldC3qOlEUHZcd/p8ZuKsacKpM17qxFRxaOGk/XqEhdBbS/fil79C89IfcXVSf8E0Q2DKCBiBMGVozYknCAjWXj6frhdvZO2ll5HPL2dkoEjhiMDKyN/gXDdDvPGlLoojYGIZXzuxCStM8gE4rYcY3XEDa9q/zEeX9TckouESlUI9eCbZ/PvILziDXFSjOJCiPALSriapkhxPEdvaM3967+tqKsQWLq06AtOLOJiuMXTkLk5VX+LqNXdMFJia+htky/UZHlz1IlT6jeTkhmRbYdxXtGXteudJ9MdT7Wm5MKb+0p69h1gSyYByEryg8KRFl+fRnhcUqime3P599t3zae79c520a0bIwemkZfqeWgLT+0UytWMzZ58pBC76cpYwexE9515OvuMMiv1FyqMxVqYeTz9Tm35rS8LgonpGJ9v1EWkLMlVGH7+VIPw6PWfe15A3Ob3NMFSeTym4FL/0WlxnCbGfqnviRxFCSJQVJ5Uy69kIpq9VnRBHuGQDCGXMoBii6mzjkvnf5M/E/oZEWyjl8s5bVnOofSMti15INlxAMOJQJcZOTSR1mIkCQadiiGP8UBChyLuSppRN3nIpVaFv3+cZG/0sP3qNKe88fTN8zvQ8vV8kcwbzHB+ofrjd8u0NLDzlStKtr0bVKgQ1P4nkSt52n/5FrZd4f+2Le7rgTaxkiLpA0EJGx6QLD1Q6otD3GMP77qJ15ff4/5bs4owGOFToVMF3+Cdwz/a3QvMrcJsyOK5AxBZ+pIj9GCuQTHeCSp0HIWXpug2S6khAIdhOdsUXeU/rrVwodFje1KpCvVXw5coCbnj8VYxn3sL8RQvI6NoURYWu5lx+yrFvhgoETScK9eqVQqeQSKdAVD0qpcPUwr+jPfMffGbVDN6fm65b1vQ72QSMQJhsouZ8v5nAyd/uYvmJbyPrvIdURoduVQjDpwuEiQfyDBIIen8/ySwc6TfO+vXpLYZI1zqwxhl9op9My7WcvPrHbG5A8iT94NtW7OBffvoG/AVvIdfUSX4B2Lj41ZBaIcbRAkGHEUxj02IllYmJQ0nhwAGC0W+xaNG3+fzJutjV1HrdJ4xuyXLf2Wewb+DV+OmX05puxu3XpadDqpajgxzrdGagQNDXr6uJOpLET0e4+iZR+IWAoPgj2ro/xz91PzyN1jVdzyEC0/tFModAz/mhnnidy5JTXkab+lOy7cuSCoF+9aksgDMRj3ZYqzsgJqWPI5k4jOliTXpvONMhUJUqpaGfEJS/gTX/PrYtnnrP/F0qxZ/ddiph9veR4mw6VrThujaVYkyhL8B1LGx7eu9rXRzK9mIqdkS1937aR6/hvOBurrh06utY6CJht9y1Ar/z1fj584hbemAkj9unnf1ighaHWnnmCoQwAksIMp7Aji2kG1CuSEpBP67/ec5b9+9cKUZm4g1jrmn2EZjeL5LZx9OM6FkJKMELH15Lt/d22ttfju+3JA+1mepopQVBkoBI5xlwQqTQIYc99QAAIABJREFUVREdoiBOYvpbujyaWisc2lnmwJ7v0O99hYdfsTdJvDOVTb9hXjnWwlDvy6mNv5muVetJ5RxKIxFjB32cnMT2JvbYp/JCfsu5la5nYCmqzeOo4k2cHn+R8/91DxduDaf8it69r5Wdu17Kwq434i5cS9l14bAgHlDQbBGviHH6Zq4PghYIjq19DyysKIVyaowUYqreTuZ1/QNXp36shNAZnqZ2m2bKDWU6OB4IGIFwPFhptlzjxv9sI5V/DbS/G9oXEtv/j703gbKruM99f7XHM/Xcre7WLJBACDEKzGBmBGYwgwdhx3YcJ47tDMtedvJWbpyX+4TuWyvDShzfZ2IndhxP8YgC2AaDmSzAzAgzSSAJCY0ttXruPn2mPVS9Vfu0MOZ6ANRHOqe7SktLUuucvau+qr33t//1/39fITH1YdImScmytbiO3lM/+je/Q6Y5h7TxdRRBxRb64adL+NMpj2xTyOQEjB98geyc77Nq+X18kqGak54vK5dnXjqeA9v+lPall9O8zCE/4DLWH+C3hVi2kxCbpGSvVlAKge0JojAilnrbwCWTtsmlFUJajPeP0z/wBHb2+1zY9Dh/dfxkzXHZqVKs23Q2k6UP0Np1KiLVRVknukxGqDKEngVtCqdQv/e9xJrbkWS9FO5Eimj+EP1DQ9jD99Lb9C3+bfnumuM4U+43ZhyHjUD9XiiHPTRzgLpDYMNFDjf/yRkMLvwLxLGn4bbFWCMOYsgBFaN8QexbiT1xvTYdIEg8hrRKLxZ+uoQoj5Jpe4JCeT3nLvpFzRUWNWn5R5p56pb34HV/mLbl84hsj1IhQqmYOHCTh7RwqgI7tUj61HkObsqiUIwIIploHnS0urQ2a3wiBre/yO7Hv8dI4Xae/cx4zRMTdQLn/eOLeGXzh0i3XI/T0UQUesl+vlQRsfaHUKpKnOq4PDAuKeJUTDaVwhuxyM8fZt/48/Q++23y9z/AXTeZ5MR6vTfMwH4ZgjADJ7Vuh6QrFj63v4MnBq8jzK7BzyzDDVU1imBLpC5Pt3T4t1avvYcPTVXSWNseq8Qi2MmUsaX2RBjmxRdvpens73NvV+1L0BL74t2L2L/lQ6TaryN7TAd+e5nxvjRRsSrDnBAE3XQy3jQTBT1Nrm1RCS3KUpFtqpBxbeyKQ2VsJ6XyvUh5O8edvqnmcsB6Tm6ik42PXkgs3k3z3FOJrSa0UbIeexQplB0hDxGDuqiS+fVrMa4ocFUi6NQUR+wbkUzEd3NWz3+w6udbMNbOh38NmyO8YQQMQXjDUJkPTgsCOonsti2rqAQfxXUvwUlrPlAVJVK6ljCxJpyWU9XmIHr3154iCcrB9kJ8D4IJwYsv/oKo5ZucMu8hvr54vOZvqncqn/+462wi9waa515A29IUk4O6okFVCYIu0UxcCqe/aQQcJYgtG2kL/NYJnKJFNOQw3vcgzV3f5+TTNvJpaotDUrVAlg2vnE1x7Hrc5lPxMt2EYRorVSGKLcKSnVg668RYS9tj13FTWlzKVdg5gRONs/+Ffgi+xztOvYPPzB+t+ZqqY2hM1448AvV8Jz7yaJgz1h4BLb18z9aFFK0PYhffS5xpwvISMXyUzj3QL71TD+Da9+YtnEFfMpbeEbGx9Z+An5IIpdh7oEScf5y26Dt85pLHOLfGfgP64fip/k62v/x2CD5Ez8pTUMomCmONJrHWb4jtmlhB660WW1sjpyzsrM62nyTYL4iHhhjvu5muM27la8f21bSsUUekPq9SbO07jsm9a8j2XIzb0kFYzBIFFk66aqZVqWgpapXYjf+Kd8VbmP6af0VpTUyI0xaVoI+JjT+l/cDNHLdyO+surn2SZ83HZ07QSAgYgtBIszUT+qofap84kKa5+VxGt3+Qkn06ojWHskSyt28HWmegNm+904KfDnLo0nRp4TgysTV2LZFUOgTSIhjbhxy8nSUrf8Tlvbu4uMaOj5pwfXf7Yor7f4+WOe8mlWlF6ae33nufEniy7BokK4YgKuB32jg5GxWFFF4+iC82UB77AR3RS9x0VU33yy/asMF54O6li9m580qw3kXHsb3gpimNOwlxs/W4nQgZSyKNh5blqmFUZTrWl6UErhJEGcEIO8ls+ioX/Ogu/vyLI2gRbdMMAkcQAUMQjiDY5lSHEFAWX2IxL25+L2PRdag5PcRCYJUETjkmPspler9tolSoTaa0/67C0/oIysaKveTB09QCcTzIwI6tKHU3cxfeQ/NxB2q+B395f5Zs6XzU+B/jeydheV6SyqET9PQbsw6rV8WeprHpRM0SpLpt3DZFVJik/MoLzMl8jxO7N/DRrvw0nuzXHqr7W/3Zg4/uv4L+vg/R3HMS2V5BqZRBWAUsxyLW2wxuiLICotCeIgjJjlbdNp386ccWQVPMSGYziwf/efFfrHti5+JvVIQhCHU7bTO1Y4YgzNSZrfdxfVHl+PHW8wg2fZbFZ87Hc13ywxCUCvhtfpKJb/tTgjY6pq/d7fR+ep247f06fMv6DS9TIR2XURPPk07dxpktD/CJ9nGdZVGLG7w+ru6K+I5q4t7Hrke6n6BlYRdKWESBS6UikE4ZKS3klPCOCrWF8C9JQ5VI/PqnZlmTNk+bKrhYwiaVriRkqFK2KQYhXV1N9LQPsfvxAUaG1uOmb+eWd/TXfK9cVy386KfnUTzvYxSHVqJULtn7SSIEOmCinRnruFohmpRIbbHlRkQVH8vSRmARVlOGlvYK4z/1UcVvctwHb2Itg3U9lnq/15j+vWUEDEF4y9CZLx4WAhuVy//38lKGtn+QpoUX0dTbSXk0RZQv47S4qMDB8pI89ClioMP59Z3AGEc6wm0lMsPlsb3kDz5K05zb+fSxz6pV1XyEWpCEZB40nt958Tjy7vsoTl6IkIvJztGmPzZSBMiigKyOu8dIXQapCZfGM9FK+M26OzqfQf+/pbdRLAst0qjzSEPN1xxJLuXjTEwQF27D9W/Ba3qJz9dYUVKTg8cnFvPSE+/BPvU6gkJPNVqiExDruELhtReMo5MRp9ZzkqArZHU6mrXpVonihoP0dn6exRffw1/UOJflsC5k8+WZjIAhCDN5dut5bPoN758PZnj64OmMTv4hLctOwY7aEYUI29X+B3a1ukE/UpM7Z/0TBE9a2I6N2xxRKYSM9g0Rcj/nnHXLimU3vLh5zc2hqNVb7SE8BzKns+2xa1HxlbQtzeBkBGEcURpx8bXuhB0nkQX9ME3srPWD6bdUOmjlyDi2sF2JjZX8svVc6Ey6NFj5iPDgDnqO+SJndv+cNUzU9G335pttXr56Dlt2ryYoX4/TtgxBNlkvSVnnlJdBrXCermsq5+j1XV3bmqypyAIdmckGjI4OIZ65j3df+xU+nN5X00TP6RqPOc6MRMAQhBk5rQ0yKF3L/7f08sC9n6Bl0eU0Z7vxYoGUURI412Hx6tvtVPhbJ53VcQ1keoog6KoMneBfKISUyvuZc+JPCT/3bb76lzqrv2aZ6GvXrrXWnXhjK+sfvJDS6MfILVxBbo4kJCLflyY9J0S4EXqLQRMErQypH0q/TTwoKFdJhO3oChMX35G4qYA49giRBP0vkVG3cuZZd/JnHKwpOdDbKZ96vIl+eS5O9xr8trOIxh0sVxBWPOwkJ6QaDal3gtDsOUgpsJ04yQ+JQhfHrjAeH6R//wv0Fm/lHy/bwHzKdT+WBrndmG6+eQQMQXjzmJlvTCcCWh73jx65CpcP0NGznOZcE5P5GMvVN05dpicQulpAkwW9p1zHSzbReRJauc/GTUncTJg8uKTVzys/+QLn/ME9eAzXKmkxibfoh+MNw3MRu94P8fvIdM4htmMm+y3SXSTmP0kOgn4wRVVjaP2gsn5DDkKk9xJQ2PqFt5LC9WKcTIXKuEsp3w+FO1ix4Af8v0t3JUZWtWxaYvqpJ05gMP8hcqddQDrXQfkgST5FWPYQ6tAaqVYr1HNLOU7SRz0PceigIhvbLTE28SJD++7ggqU/5cZjTPSgnudwFvStju+2swB9M8RqMtlHt/ZycNsNzFl6Ga3zl9O/v5qgKEOtCKiqIVi95VDnBCGUklipREDIsy3SriDXLIhKGZ558QEyx38TK/1z7uqYqOnUr1E2pwXHs6/wh1QmryTINxNUStgtbjWvI3STqMCrOQi/Zd8+yUGQ+uEVgXRxbYXthhTHx6hMbmDucT/ig+3PqnNEuWb5FRqsNTfb9K46htHiewms67C6mgl9C3+kKqes8yJ0RCQx2NIsaUrxsqZAH87B9a1Xyz8nxCBKttBkKClNPIoI/5NrOp9WH1liKhcOB2Lz3cNGwBCEw4bQHOCwEfjMo2m2HbiE9gW/R+fS8xjVdexWBZ1Brx+4OoJgKxs7sTGu3zfDQKv1RQpP5wJGNq7waWkPsFWGLcMHIf4pvZnv8tklW1hKUNO33LtVlkfji9m77/2Ux8/AT7lYaYW2TQhKDiQJoNqvobrFYCcqllPYHtob1w6WUhFFDq4borfNRSSxrGHi8HmG9v2QCy55nL9mTEf/a0UQlFJCXHVXJ5nmi/Fa34/XewKTgcXkoEtHRgtsWUluRbKfb09FMeqcIGgyqbdGVOTj5gpE4RiF4SEsfkJ3eBtfvv0gYl19qz4e9oVvDlDvCBiCUO8zNBv6t1ZZPPf0EtzSH9PUewMdHS75cszQWEQx0HX8As+zyHo2sg6cHt/QnLwuZB9kQ8TIHjoyt3P2/Lv5MDsRQqey16bph+Vn97Sye/xCHO8DtM59G3JMUomgHEgq+u1VR+SbLezAxtHM4XVv3rr0MbTB8sGzLKyKTnacwIqfp3fRj/jcxQ/AMxPVaEStmhL8A838/L4zcVKX0r7sDFR6CeNjgqgY0+zrjZ3Ga7rv6RYXP+sQU2F4x35G99+HN/cW7rljCxwBa+zGQ830+AgjYAjCEQbcnO43IPBnAzkK4+dC5QZa/QuJ3BRFq0yhrPf1bVwHHFsQRPUbQfiVob2OIFTcGJHPI8a344Y/4rS338NfMlzTKIIuB9xe6mGbPJ+9A+/CLZ+B1xIj7JCgmEpKF+10TFjR8sxV+Wi9naOrASy9rSMFpQrkugWpjEAWBhl/5TmEupfTT3iE//GRg7C+tnkHbMxwdXoVxR2r6eg9O1FLjGilktdjkLh+NY+i0VoQS1KtFqkcFAccRndtx85+lXnH38e/5wZ/Gc1ptIGZ/s4kBAxBmEmz2chjOVTRsO2RK+h0PoVM92B3TFJxLGRgY2uZXKkoyhq+rU4ngK+PIOhKgACiAzGl/sfw536Lnrc/xRcp1IokJEmLD2yw2X5RD7duvoSM9z4ctZhMNoXvuKiK3mIICWKVRBZezQBNSkp1qalFuSDpXFIglQopj75E/uCd7N38wNrV7+9ft652kYOk7zcqnzseWkZ387uxo3Np6VlCU6eHLNhQjChMSFSmMe9hQUbiZyxcIka2B0wOPkjv277Cf7W+hEj8xE0zCBx1BBrz4jrqsJkO1ASBf9RqgN9exdKFf01BnEJ6kX59tRIJhKigE7oklTpWUvxtEYRyOSbtgfalGt8fkp/4Oe3Hf4uLj32Wj1OqFUnQtIrNyuVv++eS81Yz9vLVZNOn0DFPIPMZojAitsoEhyL1unIksYeWOG5IueiQ8Q9iqW0oHkG5G/jGY68odYOsXc4BQug+f7GyhOcefwcLll1NqrkXz85A6CALiqisEqnnSLuBNmCLWoTWByWeKDKx9xdYwXdYfOnDtSSMDYiS6fJRRsAQhKM8Aeb0r0FAGw/9r7/r5LIPvJ89264jvWg+XndK30YJRxSxtjFON8iafR2RKYzFNLdatLZLKpNpRvp2E7asp33hT5EHdvONJVXnwVq0xCDraYfWRcewq+9iHC6jqesYKuVuKsUYyy8jPJEk+0ldcqdEYmOtHRp9p0I4/iLl/M9pmvsI83p3sq7GBlRrlEfX4ELGxi8jlu+krXcxtu9RmbAJCoIwihMSIyOFW8e+Hb9tLuOUwAoF0cgosnQrJy7/JrTtq1UJbC2WlTnmzEegQW62M38izAgPIbDG5nPfOZkHH/sw7pyLSfW0oayQyj5QgSTd0iBJaa8jCMWRiKZWl+bWFJYHhfJeBkc3MTq6gWHrIU5c1cf62ukIJCH7x1SKR4NFbNl9ObF3GaE6lmLBwfYkvl+1hk4qAVBoeSUYpWf+DlRpA+H4Y3Qu3ME6KjXdH9fnv2Coh/CZd9DTfAOLjj+BlCeZnHAoFCTFUkxFxdoaAsu2aNalFQ3YhAV2OSQY3U1rxzf4n8t+yFxRbMCRmC7PYAQMQZjBk9uwQ9ugcvzzD99HqvOP6Fg5HytnUeiDsBKSSlelgRP7Xr31IGUSntcJjPpXvTYpJbauBLA1wRHETBKHQ1j+Fjrn3M8872H+iv01ldVVSqxYj7vjCwfnV2L/Ilrz17Gk/TRyZYjGQvBdUs0RJStkrDBK4Gyjb/P9zD/1EY5t1m+3tYtyJPOmBH9OOzsfvpbm7svws6fgprPIYkwY2EitpKwkUstDJ+aUVW+Iem1Ok43UZGY8IooEruvT1qVo80IGSin2b3qJged+THPzj7j3w3trts1Ur/iYftU9AnV8ddU9dqaDtUJAJyx+8InTiMM/omn+haTmtBLovfIixEG1iiGUVde+ylTSomtZ2HW8nBM54ynrZaEfcPo9PZZY/gBKbqI4voElKx4gy1DNw8wrlEd7fjHdg5fSIa/B8o4jjLIo6SBkiVJhlIp6jtSy+zmw7WFOXLWPL9RYt0HP6e8/l6UiT6Uy9vu0Lz8dGfcQESOSLQXNCKZ0MA5FZ+rcmCnVYhOKmMqAJKoIUjmHtnmCFj+mbyDPwAsbOLjluytKg8+8+OI6k5hYq/uJOe5bRqCO76hveUzmizMBgW+pLPc8fRGR/H2ynWfTslgnpsHo/mopXmxpYRzQ5WJ6P9q165sgaBEirfan9/iFo0sGqoF84RQJJvOoiRfoWPQTTuh+krnrh7jhhpqVD05VN/g8PH8eO7aezuTc84jaVmKNZ7Dy+5gceI4o+wJzTn2BC7v38nGimr/d/lN/lk0HTmX4wPtJt19AdkGKSjFDEFfwfVE1lnotQahzcqCvQe3sKZUiLOj8DkkmF+H5PoIy/S8/hvLuJN32IN9dMlBzfGfCPcGM4YgjYAjCEYfcnPANIaDFk/Y9uoDh8jU47nvpPWU+nusw0E/iGxATowseE10ERUIQrDreYkgGbanEB0EnAMaBm3hNSKeAkiHZ3DCu8xwpcTfeyBNr//m7I+tqqKSXkISnNzp8fayZ8nG9lKO5yD0+TmkUwj7yTaOcctEk62pnLvXqOvjI11N4Zy8jUlcQlN+J1XQsViZGV34EpYhU1v5VgvCGVtDR/5AW+NKkUDt3WSLG88tUJpqQpRGGXv42C95+B6t7X+EGU9Z49CfL9ODXIWAIglkX9YqAYM3eFMUXVyAL76bnxIto6e1kfFyvWYvEIkAThLC65VDvBEH7BGgHxaSvqQphxU+iCRVZSuyX2xdK/LCf0uDDRMW7WdbxDDcuGU/iDDVtSnCzLrjbbNO/R+DPkXx8VVzTXIhD49EJiU/j8K+vLCacuAg/cz6p1mMJo7lUAouIMpWywPe0sdGhbx36i0oIF3UcSdA9dbQYlaMjXIqoFDBxABznOYZ+8e+880828knyJnpQ0wVuDn4YCBiCcBjgma/WGgElWPNKM4XtbyPXchVN3acjvQ4smaKS2EILKnH1oevZuq68ftezViaUsZMYCVlOhIodLCsmVAGFfJrmToVPgXBggHj8KZYfdxf/vuop9u+fuZnta5XH4L6FVOxzsMJLsNXxWH4zkxOZJDIkXW1+ZZFytS7DFFFKchF0m/KOqGPPhTiUOJaTGHbZFlRGi4z3baV75c2M3HMX3/nA+BEhYrW+TM3xZywC9XtDnbGQm4G9KQT0VsPIyFz6t6zGy1yF274cIbJoF2Kde5DkICTuiVPh3Dd19CP3YW1JrLcVLFebJIGsuCReB0pSCcFzK6jAwo9i5PgYPSc8yC3X/wef+/SuWuYjHDkAXncmPWd/+mgX+0cvp+u0S2npWkI43srI7i5KcYybKYPrYXl66yhOhJuSprUadMjellWXz1cJw1Ebym88sSrH2I5Hc7vmMyXKwwcoDT/IhWd8n4972ww5qL8pMz36VQQMQTArov4R0CRhzuAxPPbYx8ksvgw7l0P5DqEQRITE2niopG1/qVrnTln/1v/ItJyxetWAyrH1XrvCsbTWwCB2ZQMren5IrrRVfXxuqVbKhUccprXKISrPI2+dxfDQO3DFcsKwDRX7SX5JEh94bdXCEe/hmzihAFtHr6RCKq36WY0QxWVdweDSvCCiRa/Vwh62b/wFW5+89ZNb049+QX0qmDHz+SbQMh9tLAQMQWis+Zq9vb15IMddO86m0vUeZLgKL92Nk1VUChBXFLYrp5LcRRJR0E3rI9R70/oImiTozjtaJ0EL6KC3TwJEaTdBfB/R2D30zH+Jm5bpUrj6H9Nvw/zLG10e93vIq7PxcxeivFOwZSsyTIHQftJT326QYercCMuxsGKd9qnLV7VniEBWLKLQJtsR43oe5YlNlPPfZXzovrV3XHJgXU0dMOt90Zv+NQoChiA0ykzN9n7qh/4N2zsppC4jHHwfLdlTaJ8bJvK7lTFwUjHKtpCRzkQQidpfQxCEWKESASCB4+psd5WQBEvXcHoWowe2M1m8m+zKOzm1fbu6sWoR3Yhvn0nlxI8Lvdyy+yzyk5eS6ToZ2+pFTWrhKBCZqtyzFkzS2wf1noRYZaE6aiUgEDh2DHZEXPHQ02SFESKWFCcDXHUP84/7JqfO2WKqFmb7zaxxxm8IQuPM1azv6Yq1m7wX72s+GfZ9lJbMlXQvChEli2A4RmnbX+38GOus8eqbXPI2WsdZ7npGowiU3hWxYxzLBmXjOFWjJNHuUBgrM3ZwHzK4mxXH/Ih/6XpF6Zq/mlc3TPNy0wTois+3cf4nzmdH38UE4kyyHU0Ek1mCfg/phdgt2pCrKp2scwwahiBocczATiyyLTskLPvYxNhByMTeMpXRJ+jo+Q5nX/xUTY25pnnKzOEMAoYgmDXQWAgsHGtj7o7LaAv/iK75SxBRhqBURAkXobUQbE0MqvLLWq2w3gmC3l6IlcQW+uHiQOSgH5E6lyJ0JdrAUCtIlga0J8JPOGnlXVzUvIuLj4A+wXStDK2M+Td08MxPT2fR8ddQliuI3fkkI9U8YNwm9iSR9uVquD0GcFyFCqrExnE0QfCwRUSUtyn39VEK/5MTzr2Df+oebIio1nTNuzlOwyNgCELDT+FsG4Cy+GRpLiO730eq9VoqxWOIxCRCuVjaAUcnuSkdqtZVDfW/kZ0kKSY5COB4VQtgS+lIiM3QaEBrG7S1eUTFkJG9Oxgu3EHn2XeyvmVn4nJZ723NzTY957czUTqNyshlpDLnEbstKMcmCl28WFduCJQfU9Jv4g0io/wq7nqLwQFL63IoC8cOkwoVvW8UlzVRfYyVK/8372Izy0Sl3qfL9M8g8FoEDEEw66HxENikPL4+dBID+95DxVlNqqc98WGIRi3CPEhdUpgGHUywygK7qX7Xuc4/kLqf+t3ZVUkOQkJwIofCRISfFeQyDratKI1XKJa2k1l0J688cCeXLt/HjSvD2ospvcUloqtPWmnmuX2nEk1eTarrTNToXJTlIbVUtrRwtOuShNiShJocHCJ1daxv8CqJSaotRBIB8mwbR3mkcnlk3qU0qihN/oKWE7/P33XcQxeFhiCsb3GqzddmJgL1e+OcmXibUU0XAnf3Z/neC2cy1nIDqaXnk3VTRH028ZBF2Y2J2mUSqncmBE7bIXGd6Tr7ETqOzp9QOmlRJATIinWUJELZz7Hz5e9zzMLHmXdgr7rx4rjuchJ0zsHXhnI8UjyF0vhlOO5qmhb3oIb1kGxCHTVQikhpR4qp0sZGuR29xspbe4VpsS4/a5HzLZw4otgvoLyXSvG7tC+6nS8t6T9CC8acxiAwrQg0yhU5rYM2B5sBCOgH0PqJNm7tv5CDg9fR2X0STX4TqmwTOTYqDXEMThBSpQoN2DRB0IlviGpegnJRgUelNM7gvidwwnu4asWd/Pnykbp6O1VrLb50Y4ZN48cztOm92P4leO1zyLZBcTxEav2KUCQJpZobhJZWHKwabjVEew1B0IGOiqtIp2NSXsjkrhYK+wbonnsLZxz3Qy7ds4Nly8zWQkPMq+nk6xEwBMGsicZF4GZlc/dL89my+Ty6e68i1bmUXHsLVjZFLG1kKKmUY1S5Qceo8yjsGKEFeASkHF1jb1MqekyMTCDzT+Jmb2bByY/yL82j9UAS1q7F+tKJA5nBH0+cjMxfTrrpErymReBAPCkZndRmW5JIi1vFWglTJYmlvgu+0yBE7jUEQe8NyWa9MyIJh0PyL5dQPMCpJ9/CZ+Y+RzfFepiXBr0ATLePMgKGIBzlCTCnP0wEvqB8bv32AjKdl+KkL6TlmJNp7moijizK5QqFvI3XqOJCOgfR0kUZVafKlB/jeDFR4BFJi6A8zPDul2hZ/FUuO+5J/ojJo/ow0lGda+9Is/Ady9n5xLU0ZS+jfVEvfs4mnIjJD1lUdERE+1IgiWU1kqAshecIPKfxIgha28luUoR5yeTOSYoHHmbO8bdxySnP8VHGjJzyYV7f5utHFQFDEI4q/Obkh41AIqD0+RSZ1SsYHH8nma7rae/uQKsVj08EjIeStrROj2+8pvP1El0H/WIdOXiOrnQIEbpawxdErq5sGCOq3IJTvJtW62X+8+1HnCQkAkhal+FbKsuG7cdTbrqSYGA16aa5pDNZRCgQYZSoXjotYSIKpbd/ohi011aSgSCmxtkI0/SaCIIWtXK9mMrQIKX+l/DETzj3bQ/zyZze9qn/KpNGgNv08aghYAjmcWKMAAAgAElEQVTCUYPenHjaENB6Bz8cbeG7oxcQlP+Qjo5jsfJZhocsRp0C89oz03auI3mgpLZeKBw/hMjFUQ6uH6JlkrQolGqVRNYBDmzcR2HzQ7Q793PVyS/ziTMStcUj0TQ50E/3G25QYn2mfznFvdfgzLkakZ6H75WIhzMIKXE00Ykd7FaZiCHpCI/SehW6ekHFiXX3lB3Tkej34Z3jtQRBhPhRnmBsC070AMuPf4BLWvZwRlXx0jSDQCMjYAhCI8+e6furCCRvsW3Xt3DWe6+ifckHyc0/gXJkE1UmsNt9VMWrftiRSC3nqyWNI/2K3pgoKqklmm2UlKSaDxBM9JNufYK59r28r2szK4X2bah9q/peuPw/4Qls3vReLPsi/GwHwq7infy/TkbUpEa31+7f175703aGbK9DNG4hogLBpE15oJVs9wRNmSG87E76n3+Qk5t/yF+dfiAx1mg0pctpA8ocaCYhYAjCTJrNWT8WZfGnexYzfvDdWKkr8Fvmg5uiEGm3Pab0/fVfpta9fslrQIJQfehWzaikfit3AxRDWPZ2SjueoK3nZ5zQ/Ap/saBUyyWhlNIyQClu238CB/OXUpEX4zcvTfqkpsSfkg7MAILgZS0iXdNY0gmjirSv1S8t4nw/SvyQ5sy99MqX1GcWlA05qOWqM8c+kggYgnAk0Tbnqj0CX1cpfvbyKRT6r6Z1/uXkFi5kcFeM5VZDvvrhmhgBaTGiWNs61b/a4q9DTQssWY5MAvyxVu6zAoQzQmn0ZeLJx8jKR7j+oq2soVyLxMW1Cmvduo0phq1lDOevwZu7Gq9lEVaTRWk0Jir8hrlukEKF1/dekwPHUlgyTcqHVGaSuGATFp5jcMu/ccn1T/FJ8rXAuvYXjTmDQeDXI2AIglkZMwsBTQA+MdrM4JbzybX8Mc0LzmJsqIzlRMnet4pshDZzmuIFjSDH/H/MUKK2WH0zt/yqtG8cuNjpAqLtIKX+PoLdTzK3bQMnZ3fwZydOq4qf3s656lN3enf1OydQyL+TliWX0n3CfPAyxCIi3y8Ji6/p9SGw9Y8alCCU8hF2yiKbcXCETTRZQpZeomXebTz6pTt459oR1okGDEfNrMvfjGZ6ETAEYXrxNEerBwS0xO/LOxdgl9+N4r2odAfCcog1OZBWVVvA0iRBC/U06jWgUNGUOZUmPyU/0X5weio4qYOUX94Dhcdpabuf1cu3TpvFcDXnwOEPhpYw/OK7kIWr6F4xn+b5IrHaDgNJaUQQh78hMtOgBKE4GiEyNu1NEhmEjO3uA3Ebp511F/8ztTsxCDPNIDDDEGjUm+MMmwYznGlHYINyuJ9FvPjw9TQteS9x0Jkk9SVN5yDot1qn6nvQkE2qJNlSEx47pXMQQJY9Al+R7SripisU+16hcOAenPGfMfzITh5YFx3OUJNE0M3K5bbKEl7efTWh/R5suwPhuwm2six1XaZO9kC8trJ0BuQg5CdjMimB50ZUJnYRjv6M9JI7+ODCHVxlTJgOZ12Z79YvAg16c6xfQE3P6giBDSrFl35xIi3df8zk2Gm4fgduDoKKRxxpBb8YYetqAOuX7o/aJlo/eOveCXKK3GiCIxS2E4EtE20B4afwm0EWBhjdsoNy3/2cueR+7rL38fRbK4Fcq9Za37nrQ+72n1oLGYuvoBJeTbZnBY5fpjDoUsnrihCFVAovI7DdqYVwiIAd+rOeqxgSljVV2eJoMykHzXScdESxCD6KsFQmLjyCn/4eHzvlMS4WjSrTWUcXqulKvSJgCEK9zozp1/QgsHatRfz+C9i84/00zT2bpuPSVGSGwliEUjGeLxNCEJfshBQIIZGhzlNo0ORFW1tGR8hQJy5WQE5gh9uZM//nPPzje7niA7tZ9yZLILXWwfq9KV4pH8OmgXcwmb4Gv7cHu+i/WhBS3XqoVlY0arO07HOoiCoWTq6EsnwQTWS6S0TSpXIwYHJ4E779PS5Yehd/2qKVEht3vI06T6bfRwwBQxCOGNTmREcNgZvH27m/72zy+Xfjd5+F29JCMQgJ8h5aCc/2AvTDIQ4dpBQ4rlb7axDZ39ehanma4OgtlESjGRVHWOUJhNjN7qfvYeG5P+PYY/e8EZIwJYKkCz1s/v6FpbwyejVl7x2o7mVYrRYqX1VFfLUlOR1HbZoP+8Q2QutPEYcudioilQ2JY49Ym2SVXUoTL6DED1jYexer2vq4wSglHjbm5gB1jYAhCHU9PaZz04KATlqcSzuPPncJleC9WK0r8DsEYewS5jNJXbtFmITqkyqHRDRhWk59xA9ieQICC1v7HWi1Ql3poCLCcpEoep44uA+r+SFWn7ibT/x2tT9tNJ1Ugf7Js8dSyl+B3fQuvDkriJoVtlukdFDrMEwRqUNbB9qBskGbZVukmsCOvcRcyvZKhCM+pWELyQHSrbfS0/PfXOrv4GJxWPkcDYqQ6fYsQ6BxL+ZZNlFmuG8dgSS5Ticj/mVpHruePZ9K/hpy85eT7tblgSmiiodNlBCDxIJY/27QbHtsC1fLPGidBy1cKBUiVgirjNNWYGLndqLSfXQsf5CPde36bZLAF61d6zzgfGYBD913LU1d19F50iJSLWkCFSILAflB59UkT8uWVZXEBiYI2hjLzUA6o8WnbMJxSX6nTVjahy9+wqoLbufTvKQQRgzprV+O5psNhIAhCA00Waarh4nAlze63N3TzeTzl5PtuILc3CUIP4eMdAjZqooo6cdqsq/cmNeG71tYUiBjG8uOcO0YWXBQQhE3x9jhOEFxGyLaQHfufjbfuZ/bP6EVF3+5N6DzNs69Mc0DQ/MYGLuag32XkZ63lMw8G0taqFFFVFBIx0ZNfc+q5+TDN7huglgmzpJNHQ4+LsGgZGxnH5nMvaTGfsT/dfU2jmdSp2QYtcQ3iKn5WEMj0Jg3wYaG3HT+aCGgn/zaW5iP7DuGILgKJS7B8hYhRBoVuFPPyKq+QKMmKXopC1sXOOhES/1Sb8fo3RMZOhRFhY65ipRTZGxgK3sfe5RX7nsEZ8eLbN5QVFViZM9bd7u3f+yk5Rw8sJpU53UE6R5kS0QYW8RjEjmksCs26XnWL3lFkougfzduEkKxGBHEipZOl5RyCYdHKQ88zNLFP1jhff7pE28cLK1nvVavbNwxHq2Lz5y3IREwBKEhp810+rAQWKs87r9zMU3iKprnXkpuzjxc0Ymtc+xkidKgD1knebhKXdWgFFGs38r11oOirt+Wha5iqD6ndURE51fof+i/RxH4WYntxITlCYLJYSx3Py09O+ls7idHyZqUTXJMdlMaX0Bh4Fgsby7C8VBORBzp7ReJStI1BLZfLbFMWgPpSehEVOEqpC+SKIuYtJATPnEZ7NYCdpNNfiggKjyA59zWekHnU1/59JL8Gr1/YsjBYV165suNhYAhCI01X6a304XA0i/4nPau45B7r8C3V9O9rBsnnaPYn6M0GpKaV0IFDkFoE8YKiUQlr+b6oThdvTjSx6m+4ScPSL1VMOVL4aQquLkCbqacGC1FWpWx4hGWUq+WMU6xgCPd4dqcLwaVkqisSHQPrAk7IQmuJ7FzAWNjIaXKs1jt6zln8cNrP3vj6I2s0ybbJnJQmwkxR61TBBr2TleneJpuNRIC2tjptjtXEsnLmHPc2+hccAzF0U4qxRC/uZI8JIOKi1QxsRYimhJRalSCkAhA6VyBxKzq0EyJZEslMa9SWiBqKtlQ/7cmEt5rsvUbOQHxNQvTEpLYEciUSLZirKLEjwO8HIRxwPDuTTjzvkfPkif5IgNVTEwzCMw+BAxBmH1zbkb8WgTWbMghWY6Kr6V9yWl4TT1AE9FkNnGC1tsLkpgo0RTQ75Day6ExHxhaYTqJHmhBKD2GxPRJJH/IxN3STnwqEgIkBVaiJli9R+jMvIauUPiVZa+QtoX0tDiWxIsq2AW9DVNG2luZnLiLM06/naWMGa0Dc7uYzQgYgjCbZ9+Mvbp3/k9keOLxM1HxBfgt55GeMw+nlEvetDVBCCNBULUYqD5UG/SyqZZx2qC1C16rW2DLhAwkw9KkILIT50vb1WqTOrIwNeAZEkFQOpciLZMIgnb5dCsV5HBMUN5Oqv0n9LY9yN9/fhdiXWMSQXNdGwSmCYEGvdNN0+jNYQwCyduxEnxmrIV9+95GWPwQ2a6zaU5pIySd2GcRhoJQmztpcqDzEBqVIVhV34lqHoXWRqgmMCbt0K1ARxMiG6a2Iw5FS3TU4bWuzY28cmQksDMxcRYsK0INVfDFS1jZDRDczzvm71FrRGhyDhp5kk3fpwMBQxCmA0VzjMZHQJOE/5setu+9jnDsw8xp7SAOs0R6u94Kia0YFerEPguhlYgaur2mHHEqkqCrEmKdi6DFlZwYa0pNMqpUXZeshBjNkCQ9LR6VUsiUJkwFgv4R5vX8lOVzfspLbOUm487Y0KvbdH7aEDAEYdqgNAdqeATWKJtdI3MZ2Hg5lx/3McL0HKJ0QKHgIiciVL/CA/yFbvKGnTT9Wq0fnroEMtmCaHgYZsQAdK6FLkfViZnaFlu7XWrSE8c2w8WQ7kXQkQ6Z7NvFwAt3M/DoPQR/v4OntWiEaQYBg8Br44oGDYOAQUAjsEal2fvyYt7WeQ37tr8Dp3UJqV6JzLuIyZi4LBG5KTOkKkP4pcSwIQd1s4h0voUmBzoyZPvBlGNnKknClM0hrjWBmjiAHTzE3K47GH50F1+55lcVJetmMKYjBoGjg4C5ox0d3M1Z6xUB/UC5cZePvfhYHvvJu0l3XknXCXPwUpmkBC6ciCknz5FDbo+vIQj1OqjZ2K+pCg2da6GFoRKnztDF8Yuku8rk9+yicOAR2nrv52+Xb2IpgbFuno3rxIz5tyFgCIJZHwaB1yGQuBjeqDy2PHgSQlxNqvNKsnMXEadjYlWk2K8T/QxBqOeVk2wxODLZVtDEQO8EWV6IDIuk4j0Uxh8C735aTt7CV0Sxnodi+mYQOFoIGIJwtJA3561bBLT7o04lEHerDHc+vpLh4ruQbRdjdczH7S4TjABTCX1V44OqzUOyfd3o+Yt1Oy1vvmPJNoPSltcWlltGiDxhaYjS1p/Te/JdnLZoK58w5ODNA2u+MVsQMARhtsy0GeebR0BvN3xnpIlnB07klb5rCDsuJ72gBS/Q6oNTftCGILx5YI/QN3Q1hq7CsL0A1CRxsJds10aKD9/N9e98kTUUzLbCEZoLc5qGRMAQhIacNtPpI4aAfgO9aSTHU9vPoCiuJdNxDq1t3YlxU6kkCKKQUMUEkU3aETgI4qR3OoO+aoacJMo5R6zLs+pEWulRRwocW6IiB0tYVZOtUG8xAGmBEgPk9w4gixs58ez7Gd76DF880ZCDWbVQzGDfCgKGILwV1Mx3ZhcC+gG/frSZ54NVDI1cS7r1IqRoJow9CkVFQEApkuRcG8cSiZxxLBQyTiyeEoliRzsfmjbtCGhVRC3ipI2WZMnHdwWWH2JriWxbINNFSqWXyb/yNLnoAf7gwue5TIxPez/MAQ0CMxABc9OagZNqhlQDBDRJeIImvr7zVCYn3wXiXFoXd2LbKeSkIAoqVMJqOoKOG0TaNTGqejnonzju1JZEDfo2uw+pqoZLQiBim2wmQlkS17aJRIHJwstE5Y1kmjZwycLn+SCTxnxpdi8YM/o3joAhCG8cK/NJg4DgyjubYN4ZiLFr6V1yNnPntRFGTVTyMROFiDhWKEslCowy1DmLVfdEx+wx1Gj5KLQKpCYHtiNJp6NkeyGWAeXSbsLxx0jP2cCijs3c2Dxqcg5qNAvmsDMSAUMQZuS0mkHVAgFd3XDD+jXW+m/+RzNi9+movvfRs/wMcm2d2C7kx2PCStWzIdQ7C4Yg1GIefvWYsir/bCkHx43wLYgqAZOF7QSlJxCTT/H21U/xGcZM5KD2s2HOMLMQMARhZs2nGc0RQUAJPjrRxu6fXUxz56U0d59OpreLSt4iLoOSECU5CKq6xaDA8Q7pJhyRHs6ik1RlrgU2jh3jqAIq2svoxBNYuQdxo5f47spBQw5m0YowQ502BAxBmDYozYFmFQK6uuFvtnfQlzqD8aF30zTvdNywCVX0ElsGvbUgZUzygistHH9WwXMEB6tQkYWFwnXHca0+bPc5RicfJdeykcvnDHGDqNaVmGYQMAi8KQQMQXhTcJkPGwReh8BfqSZe2XceqnwV7bkzyTm9pKWNmHAJojKTRUFoV7A6XEQsCHVUQUKYSAE3uH30EVoNoQiQgYvtSjxfEmttA2yEHTCpJG09LnP8QQb2jTHw9EbKww8STjzJA5+ZMMpVR2iOzGlmJAKGIMzIaTWDOmII3KxsnmUOe/ecQVS4HjdeRbatCc/3kaEkLEkqRfCatTyzrm7Qcs0QRlNdNA6Qv3OuIhESRTauEEk5o4idRB1RuDEVv0I2V8KuDFAZeppw9AFsZxPHrhpknTgE8u88hfmAQcAg8H8iYAiCWRUGgcNFYINyWL+5k3zuXMb2Xo7dtorcwlZSvqiWQA67+LaW+9XkICKWEERazHnq+rOqiXam/XoE4qlERMcWOFbVfEkoC4mgTAFV2kk4sgkRPcriZU9zZteg2VYwi8kgcPgIGIJw+BiaIxgEWHPzzfb6XWu6eOCFsyiVLsWfcyrNXXPwYxerAH7oJsZBUSyJIpHYNuhqh6SZy/B3LCFNppTeVEBYCi8dYmNRLpQoTu4hGHuGSP4cr/QCJ73DRA7M9WgQmCYEzJ1pmoA0h5ndCOgSSKEdHv90soO9u0+jlL+adO4ssq0d5NoCnOFMEjEIEkMnRahdnbSPg2EIb2jlOHqHRloILBw3xKFMZbKPoYFHiCuPket8BraPsP4Gk5D4hgA1HzII/G4EDEH43RiZTxgE3jgCWnHxKwc6eGzXeZSiSxHtbyO1oJX0pEscOFQiHTCQhPbUg0zpt+M3fvzZ+EnX0gBpj03tsyCw1SRCvUKlvJmB/Q/QvfxpFv77MOvWGSvN2bg+zJhrhoC5M9UMWnPgWYvAlze6DOTms2vkHIqpyxGdJ5KRzcjYJ9BOkJYEV4JlVVUAtVBCUtVwSKp5FkKnxz71fBdalVpUFRI14SqX4ySfI5cFx55AVvooFV/A8jfSv3kj87v385Uzkk0b0wwCBoHpQ8AQhOnD0hzJIPAqAqs+/mX36dHl86HpPOLUZficgLLTxDoDX3mkcxKRsXD1V8Kq4VAcKGJpJTLNuumfzZaWiErp8g4EOhnRssDWehLSYsuuIr3dFot7I9JqD8N7XmDvvifwTnucHy/sN6WMs2WRmHEeaQQMQTjSiJvzzQ4EdED8JuXx0vg89m47h462y4mCY1F2F1guWNqOWOGlYixlJ2/LYag1EgRRrN+cwbJnT8hcSu1foQet8HQIQdrYumLBjRmvKJqb8qStPsLhLYRjD1FsepIVJw6ZUsbZcTmZUR4dBAxBODq4m7POFgS+rFy+90A3p590Cfv3XgzyFDIdPpVKluKES7opIpPVb882oZQIKybWew26ydlzfUYxREomURPftpOERMfWJCkg0xYRV/ZSHnuWeOwxvDlP8rUFB35ZBTJbFpMZp0HgyCIwe25ARxZXczaDwGsQUDbfKi/knpfPJRi+iPS847DEHAoTDq7vkGqxEuGf2UwQtNZBrFSSc+C7eotBJmWNcVykKb2P0tgmSpNP0Ln4UQ52HmS9kU82l5hBoNYIGIJQa4TN8Q0CGoG1ymPPtvlM7D0fL3MxwlqJ8lO4GR8v64ISRKF+SJJEEJQUs2qLIdYOmFZ13GlPE4QQpSYhPEA0vgmr8hgEz/Kxc/u42CgkmovKIHAkEDAE4UigbM5hENDJd5982aMltZCiPIeBg5dhe0ux0m2IVAbLUkSR1OoIszJJ8RBB0BUdvq5ioIAQuxHiRUYGnuKYBU+ycudBPmGqFczFZBA4UggYgnCkkDbnMQhoBDYql6/t6GGw73xc7xKc5hORdjuxK4h1zoGy8W2B60Alyeqfwe01EtOaGDiuTUurQ5MYoL9/gP5dz1Nofoho4EkuuXLUJCTO4KVghlaXCBiCUJfTYjo1oxHQiYvPj80lv+3tKPdSROsJVEQzcZDGtiDlgAgFoTODYXi9/0QkcW2Hll6bjNNP/5YnmBi6h0rvL7jjuwfAiCDN4MVghlanCBiCUKcTY7o1wxHQBk8/2DKfijwP/PMpRachch3YfoSacKFkQWYGlzm+jiBEQTVakuuC4thB4uEf0HPMD2lr228iBzP8WjDDq1sEDEGo26kxHZvxCKy52WPFOQs5EL2dgYOr8dqPx+/IUB5pIhpXZNpnD0EIA0kQK5y0ZHL4GVrb/zfHL36OdaI849eBGaBBoE4RMAShTifGdGuWIHDnyz4/sRax7+DZSHs16fnLULKNqGCR8WbwHsPrIghaRTGOoFQMKE3eyhnnfY5/YMxoHcyS68AMsy4RMAShLqfFdGrWIKAVF6+602PuqT1MlFdj5c4BsRwVtuGW0zMXh9cRBNsVqFgxtrtCpf+/+OJ7/4VlojJzx29GZhCofwQMQaj/OTI9nOEITFlFC/4nx7OvciGl/EUIezHWWBui6tYw89rrCIKfsbCUZOSZgIlt/83XP/l3zBflqpGVaQYBg8DRQMAQhKOBujmnQeDXIXCzsvnhC4uolC8lM+ci1OBxyFyawLKRjoWIPXzPIZOuUCpO2URLgYy1DXJj5ytEpRhVkUjXIt12HyvnfYG38bIRRTKXikHg6CFgCMLRw96c2SDwOgSU4F9I8crwIg7ueTuZ6HLC9GJkthmRFljCgpKNLQWxfgNX+vo9dA039pu2DHX/Fdg2Ur6A63ybFekNfLZnGCEam/yYdW4QaFAEDEFo0Ikz3Z7BCHxdpVh//0KWrbyQgX0XEqdX4rSlsYRDPGETF2y89kpiaJQQBFGVKG5ke2jbErhpRexYlIYGKQ9vYG7L7Vyz4jmuJN/QY5vBS9UMbWYjYAjCzJ5fM7pGRUCXQF67ZiH3Pn8RgXg7TsdxuKk2RDGmeDCL2yWTrYVke8GJUbGNsBr3Tdu2LdwmRWxblIcl4cROfOdnvG3B3axufo4TCQ1JaNTFbPrdqAgYgtCoM2f6PfMRUMrhDweXMN5/HjZXkW07lnQuZrKvHZokxDZxbOF42g7ZRThxw4IilIWwBdKDcmRBUEDk97Bgwc+Y6/yAK1v6WCmChh2f6bhBoAERMAShASfNdHkWIfAF5bNl8hjyQ5eBOpdMZiHliW5iX6KkjYwsXD8gKvsNTRBURVs7SyI/RqZiZMnHiyStndvY9V/f5diz7+Hfzh00UYRZtPbNUI86AoYgHPUpMB0wCPwOBDaoFLfsW8bg8IVkcufiZpcSVZoJyynCWGGnysRRCtuX2HaMlKKan5AkMTZGUxHEUqLcGCsTEBdzOELgeXkKe7bRu+RrzOt5mL8W440xINNLg0DjI9A4N5DGx9qMwCDwVhEQfObmFDualpGe/3YyTefjqeVIsgQVQTkS4FpIS+D7UUIMlLIgSWLUTYGuetBukfXcLIXSWyZ+QBy4SfKlsCP8eWlU8SeE8hu0Nj/LTUZAqZ5n0fRt5iBQ5zeMmQO0GYlB4LAQUEpwFx535pdwYNNqOuZcgJ1egJVqZmyoBWlVCCOwLQvLql7Xlj1VOpj8o/4JgtZyiEMHkYgoqYQg6O0TqzvH2K7dqMr3mHfCnZzEPj4hwsPC03zZIGAQ+J0IGILwOyEyHzAI1BECOifhkeeXMafrEkYHLiLV1YtUcwjimHI5xpIpHMdCobAdiWoQeQRNgCxX7zPYSd91wqUs+9WfdcfIiQJR/jlyzXeyIPMQ63L9dTQrpisGgRmJgCEIM3JazaBmNAI37s9QCJbz8ourSc89Ca/9BELZShxXEHEK29FbC1PbChqJZGtB/65ftqAJQlKmmWyPCJxUhaiUSn4WOmX8LDhhgCo+TGv2O8QTv+CmZcarYUYvdDO4o42AIQhHewbM+Q0CbxYB/QD9H1tzbOs7ATd7Dn7PGQhxHNLKoaIUumSQQ+qDjZSoqMmBJjPKwk6XUXq7wYkZHQvJZFM0t1qIyX1Ew3eTyf83f3bBDlP6+GYXj/m8QeCNI2AIwhvHynzSIFBHCCjBFwezPF06ldg5F8c/i0gcR5jPocKquqKV5CjWb9TgV9AUVenoJJKA3m4Iq/kIQtHXV6C5KcfcpRXEhM/BXwzjFL7MR676IVc1DdbRpJiuGARmFAKGIMyo6TSDmXUIfGRDigOVFeSyf0DPyitIKY/JMZgY9AkzBSIPvCZJkHHIjk3B8yvVDPXv5VCOZHWHRIBlSaJygaCwiXkn38K2v3uADTeOG32EWbfyzYCPAAKGIBwBkM0pDAI1Q0C/cf/FvjYGh1djtbwHl5NwHZ9iYCFFRBjZ2E0KoSsbSlPRhAYjCNWiDJHoO9ierl4oEhUGcTKPUnjyNi5/z1b1cUqikb0oarZAzIENAm8dAUMQ3jp25psGgfpAQGsefKpvLnuHLsb1r8dzVmDbKZy0xIqcRA9B2DHFaEqKucEIQsa3ql4TSaVDiLAiZBRRmeijMP4j2hfdu2rV/h0bP35GJESjbKnUx9IxvTAI/DYEDEEw68MgMBMQ0OWP9z2/GK/zUsL+K3A4kY65Dp4FsZYxDiSFQ14NDUYQmny7ShB0RoV2roxsnGyJoBBRli8Sj/6Qnu7b+fyCkZkwlWYMBoF6QcAQhHqZCdOPxkdAh/tvxGYCl/5tWfL5DLIiSPkBrblJ8sdXWE+YJBBOd9PnvmFfisycYxjZeClWcBXt8xeRzvkEIYRjEDU35haD7zhUNSEFUgmiikumeRIlLJRTYmLbo3R0/if/unQjwggoTffSMsebvQgYgjB7596MfHoREDynMnzt+fn0h4vwOk9CqpOICyko7aeknqA4uJXxnXt5cnAU1k27NbNSCPGYSvG9/iWMHViNtOyS9q0AACAASURBVK7Eb11EOXQplxXpJrs65AaLIOjogd5akJGD7USJxYT+mesKWrKKyT3jiJEHOfXMr/Dnua0IEU3v1JqjGQRmJwKGIMzOeTejnl4EBIs/4vOBf1jKnpfeTpRdRdMxy3CySwjKKWR5gJGDmymM/ILJvqdItW5iwztHEIe0CqaxMzqScIA0/9h/Int3XY/TfCa48xCWjee6qFgg42okQUsy6+TFhKrUseRiEFaTE6PQwfUChBcR5rOI2KU1E0HForBrmJb2f+W843/E7zXVBttpnCZzKINAIyBgCEIjzJLpY30jsFG5/NMPFuKfshqlziRyjkOILizPJg5dRCZgvDBB2tkDE1vxW37OiYuepMIo62pEEm7C4yfPnYIYvYrOeZfQ2zuX4aIimnQISlqCWeF62hhJEwSROCk2WpORIqxIvBYbYU2Q73uMlubvc83yp9euubG4Tkx/lKbRIDL9NQgcDgKGIBwOeua7sxqBJKSvk+a/WpjDszsvZCy6EqHJQa6FOM4ibJnYLisfZCnGc8eJyv2Uhp9C8jO6Vm7iq81jNYkkrNVqimPNDFWOZ7j/nUTxpajeNhzHQRQdqAhsN8aNbaRQxIlBUoM13WULvFYLSUh5/26K/T9lQetPuMjfwQ0rgwYbkOmuQaCuEDAEoa6mw3SmkRBICMK5/5Ji1Q3n4GRuYPTgGURhOyIrUfrJNWWJgCPwyuCkIJYlxg7sJj/+JB3H3cdZbS/w6dbaCP3o7Ybv0MStz61iaOe1uCddQDbXQsa1cGOwCgKpn6ESpN94BMESAj8ncLIQCYvyUJnxrdvIues55/Q7+WRuyAgoNdIVZfpabwgYglBvM2L600AIKMElty5kztyPsOjEa8hP5MhPeESWg+1FifJfsrXvKXJKECsbK1WiNB4zOXSQVNf9+NZD9PRt4u/P05GE6X9Ia42Ev6GDu28+m9ziP8cXJ9CxQJJpBiZsyuMRMgY73UC4T3XVtgTprI3K6PiBRRxUmNhq4dm/YF7Pv3Jt9AQXLyk33sBMjw0C9YGAIQj1MQ+mF42GgH47/yytbHnoMhzn95l3wglUSpJiQRBEaRw/SCIIum4fDywpUaGdJNkRWchKgM1OyoWNlLmP5sWb+XrNIgkWH3iii4LzfoLB6+havJimBQ6BTu4bryRRBMdrvHuBpQSucgj8GOVLlBUgJ1JY0TDx/u8wr2M9n1u5rybEq9HWq+mvQeAtINB4N4W3MEjzFYPAtCOglMtHd5zHxOBHSbWcjOVoJ0ULywmJpIeO4QttqmjHxMKl6ISISQsRQCqyaW2u4DkVxop7OJj/OWP9P+eMq5/mJlEbC+Obb7bZc9bxvLDtA9jtV5E9tp2SbZMfC1AVhVt1dmqsFoMoQVmLJ2VDhIbdEtiywv5HHgf/G5x/3ZOsM2WPjTWvprf1goAhCPUyE6YfjYNAVRCpl10H3oej3odS3UzkFbYFrq1QVfOAatMPLx3+tqTeKE9+2/rN14uxbcmEGGesvJtU3zOctvBuPnjMFo5nshZvvSff/a3s87csW0lFvQ+/53wify6FYohlBTj66RpbSDtKxIojHfGQAs+p53uEQkhFFGvgYxQ2ri2Res+kMkFr1x1Mjt/GN5dsRogpmenGWWampwaBo41APV/8Rxsbc36DwK9HYO3OFDsypxPJ36et6Rzi8RZGShG2EDg6bPAmWsmRRCqPN/QKbeFjtDo/48xVL3GDfjWe3rZ2Lda6c1Wau3e8jcHwXUTFK/A6U3j/P3vvAW7HUd7/f2a2nH5uV2+WJRnLsmws44pBJhBsegISiQHTS8gfHiD8QggQWYQkGAgmJEBwHHBoJhYBbEK1iW1iTHHvRbLV2+3l3FO2zPyf2SsZ42CsKx3ds/dq1o8fuezZeeczs7vffeed983XiOuSsJ5JBEIcQziRHYGsUT0pPlQskY5CSCNoTCIoU5hK4TkdqLH76dv+dVZfcDUfZ/ioZLBMMRprmiVwpASsQDhSgvb3xxSBNV+8zbv9xtLx7K2/ms55L2VWpo142GUoCBNx4ExSIEQmWVE2wqnXqe7fQzjwU7pn/ZDXr9nM+aL5AXbG+/Fx2rn31jWMj76GBavPwi34VEaiJGdDGDMhEMweDanIyAPZF9M8zEKjIudxAeC4MV7WIxrcx/77f0hb11WsPP9Ru9SQ5jG0tqWRgBUIaRwVa1M6CZiX6/+7pYd7F6wlitcze95qCsMZ4kFBxQ2QrmCipNChH1JL/AKogiSojDG681Hc6o2cs/QnXLjwEVaZoIWmHgI2CNataycfn0/XwldSq5/KeC2Lm41pmDLRGgKTbVFD1k23B0GYnSJmGcd4EvwQHboTaZizZkmhn+GtjyLUtSxe9D985ri+o5JzoqnDYy9mCaSHwOQeZumx21piCUw9gc06w6fuO5m97S+B7HNoK83H35kjrkK1PUAoiTvJnYqeNtkMoeG76HwA1SEa23Yxp/QzvMb3+MdTtgNBM2MSkvwNl2wQLLpkDvftfgEDgy9HZ1fg5V2CyCUKTcxEhFIy9UsMyVZSE4MAONlGkphKBV6STtr3Q+KGQgU/o9jxdTqyd/CJnrGpnzi2RUtgehKwAmF6jpu1eqoJGO/Bv1Z6uGHzS3A6XoEsLyEbFXH3uTSIqcxVOA2BG07OMicy9RDMmr+EPHjFMRgCWetl/7arWX7ODcjSDi5rfkwCJkX0f9y+iGru+dB+PmH9RJRTIAwclBOCMjkFUuxBEEbqmOUF4zWQCKmRXgQyJqwrchmXXJeDqj9CZfc1jOy4jjW3PcpGm4J5cpPUnn2sErAC4VgdedvvyRH4rM7wQO0UHr3jrcyb/Rz8Lh+3rtE7JfWcpr5IIKoaWZ+cC8HswAtqDk6mCqY2gsiRb5e4fp17v/8A2c5rUJnruP68HZMz+BDPftvbPGb/1UqG2i9kuPd8VKaHOCxPFHwUGj/lMQgmSNEUcnL9iKCST5ZFcBTjA5J8t2DecRHR+DC7b72dPVuvYn7xJjattzsaDnF62NOObQJWIBzb4297fygETF2DauN4dj78Xrzcc9CeiwqySRCfdM22OpmkK05SKx/WLfWkH0lTPikiu6hKfe828pWfcvrin/DWzDaNCCcKQDTxuGFrlm9sewb7B19K18nnUlo8l4G+IkO7IrrnK3TkEQcuwlVIqVBaJH2WKa7fIComyFKi2iRuLiDo3YPTezNvPu2rrC0/TLMZNnE47KUsgbQQOKynWVqMt3ZYAlNC4BKd5747n4uqvo/ygmUoGRDW/YlESCZToj5wHx3hCzMJuDPv/gOXc2cL4vH9BH0PkXV/wooFN/Gh3N6mB9qZdMwf39HGjngVI0Ovxu95NqFsp14BP3aS4D9p8gwk6/suuBPbCg9TDU3JmKkxjfAksizxspqgr0KwfSvLl/0X2664hq//g6l/Mf0qWE4JPNuIJTBBwAoEOxMsgd9HYIN2eWz7QvrueDW5nnV0Lm8nbMTEkYsymROdJ3zNH4lAOPjbCd9+IhRE1kHlKoz3BdSG7yKTuYbVp9zC32GKEDXXTW5EwuV08uP/fQlkXkWuZwW5bsn4Xj/JBmk8B6anRiQcPMyaf1qPsKZAOuQ6VLL9NBpW1HdHOMG9DG/5JP/053ex/ChlrUwrE2uXJTBJAlYgTBKYPf0YImACE/+BTu6//YWM9r6J0sLjKM4SjI8dqDNsWJg3uREJ5sV5uC/MJ//OfKnHItHvpjJkQygqA2M09t7F3Dn/yUdPuoVlYqzpbnIjEl55y0Ki6kvJlP+YzpMWUB/WRIGLNksM3oRQSJYYQgfppfcLPFAmr4NPeVYDP/ZQVY9ovMF4Xx+juz/Puou+z5sZaubukGPozrBdPUYIWIFwjAy07eZhEDDeg8EtJzMy8hak/3Jy8yJi5VAZVMlXdXI4E5H0yZf1kd5ORigowcRSg0jiGrQEvztA1RyGHm2gxQ85/6yvs3DXQ6xbUG/6C870+dZbV+HWL6K84HkIswczyqK08xuPyUFRdMQdPoxBOcSfjIsQEft0lgL8OEPc8CA7RmW0SmXX/7D4vK/S6T3IxqbnmThEA+1plkD6CRzpEy39PbQWWgKHS+Cl38uTLz6PUs8bKcw/A7ctZnhfhlqlngTsGVGQ3EHmqzoy2+xIttod/mGuph/3REQNhe9Lcp6Dg6ZejRgbqeHM+j77H/s6PWsfYVOTX3BGmLxzpJ3K8NkE4y/H9VYj3E7QxgKJjie2ZZodDinWB1SIE/HU7rjkHBehJVEmoq4jxncPEjtfQYlNXHvy/sMfLvtLS2BmE7ACYWaPr+3dYRJIkgm9afuJiPg1aLkWKeeSK5oiRlnGRuoTRZgOrMcnHgRtXpxHKg6SNYsJk5P9/RrXxASGfhLrIPyQ8ZEC9fgB/NJVdMy9nudld7K+yfEIV2uH22pzeeinz6Uw5wJkYSl0tKG8LMIkUaqCjATSnxBJiblJLYQD/2zEQ4uPmtI4riIT+WRMtmhPEwuRbN/UImRkzw+Jq1fysmffw9vFJJNXtLhvtnlLYIoIWIEwRaBtM9OHgPk0Fm/YmkG4ryLb9RbGxuYyuEXQM0tSmpVjaODolGT+P4gOLDk87qlwzJoDuN5+8sX7qA5dR7nnBjqLA2xsckT+hvt8fvm1RSz+0xcwGp6HnrsS3daGiDVqNMIZd3FzxnPiJPEXwovQkXNAJLVeIBxk+bhwS3abgMmbYJaKRrfeSWPfdzhtxY+5ZIGNRZg+t6e1dAoJWIEwhbBtU9OFgBa8ZNM8snNeT/nE9TTCMuN7YoodDsUej7H+qfriNFGKJlWwh3BjpGNKGgsy+QpCjzO07S60uJbVz/oll2C27TXvxZyUtL4xQ/u5K7nxpj8lLP0h5cVt+LkIVVcEwx7ZQkgcuslL12yDTHZ1HJEXpYkT5Im7Qh7/Z7NEInE7JOO7ehnf/Qt6Zn+Vr6y5A2G9CE2Eby81QwhYgTBDBtJ2o0kEzIvxn/H58Y/Pw/NeT/uKMwkdl7GBiLa8R74sqYw1d4vhU5luXryuqScQuUg3SrY/xvUMfrFOphjQGOxlvP8u2hdcw3Pm3MrrRLWpOxsMi59T5NKf/AFKvYqORSvxevJJaejaaIZce31CIERmR0N8wIOQkp0Nv7Vt9CDhA887IQnGNeP7dyO9K7n4vKtZx2hTBVaTpqO9jCXQSgJWILSSvm07fQS0dvnzviWM7XkzQfRicgvaaRBS7VeU8g7ZnKRm9thPwaGUwHUnci4YD4IRDMab4BfHkY4iW4qJqoNU9/8c7XyXueV7uGxhramWGZGw/tbZyL4LcfPryS5ajs5HVIYyZIpRkiRKxU4SqDmxxDA1bA69k8a+ifgQ4UxkgnRCQSCN0BtDBddy4qKv8KKerZxv8l7bwxKwBJ6kqC0QS8ASSAhcenOJ/62ex9ylf06UW4kuCKq1iGhMU8gIpOsQNZrnyv+92KVGRzLZ62gEwsGqhdKrJi/oroUOxY4qw5v7GdjyU0pzvkN3+WH+eVkwscugScfV2ufOe9cwVH0LKn8+cWfAeNXF8YxtE40YYWCKJqVOIJigxCT51ETWy8S+usLtcGm4IZW+h2H3Jk7LfZ9LzhlqqgemSfjtZSyBVhGwHoRWkbftppPAn/7bbPbo17DiD96A6ClS14Lx8Zi4osn5CifOopu8a+ApSSQCwUlyLiR5F0zVQqmJogbD+x16lmRoa88SVar03rWZsPoDBh/9Lrf8ahdsat4yiPEi3M4cbh79Ix7d/TpGM100tEBqH23qUQideDQikzwpJTEISXDiAbsM3yRNtJqowKCHNP7xEllSDG1VVG6+icXuJ/j3zBaELeSUzhvTWtUKAlYgtIK6bTOdBLT2+NDe57F/3zsJCstAZlBOsi/uN3v+PQ1h6++bJJFSErAYEo9ncGUdv/gYXu47XMi3eVGpr6mQTXtv/fp8+qOLKDzj9XSsWAwMEzVCgmFNGCmIffx8TOhqmidPmtqN5GKZSDBYC/GKgrnd7fj1BxkY/SyVruvY1DnS/AbtFS2B6Umg9Q+66cnNWj3jCGjB12nn1sf+hOGxtxHnSokoUG46BcLBr2LP0cRBJhEK0qkQjNxMsfuLfO6Gu6HJX8NfvC3PHep0orbXEueei5f1ESiCqiSum8wRAuFCbPJCpHiCGKsHxyP8omROOY+u7mOg/yqyx32LC3+ynfVN5pZiFNY0S+D3EbACwc4PS8AQMMmB7ho6kYH+NxMFLyLwnHQLBBN0Z9zoWqLqWXKlBioSNHpHqAx+gVt++RX6NlaaOrhaO1xLNzfUzmXnA6/EaVuNXzRVLT1MHQdEnOxwkHGa5QFJAqoghExRkM+7RPs1owN3UVz0Jc5VN27Y85WxjRs3pi3YsqlDaS9mCRwKASsQDoWSPWfmE9igffY9dh5R7S24uTOpGpd5mj0IB7Iy+44mDDJ4Hkih0KNZ+h79Jg/+6m/Z8g/NXWZIvBba5RIWcMt1FyA7XkChcxH57g6k46GikNooeJHASXEe5iBQ+K6LnzPlLhRjezOIxiBdc69ief6qdYt/tmOT9SLM/Hve9vBpCViB8LSI7AnHBIGLf9WFyL6CQunV+OUVDAxEqRYIJmGSCcLLmPwD5us9zOJmGxT8Avvu+zEP3vFB7n7f7qMydl/WWT5z7Yl0zrqQXPa5dBx3HPlshupYTHUgwnckrvObstBHxYgjuOhILaKrLUvGh9GRkNEBQUebpqv0czqDK1auvO2XD6xfHxxBC/anlsCMIGAFwowYRtuJIyZw7lfPY9Ez3kb30jNwSlkGtoapFgimwyYvglkJ8Ys1VLWUCITOrjJ7H7ieLTd8gJ+/Z8cRc3mqCzz/0TZK9bXU+l/PnBNOxS8LRvuhuj8gm3fwcukVCAP1gLmzivhSs3t7QL0ecPwyj7Ksovb8e0/twX/v+/z65i7PHLWBsBe2BI4eASsQjh5be+VpQMDUXTjpau098Pkvv5HZK9/I7OULcNsVfY8FSQEmbXYxPPE2cTVELb5vTPyB1KjAxYldCh0V4qCAzISUOkoMPfpT9t/9l/z3+qMmENZu0O6NO+5fwf6d76Tn+AspLhCM73MZ2TuOV/Zw885vZyZMaiG0mNuBCTkWhHS3F3ClZt/egEZYZ8kKj+xokfqubxfK8mOVT5yxX0xsirSHJXDMEkjHDXvM4rcdbzkBIwK+xHFcd/d7UfJM3FIXxTke4/tDktJ/yXFgwd/844ECSq003KwoKFfj1h2KxDiuS1zy8DvrVHSW4Qeuw7n9r9n0+qOzxHCw7++8ocj+gVeSn/XndK3opDKWZXx8DFM+UYjMgfwNBypdmtwRpmR0Ch45ycaUyNiicbMBUTWL9CIY0ARjD9J28qf5wr0/05xv6j9akdDKuW7bbimBFNytLe2/bfxYJ/BF7XHn/hcy0v//ocR8nFye/CyPminIlFaBYF5b0gQDgnFo+L6Dzkl0OWa4Ion3/Bd+/8e46vz+ozq8ZufHL+5dyZ7db6VjyTlQmEWkoRFHKPNijQXabH08kMXQvJB/2x1zVM17you7JsmTVMSxqSERERuB4Ic49ZDRXf0M577BP573ZVY3ubZFa3prW7UEDpuAFQiHjc7+cEYQ+LPhDgYf+ktys/6YhildLAWZTpdwNEqvQEDgSLNTYKLcsuMqnJxIXni9+3rJZz/P89uv4u3zqkd9jD6ni1z/jQvJzFlPcclqirPaGBsJCaJ6knpZm80grkKbLIt+NBFQ2eLDMSmhvQgVOokHQdX9pJZExqkxtrfBzv238Mev+Hvey15Ek8tot7jrtnlLYDIErECYDC177swisOEGl73LTmRo+9/RtXw14+OKRqjwyhJMvYWUehCEAFcIlElKpBy8bB1Vh3BEsWfHTzlh9b/yxQX3T8nLzbzwX/DVE/CcF9O18gXMP2kF/ft96kFjIuZA60QgxKGDc3DHRYunkWfGVepEUHnZCTujeoacHxLoBjv3DLD8jI2sd2/mfFFvsbW2eUugZQSsQGgZettwywm8s7fIwNa1+P77Ka9YytiQojGmcIvGPW62CaQzBsHkGMi6koarCB2z3bFGNFBFVnfR2381rzzzB/xZ2/CUlS9ed0OR4b1r6Fj0p8xd9VwqlSK1enQgtlMhHI2OzUvZDHnrnzkZUxlTyaSIk1lqMAWcwmoO3zX1GQL2jddRlW9wytLL+btC75RxbPkNYQ2wBH6bQOtvVjsilkCrCLzsmtmE6o+Zf/LrKC5ewlBfSHU4xiuoJEthmgVCBpegGBJkFFE1gv495J1bCHPf4n1L7meNMC/oKQqw04KX3TkXb+Riuo6/iEiWqY2TvHyNKDDiQBrvgalM6bRqtH/TrpckfBJIJ0aHE8sNppiT63m4nYq+SsTQ7Xdw+hl/w6VdD0+JJ6b1VKwFlsD/IWAFgp0UxyYBE2D389HT2LblnWSLp5EtlGmEZgsjOBmSP9N6eI5IvnYHag1ocykWHOqb70Ps+DLZ4vVcuXakqeWeD4WDyUS57fa1VHMfwMkso9gT4AuPkX7FWF9ItiQpzc1QH0oB2ANbKYznwAgDI2SS8MlAQAcEZQgf2kbX9s/wqpGf8sKLxw8FgT3HEphpBKxAmGkjavtzaARMNsB7eTE7H/4LYrrxzMK+yQAoBZhPzPDQrtOKs1xH4LqS4bEGUVnR0V4h2nIT+YeuZO79D7Jx49S/hM0X+V/uWsbmyrsR+rnMOi5P1vfp3xkztKtBtuTSc0KGyp70go1qIDo0erZEPtZL4d6vsDq6mnet67fLDK2Y6LbNVhOwAqHVI2Dbn3oC5mX2T1tn8UDutYwOX4xwcigpcKWbGKNdjZj6d+whg3AccIRDJQrQ/iAZcSsMXktm5Bd86dljh3ydZp94mW7nZ1tfQDRwEeWeUyjM8agNR4zsCPAzLp1LXcb70lsIOgo0FMCf7aJ3Bjibr2Ne+Fn82x7BFm9q9myx15sGBKxAmAaDZE1sMoENWjKwdwWV8bdC+BJ0VqKlIIwcIqVRniKbgu14v6/bpoqjzCmqw71E9U14+hrWnbaV9SYhUYuOq7XPlfevJBi8mFLbi+hZViJqhAxvD5COQ3mhoDHUIuMOoVkz9mQgl3dRA5Jo/1040aUsXftLNqZZMR5C3+wplsBhELAC4TCg2Z9McwIbtMu9e8+hNPZmcvJcQtfFpPaph4LAbNx3NXnR+v36T4U5jiZ2EJY6Xcb27CAY/idybdfzjZOHpzz24Ik2mi2P597TjVt5Be3Zi5i94jiTepKR3Q2iGArdAjWe3mdOYIIqhaDsOjiRZHBgG/XRy8j5P2LTObVpPuut+ZbApAmk92addFfsDyyBQyTwun0FhhuvpVu9hrJcwHiQQzkhNULqkSZ0FG1iYrkhjUcU6iRTYc/8DNUdt1OLP8j+b23mxhbEHjyBj8l4cLq4zb39hYtPxtv9GmYv+0N8p5ORvXWqFU2hTSTZFdN61F2FVIIuk4Y5I+gdG2Gw98usLn+Nfz6t+aWz08rB2mUJHCCQ3pvVDpElcLQIXDTcwb6+D7A49wpmO1mGx4qEbo2GDBgP0i8QGoFGEzJ/aUDU92NKuY9xaefI0cI1metqk1v5tcxh5P4/Ys6ii3G9RYz11xgf1uRLT9w6OpnLTs25NV8hY8GscYnbAdtGIwb3fptTc//KP5+xzQYqTs0w2FbSQ8AKhPSMhbVkqgi8Wy+ib+DvcPvW4uYaxIFPZJYWnIg4nsiwl8lOlTVP3Y50Y3TsJJUbhcn6Z9Ir+zG+75H169xyza947Nef5e333sHGG9MTVam1x0X3nk7vbX/P4nMX487LUkFT88bwt3rEkYtjMhjGMlkSMfEUJpmSdFq7rBOhEQWBpyAciil1RtQav2Yg+ALFO29l0/rWxXe0fjZaC45BAlYgHIODfqx22bjAxSXa4eHwVHTf31CsngK5OnHDJzDPfhknAkHFDn4KBMJE0kGNTGovmNV8U9tAki8pHDHOrT/5b3Zt+Vd2fGQrApWacTWxCG8dWczATR+kbdELyS4VjDsw1gjJ9Jv6ES7SNbUuTKdU8qd0UyAQ4gMCQUC9T9M2L6BR3c7e/n9jzzO/xwMiSA1ja4glMAUErECYAsi2iXQQSATCBx4qclfXiyn3v5t2dx4q30A1PEIl0FoRm0h2JXAzKbk3hEZqiesqhPKTl6lXGKcx1svD93+F3c4mvf0lw6krS2yKON1370WMDL6P4gkZxn0YrgjaowClHKN7MHUezWKJOUxMqDA5KFp4mOBPp6gJI0F9ALqXhajRiD2PXMVI7bP86kWjLbTONm0JTDmB1t6QU95d2+CxTCARCC97uIv+4DUs5I10ZDsITJrd0KGhzM4AlYgEc7hea93dEy/Nia/tpFpjUqJ4ojyxDvcwsOM2euWV+MF93Hh+epYXDk6wG7TLr7eexh33fZDs8SvRHQ5DNYc2OeGmN56QxOlhElRpPVGnodWPIyNafGgozciAYP4zItzRDPvu+j7Vhzby0/fsP5bvH9v3Y49Aq+/IY4+47XHrCJgESefeshSVeSdL/RfRmc8zajwHQif5D5K/lKkfoHC91hcNeFwgOAohBJ4rcL2A+vCj7Lv/Gnq7/4s7n5PO6HrD+ppHF/DdHe8gLr6MuCNLVQnaHQdhYitCFxw1EYfgKBSCeKpqRzzFFDTaRbiSShzSO6xZeKKkXM8zdNvPGf3Bh/nhZx6xgYqtu31ty1NPwAqEqWduW2wVgXVXOzzScTaZwkc4efYJFB3FQN3HdSPCZHnBfMyavfDp8CDEkSmRbJIeSEwFRz+r0LEkGL2fsd5/wzvpejbNqrQK5+9rN/HW/EJ38N9bX8WuvW8kLHdQEZIOP4v0wiRQ0QRhCiMQpCLWAiWmqLjUU1juROZ5KBmVNfqGYd7xWXpEhsFb72fPN/6em770vwiR3lTRaZwI1qZpTcAKXd+6FQAAIABJREFUhGk9fNb4SRHYcJ/PTfvWUV7wfua2deJGMSOBRApNLIw6AHUgUF06Kbg3pAN+RH1U4zrQ3e0RVTOM7Pwh4fCnWPXCh1Od4e8+k1lx8zPZvP1isrPXkOmehW7IA0snB/40ywtJgKho+RJD4jPSkgYBo+OCjh6PoufT6N3J3h9dzpXvvYp5ojqpOWdPtgSmMYEUPASnMT1r+vQi8F6dY/tP38Xsk9+C2cdYq2qiMEy+ypO308Ev2KTaX2u/Zg1ZWTJFJSUje2s4rmDZ8jLhiMuuX3yRPT/6DL/+3EC6B0AL5v+0k57el7Bs1as5btVK9u2Pk0BLHStUKIlEgAhchKtxZIvjPpJpMCFYZMPFy0TgZdHtAwz+z4/465ddypki5czTPSOsddOLgBUI02u8rLVHQuCd9xXZtf39zDvlTYiMQ70WE+ogtQKBLCgtGRmq4+cExy0q0RgN2Pvrf6L3hiv4+SdaV5jpUMfhD/cVqD/wXGZ1vIVFp55C324XFQuk0yCue8SyMSEQUpAHAeNCMLpQabyGg5MzAiGDbq/Tf/P9vOwP38+bedTGIRzq4NvzpjsBKxCm+wha+w+dwLrb2mD4Q3Svei24EeMjoNwUCwTjyShAdTTEzcLseQVU3yD77v4Ezo+/xabL0l8fwNS9uPuWVUjezbxTn8tQX2YiCNStEY5niL06qurjeqrliZImBILJ9qjwGhInG0PGR7crKrf1s/rs93C3+ws2tbAg1qHPdnumJXDEBKxAOGKE9gLThsDbHu6mNvIRulauIwhrVAYkyjPZCtO5xBCOQqZHUA8UjqeZ1ZUl2PMoIzs/xgp9AxtTuL3x/0wGLXjdPT3Uq++mY9HrGA8mdjEIERA3XEJCnNBJhwfh4ApH4kGQOBmFznmIsqJ29ziFng8yvOxHbLIJk6bNPW8NPSICViAcET7742lDYJ12aH/oeOLwb2hb8Xxq1QpjvRKRm9gZkMYYhEavJj9PEiiNn4FCXtHY/lPk+Gf4t7Memjau7r/sK7F3/5vxs39B3ddJFsU4EAitCEKd1D9IQyZFHJNFUyJReKGxCUTOQ5U10X0RceMSfHU1V55fnzbz3hpqCRwBASsQjgCe/en0IbDsXT/IbBntOR0v92HKS89kfHyI0X5w8jq1AqG6V1FeKImUxC9ATlaobv8qbnAlV5w1fZL2fFHnuXvXaxgf/wi6HCfLO9FoBuk3qNUcXK1wXI0wuzZaebgaFf1GIOAKZMZDlzXxQ4LqwN8jxr7MpvXpX9ppJUbb9owhYAXCjBlK25HfS2DddW10nnABXvGNjAychJOP8D2HqCoSl3ccKZQWxElWv4l0y60+fOkQ1qLkhSp1iUZlK6PuxxjuuFHfsrCeuvTKT8XLxCHc/6vnMbTr08xd1YmbrSeprU1W61CE6MDFdTVui1MtuyYRlZA4kULU5YSHphATkCUYqDC0+T85ae0n+URP+oNDWz13bfszgkDrH4IzAqPtROoJXPiDHhYsvQh/1npG+xbhFExVRCMQQEpFpGJM9r8oRQIh5znURiOEEQiySHX8HpT7NwyedCc3ivSlV35qgSDZcv8aBjZ/hO6Vq3AygsjUaIoFoROkSiB4UiLrGhEeeDYWTRKtHMFgheHN32LN8z7Oxi5bkyH1N7w1sBkErEBoBkV7jfQTuOCqJfSseD+lhS9gbKCAKMTk8oLQCARMquX4Nx6ElHTHz0mq/VHifnedDGHjZ+jOD/LNebt+k7MhJbb+PjOM8HrL1kXsu+/1dJz4R7huR+KpMaUYGoRJ2mXXab0HwXFE4sVwGhqCicRNOh8TkkHqOoMPfodnnPkxLu0cmQbUrYmWwBETsALhiBHaC0wLAs++fAULVm6gfemzqYxKnLwimxfE1YmESJEySwxMLDGk5JAFaAwpTPbnrOPiyh+Qn/0RPleebsl6BG8b7WLPL19Bx/FvQzAbbQpR6QmBoEIXLwUCQTgkKa1FQyOMQEi2mcZE0iVbUvTddQ3PWLORj7cPpWSGWDMsgaNKwAqEo4rXXjwlBARnfe4ZLDjho3SfeCbVmkJmIZsnWWIw8QZRpFGmJsBEMcdUHLoN6r2msJGgkIF8+bssnfO3/JWYfl+wX9EFvvvrtZTm/BU6XIx2ImIlCER6BAImUNJUzayBCE3hLgddiIk9SedcSe+t/838VR/hsrbBVMwPa4QlcJQJWIFwlAHby6eCgOBZH1/JwtUfY/Zpz6Rej1CuQ76oE4GgI+dJAiEdqZbjdqjtU8nXbNGLKfX8Jxf0fIKXi+kXJKe15E/uO4Fc+6eIG6vRTphUeW7EMUo5qfAgHBQIomaWGDRoF50z7hvomufRe+8PmXf8X/OP5f5UzGprhCVwlAlYgXCUAdvLp4GAFjznylV0L/oYPSevJgzN16skm4UoEGgliSOdlH2e8CCkQyAEvoY6yMjBpU6h80pe2vNZXjpNCwa94OZ5zJ/3WbQ6C5kPaQTQCEKTzhLf5EdIuLfwcCY8CJglhhCEWXPIaLRvslh67L7rB7jtH+ary3pbaKRt2hKYMgItviGnrJ+2oWOZgPl6fcfe0+gbuoTygpNwHM34domUATI/sZ3NJMhJ1pwRyZdtssVtqg+zvfIJR2VrwIJnFsi0+Wx/ZJgqG+hd8W1un6Ylh4vv6uGCdZ+mvOD5FI+LGOhXjO2pk3W9JGA02UHS4sOIReHEODhIqTGBi+bIdfv03fsthnf8Az9+5d4WW2mbtwSmhIAVCFOC2TbSUgJGILzh0WcyMvpR2hevRGY141sdhAzwima7nUy8CAcPYV7UrXhXPUkgNHYHdJ9cJF+QbLtviFrtEn545rfBlKaehocRCM+/4NNJJsvSspCR3pjhvSEl30uKUYUmGrOVxwGhKF2FjDzMPPCMZ0No/Dk+/Vv+i3DsH/j26VYgtHKYbNtTRsAKhClDbRtqGYENWvLIr1YxGvwVncc/k1I3jO3wiQJwi4oodBPvQSIMjA/BMZv0W3BvPEkg1PY36Fxewslodvx6F/19H+XW9T9qGccjbdgIhOc89xOUll1Ax8qQ6lDE0N6Yct4hk5c0ghQJBOUiBHjeROIsf7ZPf++3of53bDpu35GisL+3BKYDgRY8BKcDFmvjjCJg9uGvv30h1eHXk5/3cnqWlqj3Qn0siywFqIaPdGO0+cu4mFuxvGCIP0kgRCMhpUV5GvUGW399E9Wtn+WO99wzbcem/bJ2zl60gcLCl9P2DI/KeIPqXujodHAzgkatxQLBFHM8sMTgaScRCNKbiEipzckysnkTXvC3fOcUG4MwbSehNXwyBKxAmAwte+70JfCGre00xtaixZ9QnL0cEeSoDhUR7XXiahbpxcnas4om1p5bshz+JIFQr8a0zQ6p17YzsP07DD9wLb966/SpwfDk2bJ2a5a5A69GuxeRmb+MWkMT9Evae8B1JbXxFAkEYYQiSEcgaNA32k914Bu4c77KD5fbTIrT90lgLZ8EASsQJgHLnjqNCfxAZ/gFy+jtfyFxfAaOmkdteA6UFcF4AenEyd8qnihH3PIlBhETNGpk2/ej5a243ncple/RnxXBtKnB8OTpYipqLho5lf7hP0GUnkOtVqIxkqWz01ROdKiNtTh9tIlBUBLpKJzYnfjTCUH2sv+xX+LJ/+Ld59zK+dMozfU0vmWt6a0nYAVC68fAWjAVBMwywyYK/G91Ob17zsLJnorvnYSfnUOsM4n3QDgmOFEmQYB14qkwCx+Br12UNrsqVBIbqSIXHVap7L6LMLwbEd/C6Wfcyl9Sad3yR5NofGCwjZ2N0xCVF5PNn4ufX4rvK+o6ZlzUzR6SpCXFRNCoUKbKY5Maf5rL5HHIaZe6gJqWhKGCwccoiF+z5frrWXL6HXzpmf3TfgymhqZtZQYQsAJhBgyi7cIkCLx3Z47+0hxqejFe72nIvpOJaoVEHOiMMoUZzB5HavHEy/poH6YoUBLyYFL/m90J0ri1Y7xCLz09N+PyMDT2ctmSkZnwYtqwYYPc+Ot3F+keXkFHz6nUek+hsq9MpZ5BZzTSiDQjEMyWU4MjEW1Ts6kkFwsynqBSUFQyASIewg/uYcW8uxi5djuvPX6U889vsZfjaE9Ie31L4DcErECws+HYI2C8CafjsvT6PJnH8oz1uQSepljWkIfYZC5smwp5AIMDsHPABMNp1IEKguWCovvkgD/9gyrraJjQuZkgDsxE03oiGZLYpCVDZLjxxjxbbnRpRzL3pNY+j2o1GB7V9JYF9XaNHg/IRjU+/Lo664R63Ltx7N0xtsfHKIHW3pDHKHTbbUvAErAELAFLIO0ErEBI+whZ+ywBS8ASsAQsgRYQsAKhBdBtk5aAJWAJWAKWQNoJWIGQ9hGy9lkCloAlYAlYAi0gYAVCC6DbJi0BS8ASsAQsgbQTsAIh7SNk7bMELAFLwBKwBFpAwAqEFkC3TVoCloAlYAlYAmknYAVC2kfI2mcJWAKWgCVgCbSAgBUILYBum7QELAFLwBKwBNJOwAqEtI+Qtc8SsAQsAUvAEmgBASsQWgDdNmkJWAKWgCVgCaSdgBUIaR8ha58lYAlYApaAJdACAlYgtAC6bdISsAQsAUvAEkg7ASsQ0j5C1j5LwBKwBCwBS6AFBKxAaAF026QlYAlYApaAJZB2AlYgpH2ErH2WgCVgCVgClkALCFiB0ALotklLwBKwBCwBSyDtBKxASPsIWfssAUvAErAELIEWELACoQXQbZOWgCVgCVgClkDaCViBkPYRsvZZApaAJWAJWAItIGAFQgug2yYtAUvAErAELIG0E7ACIe0jZO2zBCwBS8ASsARaQMAKhBZAt01aApaAJWAJWAJpJ2AFQtpHyNpnCVgCloAlYAm0gIAVCC2Abpu0BCwBS8ASsATSTsAKhLSPkLXPErAELAFLwBJoAQErEFoA3TZpCVgCloAlYAmknYAVCGkfIWufJWAJWAKWgCXQAgJWILQAum3SErAELAFLwBJIOwErENI+QtY+S8ASsAQsAUugBQSsQGgBdNukJWAJWAKWgCWQdgJWIKR9hKx9loAlYAlYApZACwhYgdAC6LZJS8ASsAQsAUsg7QSsQEj7CFn7LAFLwBKwBCyBFhCwAqEF0G2TloAlYAlYApZA2glYgZD2EbL2WQKWgCVgCVgCLSBgBUILoNsmLQFLwBKwBCyBtBOwAiHtI2TtswQsAUvAErAEWkDACoQWQLdNWgKWgCVgCVgCaSdgBULaR8jaZwlYApaAJWAJtICAFQgtgG6btAQsAUvAErAE0k7ACoS0j5C1zxKwBCwBS8ASaAEBKxBaAN02aQlYApaAJWAJpJ2AFQhpHyFrnyVgCVgCloAl0AICViC0ALpt0hKwBCwBS8ASSDsBKxDSPkLWPkvAErAELAFLoAUErEBoAXTbpCVgCVgCloAlkHYCViCkfYSsfZaAJWAJWAKWQAsIWIHQAui2SUvAErAELAFLIO0ErEBI+whZ+ywBS8ASsAQsgRYQsAKhBdBtk5aAJWAJWAKWQNoJWIGQ9hGy9lkCloAlYAlYAi0gYAVCC6DbJi0BS8ASsAQsgbQTsAIh7SNk7bMELAFLwBKwBFpAwAqEFkC3TVoCloAlYAlYAmknYAVC2kfI2mcJWAKWgCVgCbSAgBUILYBum7QELAFLwBKwBNJOwAqEtI+Qtc8SmAwBrX/7nhZCT+bn9lxLwBKwBA4SsALBzgVLYJoR0JqD9+3BP+WBLjzV/XxQJKgndFULgRUP02zsrbmWwFQSsAJhKmnbtiyBJhA4IBDMvftEofB097IRA08UBE8UC09pVaIhrBeiCaNmL2EJTD8CT/dQmX49shZbAjOVgNbGU+AALv24+HiMj0koHVqPi+j/89fBX44cEBttB84w/70TxZXbIgq3KlgXsx4Fdsni0GDbsyyB6U/ACoTpP4ZP34O33eYxHuWgq4zsaodKFlWbGHvv6X8+cUYVvIHfnOxmFH65QvvcEeitcNJJNdaL+FCv9vTnacGG+z2Ym6WmioyNdVMLM4STsflAK2EZdE0Qa00UamSuSk/XIPnKGNt/VmfT+ibaDVytHe7vyyFyefrHOglrxcTux4GHoCKBCifGQHqH6urPIp1upGhHy1mgMnBwdeHpiT7lGcZDYC5j5IPjaoTUYP4WDXY9tA/dqJHrqFAsDBD11YjqmnJbTKYH6lWFX1XUqyGZOTV6nlFjJRE9KNYSH7Pehw0bJOLtWR52SkRRO2qwREZIcnmQOU04egQD9rt+6k5c19zXZm65JUVbqYauD7K0e5B3i0aTG7SXOwYIWIEw0wfZfHW+4HsLiKKVZOedStvCVXiUUdWJsRdi4k/1NB5nVwqyGfOSlck3rJOtotUutH6Y4fsfYOHKe/nU3IGmvRDWapf2Xy7AcVdSal+BK08nEt0EBKAF4kAw3oTdpg9P8ZKVIPLmoSnRMiSuS8KxAYpzfsVA5U529j3MfWcPNc1uY9vbHumib3g15a5lyPhZiNxCGnEjsdkEESbO/vjAEoH5l0P9KhcOWmcRZIBcwqHZRyIODtokYmShjg4VIo6QYRU1FkFD42dj8j2CRk2jazGNag2ZfYRi90PUHuoj3j3EYw/38uDP6vRvj9ayK7xhA0psNF6IGX5s0JK7LymjX7eSytizyLmrcOQs8hkXP2PmrqRRj5pHwag7IxAcTYLX/Lsyc2OceOSXtOev43nHP8J6ETSvTXulY4FA8x8wxwK16dTHDbrIXb96Dm7phfjZU0HOQgofccClfDDgTT/NR6zjgHQlSkkcLfFK4+j6OKitNEbvIJj9PdraH+By8fi38hFhetM1Jcac8/GWnYcun0xRLMaPytTM9TWJN8D8GRqv91PLg4kv9KxARyBjlQgFQQOnbTONsV8yuuVHvOEFdzbN+2EEwPM3nUX3ihdQnLMGGS8nbpTQmSgRCEqZ73QI499EEByq/+CIgP6eHydPASM2niRUjF1uXiCUQJsXT2TAm5cPSKlxM0Z4gYo1cajQohfp7UH21Qj1GKK0h5o7QrEw5nSXhsR8byDKZR/jZEYJqXG+aOJL8mjBOYzrvmtzhjsfXkXbSS8jo88mq+ag62WErxFFTWy8CEPNffaKA54kIRUqdlCBh3BqxHoXrvxfVh13FR/kIYSY+QLtMIbM/uR3E2juJLWU00XAvKzeMz6L7Zv/hFzPK8h6S2gMx6A0ImP8AJM7Dm6hc5RLplhFBxmkM4ziIXozX2Os+3puFPXJXfQpzn7dF2YRzXs9/prnUs8voy32yNd8Kge+QCOlkhdtpA7h9WrWUSKN05BIoXDyLrpcRY/cQ23zNym3/TeXn94cYWMYnf+li5j/7JdSmncyulamMRTi5iZ4x4lA0ISHYndTSE7dRczLR2uF70liPybIGkGmiccD3PFxMtXdVGu34MQ7qI7sRMktnP7iETbOsJfWu35Z5sHoAtrmv5ZcbiV+EBMMZBImUUkTFxS5Ebe5A2M8P0pgBIJWkjjw8LIN4pyDENtY2PNZ3s2P9VxRs7tXmkt+Jl/NCoSZPLrmZfX23qXs3/k+8nOeQz5bpjZgPvnUYQmEg0HzMnLxjes5yCGcABXX6VVf5uG2y9nS1ZzF1Td8YQm12RvJnH4qjWKJcgyFmtcUgSDzHpRi1FAv9a3f5JyFn+fdy5uzRmuWdM6/4m+Yd96LKc/rhppPfbhxTAiEx++lNpGsgNQl6EgSVkAPSGQY4A4N4qgxIrEDP3cdPafdzjmNfp5VGmO5WT461OWWFN+479q8gK29b0lEeSbXQSYOCaoOsVSEGY32NZnG5AX603XZrBYax5p0Y+KGD45C58yKw16y6muU/O9wWc8+7PbWpyNp//8BAlYgzOSpYNZCd+x4Bv17P0x5/ulkcz61gRgda2R2ktFtBx/cWiBjDzfXQMQ+jhcRxz67Kl/hofwn2bF4qClIX/u5ZYTzLiOz5kSCokMp1k0VCMJ8yQ1VCLZ+k+Xik2w8vzmej0Qg/PunmXfuhZTnmbekc8wJBOUKtGfiHE3AY4xjvAh1gW5IMiWXTN4sr9QIKluIhh/BKz+K9m5lNHiY5y+t8jai5sWENGU2TuIiWvC6nSfRGPkAXuZcZMZFEieersgEySZvcMgmO1KadxhxoIwHwQSc+uGEQDBLWibolApx9Rfo2he5+rQ7pi/b5uGyVzo0AlYgHBqn6XmWEQiPbDmR8cEPUZp3On42Qz3xIByGQEgCGg98oYQ+bqGO1B5OxngQfHaPfo37s5+yAsEKBHRDI2oCGUiIwDebLTzQnkDOd3Cy4BlhWYkZ3SOIG32E+iYa3MTxndt486LtnER1Wq6Xr9MO7Hs2hbEPIpwT0FITSBftxiilUPWJOA7fb75AME+pRH84cRKHYDyIsY5xXUkQDqKCT7Bq5XfZaIMVp+cDfeqttgJh6plPXYsHBUJ16K8TgeD5uWSJwXzRHE4MQmK5+UKJPbxcA+IMbiZIPAh7ql/hfu8frUCwAoEwUph3kF9z8SPImDwNZY0oCeq5mLDioGsKKSNU5OIqTSj6iJzN+GP3sbh4C/M6HuYdxUHENAtkXDvUTnl0HbPUO3FpJ5AhDSdHlAtRZgWlohBVcEvNFQhm+c8IAseJiSIHR+pELJjgUadsAlBjRoa+TNDx7/xkTu/UPYRsS9OZgBUI03n0ns52IxC27HgGlf0THgRPFqgNm6dUjHMYQYqmPfN14mgHJxOiG3mEZ76MXPY1rrQCIfmCs0sM1aJKwlXyYxJXOUn8heiUqJygtq9OYySkNgC6ISi2QbHTw2nzyLQNEezeQ/DAPRQa17Pq1F/xZ4uGp41L3Djzn1tdQG73O1iS+xN8LaiJgJosEpUDVA0YUcgxcNuaKxAOBhDLTEg8nkN4IdJRNIYF2XkmoFeyf9tP6N37LxtecfuDGzdutLsZnu75af//46laLYoZSUAL1mw7gSWjl9C58AxGzda6MciabXaH02Gpk616rlk/leaR4+K4MZF22TP2NR4sXNo0D8KFnz2eeM6nWHD2arJdHmpQ06grnAOu2UntYnCE2ReJE5hdDDEy6yPaFFFfldq2b3Kie6mNQTic+dDE34yPhIS1mPLCgIzXTzh8B43g5yycd9u6s/9s36b1m5qbzKqJpj9+KSMO1115Lv7CV9O+Yi3aaSc2+0BjQUiYfNlHsUBKNZEQcwqOwOwscTQZ5dHou4uuts9xwvKbeZ8wasUelsDvJWA9CDN4gqxbd7WzaetZJ7Jk+CN0LHiWFQhWIKR2ugc1E8gnKM8X5HJVqrt3MrL3DnTmZpyb7uDb7+9PdUyCEQffpcyVX3sV/vyX0nHcCUg/h55I20GgY+JYJH+brYhTJhAihZeVeI4gHtyO0F+ne/F/cVnbYGrngjUsNQSsQEjNUDTfkLVrb3BvHDxuNcvH/prO+adZgWAFQvNnWZOuaF6i0pEUu8HPxdQH64xs20Z15E70+M9Y99LbuRiz3JBOT4LWHm/ffjLb7/hzyrPPpjwvTyariIKJfAdBFJvY4CTPVBIcMFUeBCMQfEmuKAgHa4xsv5msfxnffI5JmnQIOUSaNL72MtOSgBUI03LYDs3olSuv9h/InLOGpYN/SeeCU6xAsALh0GZOC85yXEEmL3EdB+GDVHXCkVHG9ptghV8we/5POXXOfVyMCVxM34vt0zrHT/7nApR+Jx2zl1Momt0bMXEtg3BiApNtUmu00BNZKadIIMQNjeM7FLogHBAMPvAYMZ9kzXHXs3GVTb3cgqk+nZq0AmE6jdYkbd2w4cvZjdc8bw3Hj76fzvlWINgYhEnOoCk83XUFnqn1YVIERwLfD3H8gHBMEcWP0Ri4jQ7nR1x0+h2ck7b1c1N/gy7uuu5NdPasp2NWF5mqwM9ExPV8siW4XhdJpmpTO0QagTNVAqGqyWSNZ8Ylqgr239dPZfQK/vj5X+ed7c3JWTKF08Q2NbUErECYWt5T1VpSneC97/107rIbXnnatBQIL/z0MvSiT7LgTBukOFWzppXtSGG8BgJl8lXJCBHmyOTANxUJXcXg/kcZ3n893Uu+z3nHPcbbm1Tzoyl9XudwzodPJO7fyKxTTqI978Iel6ypixDm8coVGg1BGDqJF2FKBcIYlNsh35khUtD/UD/7t1zD8rVXcPn8HU3pvr3IjCVgBcLMHNrpLxBe+s/PoD7rMyw8Z7ndxTAzJ+n/7ZUpf60ipAyJxop4OYdcZ41GThJUBxjZuRXHvZbTlv+IS8r9qaFy4Q8y1Dv/ACk+TGl+D75UODWfjKPRjQxevkYYCSIlk/CDZIlkqh69SlBwYzJRhpojGQkGGNx5P6ef+QU+Xrw51YGfqRngY9eQqZqlxy7h1vR8WguEDRq58VVXnMJI4fMsevYsKxBaM4lS0+qYq8llFG61hhj9X47rvoKPXn43IiV7+d+ly+y957Vk/TdTqXQQiYDCbBcPmexiaOXhlF28oRD5mGQk7xIurRBWAs5a/O98KHM5oknF1VrZR9v2USNgBcJRQ9uyC5sxNX+r6brEkAiE1355Dfuzn2PRs7usQGjZXEpHw+NSkcs6ZEzGxT3bkLUv0733W1y2vvV7+U0ysse2L6a2/y3k2/+I0Vom8YJkul08UzexxQIBs8VxDJzhiEYOagWShE1L521ilbiUN3YMp2OQrRVpJGAFQhpH5chsmu4CQWzQOBtf/x+nscf/FysQjmwyzIhf1xsxmbJH1pNUd8aM7PguDP09P3xTX8v7t077uPeuIW68hXz3c6nVBUE9JtPl4KZBILig6w6eDpB+TL1eIK4qCu0/wxu6hC+u2WqXGVo+i1JrgBUIqR2awzZsOguEZD5agXDYYz8zfxiPx2RKPtmSZLxX0vvQzxkY+SC3v/6xlpeHXndDkbq7lmLpdZQWnk51DEbHYvIlB1cKdNTaMdFKoYWDU4qQDQ19BRyhoOPN03aeAAAgAElEQVRRBvs+wamn/4yNotJaI23raSVgBUJaR+bw7ZruAsF4EKT1IBz+BJhxv1T9ikKXR7bbpVFV7LznEfbs/CQnvPkmNrVwy6Opf3D2lYtp67qInqUX0nb8Asb6NKMjEV7JwRMSEbc2Z4MaV0QlcGZL3H5JYZ+DyGqinv3seuwKOo7/LlfN6m250Jpxk3ZmdMgKhJkxjk/shRUI/2dMbS2GaT3N1T5N21yXTI9P5NbZ+us+tj/6DVa84Rt8R7SmMuFEcSSHMz59BqV5f8G8U0+la4XLwF5NzQQFlsQBgdBa9OEgxD0Kd76Dv8+jfW+Ek4P6omEeuf17+MWvcebpm9lovAr2sAR+m4AVCDNvRliBMGMEgmdKa2uIBJ6M0WTRGYfOnjpd9YUMDPQxNBrjLlKQ9xivNJBjGkf97vvad353BUGzNz82eYB/xzE4JMl11MnmfFw/R64IGWnqCzjU4xgnEjihSQCkqStFPV9H7Ze4cUTsa1ToIaROinsp4SDjyb+IYg+8wKRHEMTditDpRW+9meUr/pPn5+/i/BaUhDaVG9E51v7Pm5m96A14bjtuLFGxIhISTEXLUJjCqS09dGwyNzpgGAJZN8I1uyv8GpVH9yPn/RtnLPmefqcYNxETLbXVNp46AlYgpG5IjtggKxBmjEDIJFV+oOHgixjh+uiCpNhVodBbp3/vjfTu3UVhCYisR39fiBwB9ykqCfvGk/I7DpPdLzIb9H/H4cYKN+ugVQHXK5DpyJArdgBlqrqAE8/GzxaQBUWtUURmA9RYgKpIIlfgeAptBII5TFmCYPLPnDgPTkUjAoHqBFUeQm5+hIWzvsaaOdexXkx9ymDjQbiR2fztze9h1vEvxg1ziHEHhCLyJSKvkr62WiBgxOKBsTUxERlPIWIPkQmo7xLUClfhr7x8w1cu2bUxLdtGj/gRaC/QLAKTv1mb1bK9ztEkMF3zICTixsYgHJwaRiA0gJqHI2LcAoicg3ZqjN9yD2FwGdGWe2i7QDEbuOfu3z+nZpuTftexH/Y/xf9abX4zB+SYJAgdPLL0j81jdHgOQc9clLsK3DVkO4pksx0UCi4qrlMf8wgdF+mHSEeBccmbT9jD2Pb3RIEQdYEoRMhHI7r8K+joupyNs6Y+yE5rl7/uP5d7d72f0rwVOHXncYGgMwJ1oKZ6qwWCjhwcbwK6UA6ea4RWBjdXJxyU7Bu9iZr6/Lp3nHf7pvWtNvZoPhLttQ+HgBUIh0Mt/b+xAuG3xmi6xiC4AmKNaDg4KLyCRucdYhVRufsWnMbf8p8v2jzlAWZvu81j2wM+85fkCYo9bOt7FtnsiZTdZ9KWW4HICiIUsSMTp7X0DiwrmP6YggSTPJ4oEOIOiS4pxBafYvUruMVP8oXVU19T4Hu35bmWixkqv41MewnGHWRNJGOhshojEowYavU7V8cS6QfJUo+rTX2IGIIsjh8hA9jb9xhj9Ss4b+13uERUJzky9vQZTsAKhJk5wFYgzBiBoBQyFJiPcDcPuiTQQuDsv42y/jCfWvFwS6sbai35o+EyztAi1I4/IKsvRJSW4uQcVE6hYwfhKKQTozwJ9ck/cw4KBNmQRJ0C0W48CC5y//fwC5fyb2funnIGn/z5LO5ufADnxJcTmsJLFQfHLAeZgkw5nfRVRLrlAsHY48iIqJHBdzReNkJqDxVJclnoHRlhfPy/WXLcv/DPXbtm5uPQ9upwCUz+Zj3cluzvppzANKzmaJcYfmuWHFhikErjRBKRlch2hZNVeHvupRB9kEuXPzTlL8cn2Kg3ILkEITZpuKexjO3bn49q/BHSO25CEJjDUYmN2ngQjiAG4XGB0BHgbRdE2+8kl/80q8+9k3cLsxYzNYfWDh/6xsk81vYximtPoTISIesCJ44wakHlFdqXibek1R4Eo1gS9pHEc8y+C4nrGhUjKZZd+qpV9m6/i474M5x43i/0JcLIz8l7eaaGvG1liglYgTDFwKeyuZUrr/Yf8M84neNH/x+dC6ZDuWebKOm3Jog/EZgnYxCRg/RcZFeIn6ujd91JvbqRK09+eMqXGJ40iXUS0Y8QN2qf7w2fyODgq6lXn42Tm43juckOhzgWaA+cw8gLEOdMkKKJXxDodoHsCHD3acJHH0XIz3HKyhv5f3PGp+zeumFrlu/cuZahzr+heNYSRvYFiRAQcYxQEpXRKF8gzXLKZHcxGO+QY17rZveByZh+IHO6qc96OO9t8xsxIRIcIRCRRyYbomLjQfAZUCH7N++kNP5ZPnTBd/UaEVmBMGUzKfUNWYGQ+iE6fAPXrr3BvXFg6SmsGP0gnfNPY9Q8xMbgQPzU5K8sNUILXC2TbWsSF8eNibTLnrGv8WDhUnYsPtL1YHG1Rq5//X+sOeZTLcuMSNzWTmhiEEBkJHFeQr7G4NZfEcUf5drVj7RaIPz2PFrjsepNz6KteDEnvvBc/PYuxnpD6o06UrhJdsFJH2YXhJJIM/9iB88IJwnh8GNEe/8Dr+sarnzm1NQUMGLoQ7fNYcB9FVH7Rci2ObA7Is45BGb3gg8i1MhGEj6COriD48mdNrEKJj7AUejQRQuN60e4WRe/6BIFEboRE43LpDy0ECauQ6OTfAUCrQRmJ4V58ZttpObfJ3tE/RpOEkTRMMVdm3j1oit4Uan16asn2w97/lEjMPlJddRMsRduNoF16652Nm0960SWjHyEjvnPmiYCwaRatsWazGSYlgIByfPuWIiz71UsPnU9frvJLhgQNEIcxzu85ZCnFAhDqP1Xk8l/iSvOeqp9GM29rdatc+h6z4nUs+/A7Xo+KpdF9kaovCQ0CSK8JwgEpTEpCH7nYdz+pvyzMi95SIIJvYhYhzRqAldKXHOt2EVERgxEOGWV5DRQkYNJW5HsDjGHEQryMPJLmC+G4xyI64hHf8mizGVcuvre5gKzV5vOBKxAmM6j97S2a8GabSewZPQSOheeMV0Eglk15aX/upp6m6nmOPeYreY4PQUCXKLz3H3H8+jofh9+2wrGBwOCQOFkPISerM/dKKWn8iAo1N7vUSp/is+fsfNpb4dmnHD2p3MsWPUCCj1/gdu9nDgKUaMhKitROUHsgxtqTBVl493XTyUQjDFiYs1AuDFx3ceoiTCq0QhCiiWXQslB+JK45qIDRSxCYiWT84zHQRhvgnmEH4b3wLQbmaJSs1wcpahs6cPJXMofn3YtdrtjM2bKjLiGFQgzYhifqhNacPqeFSwZvISO+WdOG4FguvOSf11O0PmPLDj7JCsQptMSQ7JWLnhH3zJq/R8nWzqbWrVObNbACw6qMfkv3acSCNEwRHu/Tz5zKZeft2NKbuVzvjCLrmUX07X4DeQ6SlSH/n/23gNOr6rO/3+fW586fSY9pAAJHSEuig3ssCLKivxcXdfVFday/mz7X9tuYF07iuIKoiLYWCU/GyioIKCogCDSJYX0On2e/jy3nP/re58JBkyZO5nJzMR7Ql5DknNP+Z5z7/mcb/l8A8KqRqcUOkNEDmU1QEliJNEM7BMgyK0/iLQHwlPgN2zCho3hBigxLWmnacKzxeygIwfDoT4hhArEwEAoZr7QIPDFTBFBkdjz98KQvGPiuCFDuxoMNq7kuFO/ymVTmN8i9iSSByZTAglAmEzpTnnbMxggnHX5UoLZlzL/2ScmAGGGAQTZ9+/XPfQ+9llSuTOp1bzIfp7KW9Rr40hvuA8NwiEHCCsNTjlmGfMWvpXZR70S11VUNodUKgZBThOmQdmj/AcVsMVEIJEbe7cxjB7qTfOAIVTaAqIyNQy3Sr2vSnnAi5QMmRYLU3VTb7RHnBKG60V4QEVQYTRKQTQLMYvhKHKegWlpBho+Wws3ovKf41dLt47PFBSz/6T6tJdAAhCm/RIdzAATgNCU3gwlSpqpJgYR+ft0F72PfIp0y4to1HTkzJ9uNShXJs7EcKgBwqkX2hSPPY1lz38T85a+FMvyKK4NqNUtwlyIzuqI51o3wKxpLEvtFyBE4YdaRf4HpttA6wAd7sLI3Iun7mZwYANeP7S1d1Pe8izaF78C0+pqRiWIw+YeDovj+kykobVgYCmLkbzH2h0PMrj1Mr59zu9YocZBeTmuQSQPTWMJJABhGi/OwQ8tAQgJQDj4XTSuFt6hO+lf/TFSLS+jUQkjR7t0zqDWiG9ikPA8KfLDwMC2wHQ8akMutfovaGv9GFcesX5c44zz0IX3tbK9+Cbc9nNJty/EcSQ5k6ZRapoStOSakCDBUMI5iSItIh+BvZTqcEDnQgelDAY2+oRehe4FDpa9mlrjmzndevv7FuYGLonmTYpVFy9i7ilvJ996Ft3LbQwHCgUPzxMyKhvHiS/XouvTNWyTtm2K3bCpfw3epq/wlhf9lLdIuFNS/tolkACEw3oHJAAhAQhTtMHfWOik2vdR7NxZeNUgIhJKpwy8fWSN3N8wbZphtRFAUCbCv2Sna5QGslTsW8l1fJSvtTwx6WrxC7ctpNC3Em08NwpfdDIOTrtBYyTYi6NgxGa6z2mN7PKZd0wa01H0PtygPlxhzvEOLW2/oTzypVNP3v7QHy5a4UUaBoEIPT0ZjvzwBXTMfzNLzpiHkbbo39WgWg9QpklKwEnMMmz6tJcssq5NpUPRV91Cfe0qTn/B9/hvtk+6PGMON6l+6CWQAIRDL/ND2GMCEBKAcAi3255dHXYAQRu87tHTUcEHMdLHUBPWREuRzluEtTA2QKgNB7QusHHTUNzqUxkIyHWE5Od8k6D/ar68tO/JKIcm34HBmTceT1a/mQV/82KMlhaGdzao1nQEvMZTKiqkJTRwbBsvF9A/UqKx/kGOP+6LnDPrvilJoz2eeSTPTJoEEoAwaaKdDg0nACEBCFO0Dw83gPB+nWXdb86jpfNt2Pl5lMp1CSLAdp1m6OZfhBruX4PgVzXpFhM3owlqmtIAhJUR3FlfYHjgem5c8ZTEScJWqd66voe+1X9Px7I34rZ2MiIEVCFk2zW6Fh8keB6kUzripwhNj/KIT6VviJbZn8O1buDaxbUp2j1Jt9NEAglAmCYLMTnDSABCAhAmZ2cdsNXDCSDIDf51T8ynuvGf6Fn2GuxcO0N9dRpBgJWysSTUICZAiHwVvBA3A+msTb3gM7hxHWbmMjaoW/nDir90Elypczz063PJd78dOzefYtEjMCQ6xBhXjgu7aqA7JXrCxChpwlKdeujjd3yVEf9abl06csB1Tioc1hJIAMJhvbwJQEgAwhRt8MMJIJxxhkXXv78AX7+bBc86DpVyGNxeo1j1sVMmrjhFxAQIZsqkMVTHtm3a56fRupdNd/+CuncNP7/rT3DJXzodXq9Nfvj435ByPgjqREq1JkDIZCz0OKJHs2WT+rwAX3w7NllkGxW82Yph62cMVL5I9/0bWPXacUSdTNGeS7qdcAkkAGHCRTqdGkwAQgIQpmg/Hk4AYf78NMd95s2k2t/Dkc/LoJ2Q3i11RkoeqYzCsazYACHVYlPcXsYyU8xaksNOreHR27/NcPFH/Pbc7ftctX8dXkp5ZCVB8Bzq5QDfDXGcFCqMH8XQVrSpLAyoWT7q4TStRhGWGGzXD9Jf+CxvHPkD4iiZlL9aCSQA4bBe+gQgJABhijb44QIQJLXzLfUlfLP0HnZufTnZIyoonSatwR00sQKojiPEsGqFdAYWmXaDQotiw5p1WL2X8snn3c4K9RT/gz1XsKvrx/n+uf3/yrJnvJWjT9QM9LtsfbyM3aaxbJdchxCVm+iapl7yQZJHCXnT3oo1mvBJ3BdCk3QqwDRrjAw8SmHwezx/2c/5QEdiZpiiV2g6dJsAhOmwCpM2hgQgJABh0jbX/hs+XADCBp3ips0ruLPyXkYqp5E5YgQjSGGhcQsmkiOpbse/vdfMgDZtk2pTFJRi84a7yFQ+yUedR1ix71v7okW3pzZ2bHsNS4/7FxYfO4/hok3/41V0LsR2HLIdwr9gosuaetlvJo/aH0CQCNLIh8Ik5QgvY0B5cAfD/bewYPH/8pV560YJmaZoIyXdTqUEEoAwldKf9L4TgJAAhEnfZHvv4HABCJfpNjb/8eWs553o8EhyC4cJfQdJfyDcDlHa5d1ZFWPIWsIkM7ZDqlVRrIQUdq6i07qUb57Yt3/+getNnuusYO7CtzF3+QuoVC16Vzcg5+OkbbItJqYNYVlTLTdzPewTIEjqbaWjNNqGNrANI/pzqRhQKD1EJnctq5bdjFKSAyIpf4USSADCYb3oCUBIAMIUbfDDASBI9MK/1RZR2Hwhw/75KDtNKlPBa1gR1XGEEoTIaBwOgn7Vw+50MdOK0tYyavhKFi39OpfOLu9/xVYavOqcxaTNC+mc/xo8y6J/U4DveKTSFuLbYFk60iBUi6MAYR/5ICTdtOSBMEWLgMIwTAwjxDM0xdpmatuu503P/TbnU0hIk6boPZribhOAMMULMLndJwAhAQiTu8P22frhABDO1ybZbc9E8xGU+QxMo4EqK+pVCO2QRipAGQq7EZ+DoNbrYS22MdIh/roNdO38HK9N38KZZx4AbWjFB2ijd/V52Pk3YrR2M7glS1XXcbImmZyDKT4R9ZDaUNjUIIimYC8lDCQTZIhQWUuVCCCoEN0SMlwtMHT/7czuuILvnCZmhvjZIqdo6yXdTpwEEoAwcbKchi0lACEBCFO0LQ8HgHDqfTbd/kvIzf4vumd1Y+gGjS1ZdMOj7gZU8wHaVKRK8QFCdauPOt4gtKpYj/+SY7dewcWvXjumg/h2bfH91SfjZV6H2f03DG9eRElXcXMG6XQK0w0QBqXacBilgtgnQPAMDDsQQsgISFiheDRqzHafYghbf7uZxq7PctdbbkKpJNxxil6lqew2AQhTKf1J7zsBCAlAmPRNtvcOXr21E7N4CW7mFXiej+EbZFoN6tX4Dn2mXG/F5i/2cm1EWRLNjE9lJEW1eAvp2R/l2p71YzpcxyoOiQX45KY2ft93AWbnu2nvdDA9Ta3fBe0R2AENW+FbkKqN7Tsq6nxR68sh7O3QGMeYNMIBgo3f4bRN3+SD5w1GCZwPVMT0cdH6BVSsV5Nr+TtUfSl9hTJmzsRMO9gpH4oaf0TEplGSzXRvGoRQzAphU3sgGSIDJwIUVs6ngUn/n0pUt3+VV7zuKt6rqgcaVvLvh58ExraxD795/5XMKAEICUCYoq3+ons66TRWYqfPJbA8TNMiN0dR6h3HTdQF6gojDDF9hZFWkDGpVSxqa35GqvW/ue5vJjSb40q90rjks+9fzsODb6WWfSlWMUVYczBT9eiQN8yA0DPRSjX9EfZ5AOuofmTrt3yCwIyAjFE1UF02pdJ6SnyO/kU36fuUL/yKY1qx1w+0UCi+hFnBe5nbfSQbtxfx0hY6r1FWiC4aWIWmn4Tehw/CvjoylIGpFd5wg3rxJ8w/9tNc1rVzQgHYmCaZVJpqCSQAYapXYFL7TwBCAhAmdYPtu/FzVneRL/4XZv5sPO2jlEnLLIPS4PgBgpABWaMAwcgbVMoW9bU3Y3R+jFUnbZjQmQpr4Z1rTqdg/SNe67NhKEvYMKM001HyJCuEIMo/vc+UzlE9M4yAhIAIARXNxEsa5ZuYGYNS+QEaxke5Ycn9oMauXVmpLR7fdhz50kfobHsu20Yq6JQiTOkmaKkamLUQHTlTxvvOi8OiCQRVTWPgHtoWfZa3LniQFSohTZrQTTb9G4u3cab/fJIRPkUCCUBIAMIUvRKvXteDO/IJUu0vJAh8Qm2S7jSojoz9EHxy6I6GhoHha0xRi2fAyClqFZPaupvJzfo41x6zcUJnevlal7t3XoCadT5G9kiCcgatdWSzD30DiQhEj0YyRIr5fRRDNwGCYAnLfxIgGNrGdBpUineQ1h8b1/j/YV0PavBDZDpeTVEIGYSPQYYSGoRaYYZhZGKIIi3iFDHnmBpH21R2rcPNX8nyY3/BB1RCmhRHjIdB3Zgb5zCY8V/VFBKAkACEKdrw52+ZFzEDZmY/K6IElsyBTptBWB/HgHYDBE8u2QorqyOAUK0ZeOt+ijvvE3xr6eZxNLzvRy7e2cOabf+B2/ESQsvCrzUd+kQDIL8jkCCe/RLquB+AIKaFwLOa0QRW0DQ3qBAjY2GEA5jeD2lt/RKXtQ7GHv+/39fK5sLbUR1vRHcIeVOA9lUESLA1KhWCXPpF0xGjhALEFGRbbcLSdorF68h1/oB587ZzSQwtR4wuk6rTUwLxNs70nEMyqn1KIAEICUCYgtdD1PM3bDieRu9naDviaEpFH79GlHUwGJuJ/SmjVukQXTVRnooAgp3RqBZNo67wN/wUq+dTEwoQtDY4/65nke78MNm2k6lV63ihEAr5BL4T+RM8CRBkpKKPP5AGwRBnwRAdNCMe7E4DK3yYFu9qXtJzE2er+MjpprUu197/Cipz30R26VHYvhWFYeKbhLmQIA1GA1RMngbfk+gHg475FlZYpG/1fQT1q9Gn382qhDRpCt6oKesyAQhTJvpD0XECEBKAcCj22dP6uFy73LX5+XjbPk77kh5Kwx6NKqTa1V6SGh14gLsBAp6KoiHsXIjRGjYBwibRIHyKa+ZtOXBDY6qhuHytw6o738ySM/+BdOtiqgNVIs8Jy8evpzBtnzAQ7gDdjA/ch5NipFmQyIXAiKwRhjgP+k00Yc3WOP4vyRe+fP7n7v7jKjWOrIn6epPXBc9gYPYb6Dj+DOxaDlVQ4BmEbSFBXnwRFEYjHirzayGhspi9xCBnh2z8Q5XS4GX4S76rbzqqOGZHyjGJO6k0nSWQAITpvDoHPbYEIMxsgJBR0a3ZCjSWOJ7ZJrRofN+juOYulP4vvvc3a6OwuWlTtOKa8ix+eesrqKX+mfyJswhTBn7RJyjqyDEvdpHpiXndCgnrYrv3sVIehX6XQvEG8rnP8IOTtsZudm8PiPngZrr46v3vRqVfTDbXSTrtUCmL/8BoRMKT8t79/dy7/GtaNP0+VtUkFSrMlAVtBlZbjcFNHoXBr1Hj2/zyWbvGNXYZ66qdXXzpkTfR1vaPLDiyHTOt6d8e4lXqZNptxAshqMfbH35FR2aUdHdIraqwUiGu9RMa7pdZml+bmBnGtVoz8qEEIMzIZRvroBOAMLMBQlZugwpbAIKhMGwDnQff8yg+/juU+ui0AwgXXmWTecUJbH7oNejcWeSPacM0BSAENIY1Vm4c35zRwIcIINRsDNuPIgLK5Srl2nfptq/mWyf1jvWt2G+9lbdbeM85njVPvAeME0hZLZEtvlzx0eJfGe45/v0DBN/QBH5IumLghBK1YKLbwOz0GXh4iOHiZXjtP+SO40vjGrsc4g+R4b2/fRV591+ZvWw+qbxiYINPvdAg02VHTop+XA1CWTQjYLVCuaLJdIQ45h+ola5g54K7uCOuzWJcs0semgYSGMfLOg1GnQxhjBJIAEICEMa4VSaimvgefP5j85n1yvPwvHMxs/PJ9AhDn4kuarwhhdUW7zYbjUsAgqmj8MBQ8iCIqj5Q+OpxCrWvMte+ha8vL07EFPiHB7NUGm/C7XgzPllMbZFpMSOCJzETxAEIgQCEhsINwfAVtqsgHQUZUNu8Fs/8GGrFnaw6CJZC8Zd48aOnkq99mK6Fp5LpUIxs9qgXPZxOpym+RrzIkVAAhQm+A5VKQMdsA6s2RKn362B+i1XjBDQTskBJI4dSAglAOJTSPuR9JQAhAQiHaNPJQfW233Xx0B+fTdfpF6BanxmZRKxMgFM3UTUwqwZBJt5htSdAEDNDZPOXQ6/mYuZ/w0Dqi4tOK9+38ZLFtYOeqdzI3/HEfHZu+wjtJ76YWknhV0MyOfA8iV6IBxAE1ITawDR9tCc/Q8KGga5VCIduwuz4Kt8+ft1Bj/tvdy4htesDZHMvIdNpMbKjQVDzSc9yomyTcQGCDsByFVWtKQx59Cy2sKsmxQ3fZ/CRT/PLt47PJHLQE00aONQSSADCoZb4Ie0vAQgJQDgEG05Ie8qlDnY98QxKI2eSmvU8VH4ODS/Al8MmNHBRpC2DaqSnj1lCIRySED4jcvSTGP9GMUdu/g0Ucp8/9aUPr/nDRSsOnsTneu1w62PPoNz4IK0nnkCh36Q+7JGxwY+ID+IBBEmjHJomKt0g9BQEPn6vjVnbRod9JfOP+jkfbBuKKYy/rH5WsZv0ln/B8s8n39PCcK+Hbmjy8+wmQKjHlLlSOBlFpRow1Ocx+ygXlzQjT9xO3z0Xc9vb1iSsige9ajOigQQgzIhlGu8gE4CQAITx7p2xPKcVb8Klv7AAd/A4Wsznk287HbM8i0YdCiWfoqirXUXGtaObeLUS87CSM1lu344fAQRl+ZEWoTbYTtcxX6ae+gJfp39CDqzX39RCRb2Y1iP/hfYjlzNcCCht97EtcRAd/VbG8EGwTUVgKfysH2kOwnqDxmaXrPoTp5z8cc7ddi9HHRU/vPHpS3OOzuA88gqC2j/S1nUUpX4V+Uvkj7Cin754S8Yo4utiZQ0KpRoj231mL8rSns8w8PjDbPrZJ/jwh37NWTQmROYxhpVUPfQSSADCoZf5IewxAQgzGyBkiELW/hzFYECWKIqhtOE+8vnPdp/S/pjdtzncPvJrzda7YP58YMFB7rE9IgZbX6jILlRk5iisosnAaocdgy47Q5uNqVaC1HxCvYLZi49gyZFL6LaX4O2wGalUKJdCikGIzoGbccjkoVaIDxC08BlrX67x2Gk/YjEs7mpn1omX0jv0JVb1jM/J76lSUpx30zwq5X9g1snnkV80l3KlRnFXEDkYKskHEbEUjt1J0ZK8TigCF+qeAY0G5XU2+cydnHfMxSsvaN1wMUqIkeMd4E9f3Qu1zdDjp1MffCv5nlPxKw5hqMnPNghDhRczikEAgpMxKVUqDGwNmLUwR2d7ipFNG/nTqv/hrHf8iIs7iglAOMjXbAY8ngCEGbBI4x9iAhBmNEAQ/v6IuW83E+OKSl0AACAASURBVJ6E1Yva2g8xdB8tPQ+CuYXBbT7Da0PKfT6ZrIFrxgwltEcdAeXs1gqjLgkLRSUOxmxItRi0zDbJplJYZh6MVqpkGAly+I08OshhRCkBbRQu4o8wkcWd5VDcVsHrt2ibC52zPYbW10n3fIYvdX0PaBx0d5JC+Vaexbr178ELjsbSKUlxiG2K1gLELh/3HNdtmqDs4+5y6enM4Mwts/qJAlvMb/D7ZVcB5YMetzQg8v7Qg0fyaP9FtCw+l/xiB78aUHgiQNkaKy0QZDcHhXzzhZRB75uTYndYqQGWrKVSuLJH1AA7HryNypyrufXUP03I2JNGprUEEoAwrZfnYAeXAIQZDRCIPs5hxNzXZPNtsvEpwyRUaVSqSsP2qTSgEWg8FWKLOj7uvhk9M5qHjcLc47wtDgc4gbD+GbihQUabOAIGbI3X2qwfcf1LAiLVBDTycyKLAITC1iq6pGnptHHdCqWd99O17Mt8PnP3KLo5uB6v7svzkHMOvb3vJFAdUVppSTAVAR9bR+GmcYsABK8Qkh62aG9PYWWqbNz2IIMLvsztnb8EYlIc7mMAIvMPbevg0cffRHrum2ld2kpQDSht9VCmxso06aGfqv3Y92zEbyFKKGWEEUAwlIrCbIUne2D9auoLP8dPjrwTDiL6Iq4sk/pTIoH4m35Khpl0Oj4JJABhZgMEGf3oTS+i6JXbveNhOCE6bUa0w2ZoYoQaW6iAfdXEEQfzWgfy3W/asKX4ZR/hRxYCQF/U64ZYPQKMtKQRttitHpccA3/ueGIBgtNhUdjZQHke2UwK6kOE9W+y7ORVfERtj3+138vb9N/rFrDOfxNBcAFh2olEqLEJCAnNEDuIDbtQrZrqCGRLivZWh8CrMTD0A9TRX+W6VolemDg5/etal3VrzyI17520LTwSIzSp99WbCSfteBqdpwIEE1NpLAtC36Tc7zHc8kl25a/jD3Mr4/suJU/NFAkczJdkpszxr3icCUCY0QAh9KwmIIg4/M0o6Y+ABN8PKVQauFrhhDq60buSHVAOsUBH0YBxiigq5Hw35UIrsXy71ekBtHWk8U2P0AyoaI2noRrdLsFyVDS2MFJwNLUI0Vgn7tyLppFqNRkZbGCGAa6TIixtwc5dynmLbuEcdfCHlNyu/3nLcVSGLyRrno2WG7cZUvNMPPGhcHTTDyGOUAUupaFaAqcW0tZm4xfKEHyNZYu+yftb+mO2tv/qK7XBA3cuJ0i9gbaFL8Vxe2iMNJqmopjpngUg7GauNAIL2wxxJfGTuMTU8+zsu4p1Wz/P4+cNTOgcksamnQTibvlpN4FkQPuTQAIQZjZAkNTGkuRH+Pwlha9oEYQsyNcU+jVGa4DV7WO0K3xbDjCFid53aoCxvC2h2KZHL7caso6LITfdAMKiRg9qqMiZowk6mtkNVZTd0GxmKjTDibwYRyM2clAfCFD4uG6B0L+LRUd9iY+ybkLMGafeZzO3/WXkvbfQbpxEYFt4yqMaKKp+SGCH5BBtScziKoJKADVoabGgso327Kd5+YKfc6YQQ0xk0YoL6WT7719D++ILMOwl6KqHXzEjxU6TPiIGcht1xoxcDyTs0dWYtkc238m6R27k4fs/zesvejyhXZ7INZx+bcXe8tNvCsmI9i2BBCDMaIAQDf5p/gHyZ9PUOK4ibNiRWVn49uWg9lVASqvYR5nk7ht1I4jMFchv+U9DOfSax0poYBkayx71U1CKumgaRv0NRvmL4h1CY313UwZBqYGhPezUY6TyP+CU9h9z0QRoD2QIr/xNnhHn3czvPJ/Zbp5qw4m0JqUwoFoHzw5oMcwICMUphqvwah7UDNIZyBgPMLflv2m0PTQpB+tN2uXK+86jbdEbsazjMGo+9XIzg6YRpaXe0zlxj4319Ek1mZYjM5PthKjAwsLEyVXo6uxgzZr7eOiWK2hZcSt3nS5AJwbwiCPApO5USyDehp/q0Sb9x5RAAhBmNEB40uFvt9OfRDSIH4KYFFIKLax8fojyQnRDPugaW5I6xTWXC8iQdnd/6J+0UWgqktlPTNjCBeCCHHqB2RxDKCH8TwKEgzwkpH/5bQYEkrZYcgFkqvjVFFU3wLZq1HdYpOxbWDT/63ys9UHUBDjJSUbET5y1jHse/w/SudNozUo0oo02fXw0XijYKMQWp8UDvX5Rdsc/V6oMe2Q7bLrzLp6/g2rvD+jQ1/CZ43ceqKVx/bvsjZff9gy65r+fls4zMXWdwrCBR9gECDK+3cu0H3ywZ+fC/igbQH4JB0U65VDz19G/+Xrcnh9x/aJdE6LFGdeEk4cmWwIH3PKTPYCk/cmUQAIQZjRAmMytMd3aFnAQ4Ro5kAITJY6Qtk+jnKHepjCtfkrr+nH4f7z8uB/y1txB0/1qibtAp/gPXsTaB98N9mKsTNMZT3wpmtfoMZ6kMvanpX0e3lane0GaIxY4VOoPMbDuSvo23MqN5xy838S+1u+c+7roTH+QXPvfY7s1hocVjX1GlYwB1O0llXU6vwu/8isa/vc4atEjXJIkb5pur9NEjScBCBMlyWnZTgIQEoAwLTfmXw5KlBS7FR+m+Fwoje/ZkU+DO9uluG0TIztuoGvuD1i8ZP2EHUr/ozt5ZOt5DA+/CSM1O+I8iMJL41619wIQCrsCOuZbzJljUhn6PXAZx3Xcy0Xq4Gmh97Wsn9Np1m55G379PTjpkJIfNKNPnixjAAV7Nv40gOA3QvJdAX5xG4WB6xhs/z53LB6eIbssGWZMCSQAIabAZlb1BCAkAGGG7NhIgyC3dSNEAIKYGYQF0EkXMFpr9D36MLXGtznt+Xdz8QT5HgjB0L8NHUvv1ncRZE4Xm0bTQXO85WmHaXkoINujaO8wKW35MbO7v4DbtnlS/A92D1lrk3dsOJty8d/Q2QWIX2sosY4SYRJFOzZNDRFnRWQ7OkB52pxqxYD2+Q7KbzC05gYa6sv8+NlPJGaGA8lxZv57AhBm5rqNcdQJQEgAwhi3ylRXi1gUxNatNKYpSZ7E5i95FwYprF+HYd9MR/dtXHWM2LwP5hT/80xXbkixo3IOXngJxqwcnvYJRPsvKvm/oFQew837aYdpox6SagGjHlIZ+CL57DcmLC31vtZLGBPfs2Y5/fqf8dIvwjSyKKF5jrBB83sfkSZF0Qnx51Tq9ek5ysFxNP2r76S868ucmrqXS86cGNKnqd6HSf9PkUACEA7rDZEAhAQgzJAN/mcTg7D4hWB4aN2Podaz4cY7WPai27hg+VbOnEB79+t+PIv0oregsu8ldUSVcjHAGw4xrIBQbtfRDTsGO+TTAILWGkeiG4cr4Pwn+uibWKUOnhZ6P0sa+VVcU+zit/7fM9i4ADfsjNg1hdtAwMNuwi2JUIn8LA5UnjanoS0+85a75FpM+tdtZNuDX+fIo7/HV1ZMnl/FgYaY/PukSSABCJMm2unQcAIQEoAwHfbhGMYg2gMrigKQ27uPNoZQah257t+z66YbePH5W7kQf2y33jH0J1XO/srRzH7GO0nNfwPu7AKFYUVtKMC0fILQfBIgiKlD+CgOWJ5exwQ79Cj2b6H7hA8zYP+BVRMQeXEggLBVp/h4+dVsL70dtzEP299j7DJGEfM4TQyDm30WHJOircNl17oyG35zPc5Jn+TWFSMHFE9SYcZJIAEIM27J4gw4AQgJQIizXw5BXXeuTVD18EYCvCj1s9D42pA2cTo1riP8DkPs/O1aBh79OWXzNh7q3wSXjOG2G2P839RZ1vAcNvW+nmL/82hps3HcgFpJghtHv4tPMTPsu3HBNEGgMJWBZQZkcx71Qp45sxRbd/Xz4O+uxi9fx4Nv63uSmjrGUGNXlfG/9o8nURr4COm200h3+BiSJluwV2CO5suQZscAep7euw3lAtipgEzKgcrvcfkAXznqidjjTB6Y9hJIAMK0X6KDGWACEBKAcDD7ZxKeNVsNQi8kqAj1jsbOV6PoBT9wIy6GxlAJv/gQVG/BSf2GWfO2ctmC6oSP5CrdxR9Hzmdk4DyqtaW0dQkBlaJWHD0045ydUlfyFURcloqUBV7DoWu2yeZNG1m/5RO0zrmVX5w0MdkbxyKMSwvLeaL0Psr+cwhCF0mmIfxXkiE0YruUMkYA9JT+bE25IDwcPrm0iz+8mnrpYi565u8n1PwzljkmdSZdAglAmHQRT2UHCUBIAMJU7r+99B2dpZbwGhikUiHKahCUbfwShKU+SjsfwOBWunN/4MznbuW1k2CzFye9i+tHsbXv36lUnksjsGntEFpIi1pJRYdorNu1PGoKSRUEnk1KUkSbAU7WYdvGh+jr+RBzFj5wQPNCNC5M7v+Jw66H06iMhS8hl12jgtxP+obMQgi3q4gGO5OBk848laD1IkbUMuqe2fQ9GM3QGLUWkxVy91LqlKYypEg7Pq0tLrWBfgb7vsSS5/+Az6sk3HGavW4HO5wEIBysBKf18wlASADCNNugjWpIOm/iZJs5HCr9JrVBD7O+mmzqTsz671k+54+cevTwpN1IJbzxPdtOo9i4mIaxnEo5JJPVEWipV3fTEken6NikJwBB4IWwS/oWjjKxcxWqIyl6+3/K4HP/k3vU/omdBBzcgcv3R+Yw/Ngy6rVjsds7UTkFGYXpinYlFPeMvyiiD6gLqBnU2EOKjKj/uxdjpp9JReci2mhJGy5+FOJPITwP4qQ4piiGp/XmpUO8QUXO1nR0OZSGimzffh3eqd/i1syWsctsbJJNak2tBBKAMLXyn+TeE4CQAIRJ3mJxm69XA7J5C8v0qRV3MLJ5G9X+Lbj8kVOOuY/nzdnO766s6osv0UJzGLf5MdWX8MadtbPRre9Dp+cyuB1cS5IRGVFei2YZe9/ab6bBtiK6amGltrCzJQpbyoykvswjJ3yLjQdIziSg5dODc9kSPAfDeAGBcQp265woUVJkulDg62Cvowq0ptTwMAoKRkzMQGOkQ0LLotJQhAIOzODJhFqiSTBtP/pz3FLLheh+TTa06JlvUw/K/OnRXzMy/6vct+R+MRbFbTKpP30lkACE6bs2EzCyBCAkAGECttFENiGZKFNpE9PehvauoTH4S7bXClQ2VXjpo3UumWBnxL2N/fL7u7mneiEtx7wOP52nsNFHoidV2sCwxmGfFywRNjUI4qRoIDkQKwxtvY/sks/zjTl/jG7w+ytaW7zrwVMYVq/F7XgOptOCKfmiQyvKryGkRo3dY3taQ2ItEMdES/vNnBxaU/Z9yjrEVmYzeZeEOe7JfxDlZYj//a9kNRR8cpU0c+aZBB0NHv5jge3qCzxyynejeSflsJFA/A1y2Ez9r2EiCUCY0QBBB5rAEHu2xpLESHI5y4DvQFAPMCviNS9/J0mFDIzGaP6AfaQV2s2LI7dSHZqYaa/pVW84mI4m8BWB6LC9US4CmimmxZ7evFT/+XvxZCKpmO+RX1GkW8BObySV+hLLcz/j7ZTHpe6O2XVzClpxyZplPNr7L+SPfAlk8lSHGqi6inwjonwKu6c5Rie+KBOmpNmua9J5jeu6FAeL9D92AwuXXsEVx299MqnVvsa8YUOKjzfOp1B6A6SXYFoQFmwMbWD4OmKX9DNRR39RlCTvyhlCQkkYisOnokqNhhHgGCYORhRlEYVqjgKDMYduPq03LwuUAjJVl9YWA3IhG3tDhqo/ovGzz/Oy2uZDAvLGs/bJM7ElkACE2CKbSQ8kAGFGAwS/GuBlTKxUSLpfYY4ogjmKao+B9qo4m1NkLAjmBNQkbn/Yx4yy7u19k6qgGcBn2oogcEm1VyNSooAMRotHrWAQ1DyCooVpe1Fbnm+B1eQfiKh5dzv5awERY1fD7x5RdTgk121g2oOEjR9iqe/xxNc2csclh0Y1fbu2uG7gDHZu+D+kuk7FzbU2z9yiIox4luN9E0UCgQ22ZH7sDWib7dLanWbTms088dOv8MzjVnHlK4YO+NX4pG7l8V0fIKy9OtJkBJ5DWNdoFeI1JIQyxLLE0fCATU1qBcnmaTZAeQG66iA7LjWrQKmwGT34Wf7utDsmxbF0UieVNL4vCUzxbksWZnIlkACEGQ8QgryBkwpxeg3MEZNgjoZ5JrahMLZZGDWNN8vHN8AcEgBgizP+Xotu6EgVbTsBaAflCCmQploLKdcraF/ummGkKZAbrGguBASIFqGpMdjd7J9vonE3cC0IyLRaGEGVWu9vGdx4I4Xee1jY2s+q145qKuI2GqP+VTrDrwfewsi688h1z8ZOSw5rCCvCEaAxzHjfRHH2kwABCdmsD4R0LLDJ5HL0rn+Infd+iuNn38EXzxb1z77LSm3weGkZ1paVWNnTIVWPnB0FIIhPhOc1258OAAHbwA5CkMjThok2FWZHlbq3EX/gGloX3cxXOhLSpBhbcjpXjfcyTOeZJGPbiwQSgDCjAYJRh6BFYVgae6eBWVLYiwL8uQFeOcTZ/jj1XTspGgF+WqGK4mwXgr33m31YUZgmKCfE1DakwDFhZMhheLAN0+gh3ZMjP9sCnY683Q23QVh3ojA5ZQmwGOXxN4KxJft52rYsWYpcTuH6dcq7NrDrkQcI2m7h+JffzxUMj0srMdZ3X0DOWwfnMVD4L3TfGeTaNFaqyQcg1pkg1JEfQdyiDHEg1IzsCulcaJKxcpQ230F510c5+fePHlDl/h6dZtPdLyGVfS/priV4Zj0yAUUAQUwGjablw3L2bmKIO96Dqa8ss+nrULIwhaHRDVGZEN/ZQnXLLfiN7/CD0zcf0KRyMGNInj1kEoj/MhyyoSUdHbwEEoAwswFC1SBsl/A7jd0PVsFCz9XUOmr0rVvD3OArmH33sVEFlIDcgXh4pJKUHKTkpjwLWhoGI0ErteJCjNRRWOr5tCxYjnJa8MIQ19aEnqgT5Ha9GxQ0swPGcPR/ci9X00q6x/E1XqHOwPZ+Gl0/o+u4Wzhq+DEu7p4cfwQBB1tJ8eaHTifb8iGs8pFk0wGuqZDsCEU/iPJNp6JUzzGKPCZuG7ZmaCQk26noSJnU+3+M3biMq59x4MPyHbqTLbe+ltbZ/0R6Xg/VepNhMhSAGCgCP8QI1bQBCGYYQMnEDEO0I79NzLYRvN5tFDd/iiH7t9yRJG+KsYmmbdUEIEzbpZmIgSUAYUYDBLNmoDtCTFuTGpDEhi5ep0W1p8D2P97JUvdSvvqsxw/61n2+NukmTQcLeOyev8dtOQvcHkKnjtGwMA0xTUjZ7fm++7sR3weh4YRkGiapivjWayqqRr1jNb66BWP9TRz77I1cMoEJmXa/RgIQvkQH377tPLqOeSu5xizyoUZSI9Tl9u/6CGZKxQz9k6GaNUU9HTJQDkh3QEeql1ThG8zqXMUl7fsnD5LwxjesW87Q6nfRs+wFZOe6DA9YETVy2NDTDiCID4I4dBpVwVMh2tJ4ysXpqWCUfHY9cClu9npWnbkbjU7EhyxpY4okkACEKRL8oek2AQgzGiDILTtoMTCVhTMYYg7Z+LMUte4CvY/cw0Ln41x16uqDBgjR0a8V68jzmaFX0Kj9HfXaCYSpEKOSijQH4n8QRTSI5kD03WP08H/6Rq8HmlzJJF2xcfI+usejmjfo3XgfO+76BplX/oo7eib+cJH5/V8WcOfNb2HRs15FXreQLSjCmqIShozkvMivI+XF4wYQgGBVFNVsQF/VI91uMCv/AG18hRNaf8s/HYD/QJwmr7z7DAq7Psa8k+eS7vAYGnAwHC8yMQShItA+hm9MCw2CkdIgNNlegBlqQsOgoVzSsysR8Nt09zXoTV/jGe/cySUTlJb70Hwsk172IoEEIBzW2yIBCDMaIJg2GJIEKDCQSENlmAR5hc5UGdhwD2bjo3z/1NUTZu+V2+w7f9/OmnXn4C58PbNOPpqUMgk8D68sfg9yZwwxTQMzFVJvjOP7IQCjZkVAQ0wn2CGhUthWmUzuHvyBVVy56DaU8ib01bxcu9y/+aX4jXdiZuajGpkorFMoBT0dRHjHUOKjEW9OQl1UCzTzAoeU7dCfUgzUVmF0f/H8N/xs3arXHsDxcq12efs33kluwdvpOcEAw6IypKOU074OCSRVM+L7AZY99VEMURRFKBknRoFiBC4NDCfEdTwGNvwWK30Fq044MPfDhC5w0thkSCDeyzAZI0janEQJJABhRgOEZkiZxvTMKKGRcg2CjAGZKoMb7sEP/osbTlwzYQBBhHW9Nrnx7qOp5y7A7jmHlNsZARSvqvFqYmrQ2GJ31s14+/EUScpkRsx+VtSOHIbpvItt7mTosRtZesq1nJSSPAwTF9XwgeF2dva+EWW9A8MwCEIjSg4VRPNo9mNIZEhcgKA0DTTzPZu8q9hZH2SH+3XqC7/HL+nd79qIVuNK2rjpuveSXvQ6OpZIpkWTWrlJi+zJDdxX+OKpKAyN0wEg7Lnge6a3VmBadWq9a6laX+WJP/2Cx14r3h1JmcESGN8LPoMn/Nc19AQgJAAh5o6XQ+sGctwyfCqbNp1HKvtczFRbRENsyG2/LsRJHkHVwpD0gDGLcCkYto8hxD+j0RGG65HKmYSqRP/aP1Jv/JhFp/6WqzK9qAkACStvt9icPpq6+8+kOl5DqJvaCXEAjKIExBvf0BhygTfjOSmGEgaqod00cc0RBod+h9d9Ld2zHuCLav/hjfdpm6tXH8O2tf+X7MIXkOl0Ij8P3wtQocKThgXAyCAV0yPMcV8AQQCsERBWa9RK36e+43J+Ogb+h5jbJ6l+aCWQAIRDK+9D3FsCEBKAEHPLRVRKwjZIF3f+4nTMtlfhpo8mN7sDJ28T1E3qpYCwBqlxhAQKABGNgRQJnRTAIEyNVlqjJT9DuY9S3yO0t9zA2Uffzd9fPII6SPrl9/wuzdb+Z2PPfgu5BWfQqDTjBsU8EMoNfRQgKBNMQQkxSpT0CEhlDcJaH9W+H9J5/HfoSm05oA3+Rp3he795PrXa22hddBLaEebKEGX6aN/EE3wgZoZIg6CmNUDQArTCkHTWwh+6l1rhv/l/pz0SEXElZcZKIAEIM3bpxjLwBCAkAGEs+2QvdcR57v+7Yg4tK16K8s6kY+5J5GblCRqaYq9cv33SqXgOfU92MxrOvzs2Qizavuj6U5Dr9qj1FTAGb+PIOat4cddjnB45+sXXVuzu74O3dvJE4RU4iy6g9agTKe4MIg1GEJFAjd7Qx2liEAWHKB28DoPq4Fbcvqs46bSf8EF1YPbEa3Qbd977KgLnH0l3LMVXPnUJH3SDyM4veo4IIIhsprmJIfSgUQ/pOcIlrGyisOmLWO5P+dZJB4q9HecGTR47FBJIAMKhkPKU9ZEAhAQgHMzmO9Xmwl8tZ9vjryFjv4rWee14fkB5q48fhGS7JSlRvCLREJEnQ2A2iZdCFfkCeF6IEA51z3PJ2w2GN26lOPBDOub8iC8esXHckRriQHfxnct5qP/tdB73HFqP7KR3ffPAlSyHksDA95o3dHFSNCQfQ4xi+IqUBUOzNeW+h2mvr+Q7R8nNef/U0aJJ+Y/eJWzf+U6s7Mswc614foXKoIOTkfHpJkBAHBUFvUwTJsU9ZbOHD0LgaRrlgAVHZzHpZev936J37f9yxz9Jmuvxg7sYS5FUnXgJxHsZJr7/pMVJlYBWPHvjMuaPXEz7Ec+kIJywRY0rds1xdiwfeEvIZIwQQztR2thAW2wvfIvHcp9m8xEHvjmNpeuzLl9KMPtS5j/7RFKdNuGgpl4LMZ2mCljUmfLZ8cdiBxfHs0BjNgwMFWCkHFRriN9XobrxuxxjfYpLzpRb6sEXOZDOvPpzzH3OWbTMTUPNpDZcx0o3b9vC1ie/IvvyAcpUOCk+fUhaZ/iHDS+m0f9GWuYehVatVPvrVIZMsgtG1fGjCYBkRtEXZT+fFVGdK0k1LL4IozTOsqe8eh3TCmlv76K7rcrAYMDaex6hPv/rqIdu5o5/Gt/6aG2z8p7nsrrv32hdvozsYkX/E00uam2EaDPA90OU5JkwmhTTey17Ltfo/OSHEBgJ2dLQrICRgXtYlno//9O9/UBLy/nXm+SWrMDgP8nMOxlsk3qtSGnYwU6JPT/Eb0KpKBeDYYaYkoshZtmdvtrcTZUtgCzKu9XMy3FQ5WkAoVL1WHRkDssusul3v2Jk/RXc+qZHJtSJ9qDGmzwcVwIHvUXidpjUP4QSkFvKBzYfy4Zd/0n2mOMIvVaq1RpUFXZMW2vzdANlhSjfxnE8qGcigCB25B3Fa9iqP8sDz9g/McxYp58ABJgGAEFLNoYV7+skveBs2p/xSjqOOpnWHptq0WZ4WyNK6hTla9DNzI+iujcthWQYjFNEla4l7DB6rJmkiLBBvvth1lz1Oc74wINcrEazT465YcU1Q63cF7yNsHYu5cY8tOQ5qMU/aH1hWhSfAEm/7IaIokF7FnbOx3ZdhtZU6F97M+f9w4d5hzowj8NKbbHjEdEcfITQXEwjLGOkjIj6ubHb+X80RbP4OYhfiJggDgwrnyqcYiiprA16Qos2MeX4BiNhSMWqYxn7QkNjFvCTFSOwFBiEysfKGVhWBSP1GbLZ67lMSeKGpMxACcR7iWfgBP+qhywA4d9Ly9m4/j/JHHEy6Cy1Uh1dlRd4HGsvvmWmxvBsbNfDDFwM2yMITHpHvsHmBCBEMeGHkwZBXiA5zNb/YjkF85WkOl5Idt5CDNeiuCuINAFyeMkNN6JfDiWEURwP4716ouRRoYklmSPlZh82HRhNq491N32bhaf/lGuP3xDL6U32/3W7FvOTbf9FJv1MAjtNzZF9G3/v7wYIaDNKsW1IhqfAxM742KmA/rXr8IvXcdHLvsfZB4heEMmccbtFt3c2mZ4PY2bnUKlWMV0bOy22/D00M6KQGc2a2fB3e22MXbaOZZJWBi2i6fAMGmFAwfIoWz6Gim8i2lfPgged0KDi+7jtwqqVJqhcTTp/BVd17Ry3iWjsM01qToIE4r8okzCIIwtZjQAAIABJREFUpMlJkoB8IN9bOpYtWz5CunsFhuXQKNQJq2aTlS1u2RMgZOpYfhMghA2bHUPfYmPlUh5+XmJiONwAguyji4dbWbf2VAr9r8DofiGtCzKEVbHf2yDmAmFyGmVYjLQHMbeXYygcmgRKEUAYTSetKbLl0cdwOn/IkhW3cikDYz5sBNgwcAaPPPEJ2nJd6ExI0QhxgpjoRUxZkZ+CHNYKy1SowEKHCjvto8Iag2t+TVvPlZx98sNj4m+Q0Ms1qbPItH0YKzeHclG8EE3cVolgIPLLEBkquZXvfk/HERGQsmxShuS+CNDCGqlDSq5PxfVxy6NyGE3AJR1GEZXSb8xU3rLkLialho/T6WOFrVS2/hLbvoznHv8gF00w8VXcT1dSf1wSiPkWj6uP5KGpkoB8ZP9x08kUCx8i23MKpmvRGKoTNsYBEPbQbRqhiZupRQBBPuaNmsuOkW+wxfkMD5+YAITDDSDI/hUCpbWVHu665W9ptLyBzLx55BwVHeRR2fNWLhfgmJ8WRxk4ymyGPRrNlNNySFmpEmUfqn2/plH5DvNOv+eA/AK737cLdYaRyhuwNrybFpXBM0NG2nycSnzVuvgpyBwNSZGtTJRvRT4TYlJpjHgMbPkJJ2Q/z6fP3Dqm110AgnnGcyjXPkS5dCwjg+C2gZsT08poE+PQdDy989AOozBOfyREckDVJaF3SwitHpktAu72tlDyd/GMGWKxdC2TQsEj1e5huW1UNj+M5XyBpV2/4pJJoM8ek6CTSgcjgZhv8cF0lTx7yCUgeeZ/d+ezsXP/TscRx2MaJl5/ndATqtz4dli5MUUUuaGBk61hBKnI0cyrOfTVrmZb+rP8YenE5IJPfBCmhQ/CU/bs9drhpruW0ee8Cm2+mK7c3Cg2PzpjhJlw1AfBV/FV4TYGtinJiUxMq+nXIip8yUmQ7nKo7NzC8I5fsPiE77Ii9wSvVQdm6Ttbz6a6+oPMNv6WtnKamqEpdddwxuOD4DXNHuJzI+8RgYVl+5FZpTY0QrHva4Ted7j57MKY3nMBVj9gNg8UX8bGbUcztMNCOYq0a2HtcTjv1qSIRePPqoQxdRFVqqiQek1TrYIXZnFbWsl0tuBmOnCrPcKLiTJEayPeJqNaEulK5B+jSASI65iMDHs4+ZD8bJf69j4s/39xnev4n4U7YoOOGN0nVSdHAglAmBy5To9Wz9AWlR+/iLZZ76f76KU4pkF9hxd9aNSoV/2YRyqqX3HSkltUaOHmqphBKrrthZ7JkHkV2xdczm+V6EoPviQAYfoBhKYmIc2Pi6fQv/7/MDt7OqhWlBBBy3kyGsbQ9L6PV/RodIegDfFniDQJ4t9Sd+lqzaB0kVrvDhy+z0uPvJ5zs/uPFBBfkOf0nUhjzcdZPn8ZrYMu9VAzPLuBO44cEoEf4HkWruM35yvOilGYpqZRXw/pT5Ib+hVfWTH2HBIC4CHDhsddNjxsEFiKdIsiK6Irg19XVHYrE+qKvIQfxSzyfNWX1NGKtq48i47ppi29gMqWZzI064UYtDXXancISvwuohEJTbXrWIwMNFC2oufokLBg4vX9Hn/kU1yz4oHxIZyY802qT6gEEoAwoeKcPo1F3ucX6zy/u+M80i0X0ba0m3rDpDxYww5MMumYatbddkkBCA0TO1tHGSmMjA9DMFy8inknXT5hHssJQJieACEyW9HB5p+8mMVHnIdKH4XR2kagDbyiT30AnBYVeePLfTQUT/woAKB58uyLZ6DJjfDnF0js4EjKY88mwCKT81HVBv6uu5mfupZPnHw3qHozadBeyu2P5Pjc4MuodL2X7jk9WJtMiWLEmGfiFeLneGhUQgxhM0yBqWzslMbOetQGHYYfu5dMz0c56pkPHZA9cSo/EQKaWGfzyJFtfOzal1Je9hba5x1BpsPBqwZUBj0k+NF2JBQyJlIQ2Y5+UgwzRa6jQX3ApNK7CdP6HG2pn+ovHiXILGa7UymwpO8EIByme2ClXmlc8tl3L+C3f/pHrNQFtC5JMVQzKBdquIFFzo3nqKWVhK7piE/ArhuY4pzlOujWAL0BRjZfyQtefjnvGoMH91hkngCE6QkQorXTihd+ZQnLnnMupcbfkj9mIZ5K4Q/XKKxXUV4FO68j/wRhSAwlLbAcOQpsCQGIWUpegJ02SJs+wc4NMPhzlsz7CR89ZhPqL00NQn6cvfrxOZWfbXo94XH/B6ujlfoTkNGK7ByXSvHA5omnD7FR0pE5zckpLMPBzmnsTIPaQMD2n99ELn85q87fOCNi/rW2WPGpZ9FywruZd/wKehakqZXEj6IagSA7YxJEsZVjL1I9NEOy7QammcZ1alR2aAq9Q7it3+RZs7+t39kymACEsYt0OtRMAMJ0WIXJGMP52uSELafw4Pp/wm55Ca2LLfzAoDwUoLWwssVc+92OZz7Ywl0v3tw5E9oCKo+YVHZexknnXMElY7ANj2W+CUCYxgAB5n9uS3rrQPWZrN70DnqedQqZXBvaK1DoNaiVJKmB3EUl34FAgzACCVIsOz5AkFunY5i4EgI4UmFw82p044ccd9bP9cfpVZHta8+y0uBdZz2DrdX3kDr+dMgoyht9slqR6UlRLcUHCH4tQBkGptsMcbRtK3LEDFnN4B3X0DH3p1x75sRwgIzl/TiYOgLcjrt2FouO+P9om/squo9yqQ4H9O+q4orpJGuMCyAIjUWmReEIn4NdJxiG4s4GXvlGuo+8Wl/R/cRfrtXBTCR5drIlEPOQmOzhJO1PiARElfiuUieN3vMp7Pxbst1HY+Wd6INWrsjNrnmbi1Uk3F08y0NNKpQEMhZ2qyZsgZF7NUH5E5x41jVccgCK2bH2mQCEaQ0Qor3wbw91s3Hob8nMu4DW+SeQcTWNRkBxl8ZvgDZ1U4OgmzkPooRD7lh3wJ/rZQIhEDIitsEgDBjpH6Ew8Ahznv1NrFt+xVWvqD41LO96h9cuORsdvp/ckYvB8Shs9nBDRa7DpVwbu5/An0ehI78ICecUH4mgniJo2GTab8d79AqWvPg+LolyRsyMcsbtKTKtb8dV/8yco/JUiprqziqGLeRPimC8OZZMhWOJmSJAB5r6sEmj9CDp9v/h60t+GTt8cmZI87AdZdxT4rAVxGEzMflwf4c8N+96Jlbh/6L9JaRaLEIvHZkIJFrL13Kni1nMJz3QcAK5GVq4rSFhTjN07yC2+jjfff6PYhHZ7G8ECUCY3gBB1k5C9UrL5rF5099hd76als5FZAUw7tI0qpJbQfZb07wgAEGSMpnj4N/IahPDFi98C5WuE9hVRna4pLp+RmbDVzjxtNVPMW2ddVMLzH49Lam30bWkEyE5Gt7uYfqaXMalLJmFYhZRvYsSRFIaS56FRtlBzA5dy3+Eu/Or/N3R6zhzgsBxzKGNr7o2OHfbebDrXXQuXIhfVtQHaxgZEztnRkm54hZxcRBnSNEWpTMh6YxojGzqI2UM4yrOnf/lMZFIxe03qT9pEkgAwqSJdgoaFnBwKRmeGD6a/t6zcDLno4M8RhgS1myUxHAbRuQmFPv13x31FIDtRR6LmG0analTevQesukv8PUT/zhhN4QEIEx/gCD77WYcvnbviVSHz6Gl64XMOmIetYpJrRFGJoYIIAggFSO1JBzaZ7KDfb8wkoJAcjgEOoj2sLAXai9LGKwjKHybYMlt7Lx7q779zEBxvcFFnYvY2PUvdLa/mtnzUzQqmv4dDcwGtLo2BSN+JhLXMQj8MALY2vdplKp4xU0sfs7/ckTxZt7dNjJhe/8QfDoiJ+a3DJ3IyLa3k299AY2GS22ogZs3cTI2vhfTkVPMLYaOQFPYCMnkQ3J5l5ZuFUUzjPT9mJHBz7LqtA2HYHpJFxMkgQQgTJAgp0UzV91nc6c6guHCyzBbXkx26VLqI3nqBQlN9KMQLdOwMYQKd49EK2MavAAEecZrRjGYwrnfBjpTpL7ph8yfezWf6tg8pqbGUikBCNMfIMg6Ckh412Cee288g67O17DgmBUEboogCAmQLI1NdbWEMUqx3PjfnMDx8EouhllFNSwM5dLaIRTfI/QP38tg48fs2nynfvzcitp6vcMVLSu4f87b6FzwXBa3Q6Go6NvRQHBBm2MzYsYHCKmMQUMHhCWTRt3Hr/VRr/yOZc/7X17JAzNLeyDLJlFO5Tn8adebsNX5BI08taGAdJuJk3bwg3gyEo8TZWrqBZ+wFmA7kGtvo3OekDGY7Fz9e1bf8QXuft+tMwlIjeVTdTjXif+yHs7SmKFzW7lypXHJ6y7Ost47jnu3P4++3jPRwVxG5qbQoYMORtnpRqlwxzNPUz7sQjSzI4g+IHOXmTgB9O0c4HdfuJw/fea7oCYu93sCEGYGQGjuJcX7Cp2seewNWC1vZfYiOcwDBja24HmV5sGqDVw3IG2Pl/9fRdTGygwjM5YcSKFRp5rZweDD99Oy+nZuvOhOLt3UxQ0D59J59BlkWQ7DDromuSFCsDWhA0Y5/ncv61s08DFyFpkek9LOPrbe923Uwuv0L07ZofYVbjmed+0QPBMBhNdeb9Nffg2tc97F/BVzsVIulf5aBIBCbMx0Hfm/sG5H2VOFDMty9s2SuZsFMyLMEifVyBwj4Y8urrWewZ3f4z9O/AYnTeB34hDI6q+5i/gvyl+ztKbT3OXmtgqDmzbaOKvbaV1yKoXamQSN5eAtRhsutZ7my6y0UOLuHn18GlV58kmAsNPHzdrMOtKJblPDO1bz4A8/jvXvt/GHCeRbTwDCTAIIcM2GFL/JnMpw7xvItT0PJ5PH83y8ukK01RG3v1Anx2Toi3btbmArW3d3xILwK2AQpKsMbtiA3vggHzz7FjbXW/jB9pdiLzgJx+rBLBlR9lKJqpAUjIEL5jhwbNYwqdcDjBYDu8OmsWsDWx++jMzSX3DD8okhBzuE35dRnhSTh287HdN8H51HHoeTTdMoe9RqAguESjqgESXVNJHk0+LZLD4kEUfFXspu1kcBCKKhjPJzCEAwHCyzj8KO2+ia+yW+PGfjIZxq0tVBSCABCAchvEP86OgdRSv+gMmNG7OsXdsN8+dQ3XUsmfyZGO6x2LYbUSlr1cBLp5s3JykRH+7u9Y7tgfD/t3cm0HZV5R3/nenO981D3gsZSRiSMIUgMqg4EaWitQVctQ5FV8FWpZVll9WuLkLVZbEWbK21ogUWVaQJCMqgiC0ggqIJsCQECJDphYS8vCHv3emce4bd9Z37QgFJ8u7j5iU3b5+1Aqyw7zl7//c5e//3N/w/TAkuMxTlkYB0zqKtNxVX8yuN3cvOJ77KQx/a2NAccE0QmosgyOZwA638/NGzqUYXk2g5mVxvQBQlCZVFZEncgElQqNO3vZcg7H2HX7KCGZjKjIMXR8crVLaPsWThw2QSFs+PLCfq68W2LWw3AslqDE1UgvjPVJINMqZFxQtRGUUyJ5oPaxnd/AWWv/Wpw1ocaX+LlMzZX43OYeejl5PtfSeZniwSUuq5EMrergyqgaw78rc1l4NlW/skCHufFRMEWS4ssSBI9oeNbfn4pa1441ez7PSfNSzbaZoX4Zn2OE0QDucZj6voPemwoSfBU5uydOzoIJtqJZFqxVVzKYfzOWpBH2FpPnb2KNK5JCqM8IoSUOVhpCTeQEyytRSt10MQpHyvLBRuKSTTZpLNJhjdsoWSeyOqeit3NaiK49750AShuQiCzNt9yuYHP+9nvPs8Iill3LaY1KwsyjYJQ4VUC6qMTZEgiMVgwhIWbz6mwjFFH8GhmFJ4uyxajAGSnoVnd+J120RWiFVSmJ5E0BlESYWRjmKXQ71XKiUiYyEqGZJIJjG8+7C9L3DdcfuXfK73OdPd/kaV5bZbPwCtH6b9mLmk8wZuwSFSVcLAmrD+RIRKAknAcmqb/76vVx1CDBVLRicdA9suUt7+PY4989tcaTSHZsR0z8dh9jxNEA6zCXlFd6SC3v07+tn54mLGw+OIhpeTUHMxsy2odB6jy6Y372BEwuqNuJxrtSo69lFs3lOGWTPPNsCCICba2A1Zjci22nG56JGt9+OWv036zHWsaZBAkiYI//8KmEkDq6qwfEvU/zGSJmHGhIyY1R8hCP+BH5/YWMvN6/0eLrwiwaLPLuLp9edjhhfQsXgWdtbAL4PreihR05niFROEuFZDzb8t+TiW/F23hfIdkoMBxrAda3NUeqooEfRywSxL/h2otAKnVueh3svMQWlUYZpVDCpk07dx/Oyv87kG1R6ptz+Nai+k7hs/PB3f+QSt88+kZY5JWE5R9csEgbgW5FgQEscsHsDFEBso4zLVNXeSxCzI4UQOFdl0glxXQHnrvXR3XnPhVQ89t8a4aApksVED1/eZDAJT/1gnc3fd5vUhcLVKs/a3Z0H6PSRyb8QJZ2EbJpFpo7ImqiVAFQ1U4CNKb4E74R9Mhji2gS9uQ0lOjlWR6ncrvKL3YoUIaqbHTIuNaVUpD9/GSOVa3rh8U8PNrNqC0HwWhL3vy3qV4ysb38TowF/QM28ZTouD6/mUhiLSbfVvzjXLVy1NspajO1EZKlKYki3RY5F0TFJbHKwgpNqicNt9Io/4+zDLEoMg7gWFkhjJ1yxxvP9v1cxDaQgCo0DCeoburpv4eNtdrGhg3M3rWy2m9mtZH/7enceTay/B4QN0Hm/Ha4ZXcgkCu0YQIhWvJXLoELfNgUp5i9VSCEIU2DGhK497tHQm6ZljMb7pV5SHv7HkvdlHNly0rH5Fy6mNUv9qighogjBF4KblZ5/c3klh96VkOt5HKt9PMiGhQx5eNYEbWQSmie/6+K4i9KRUboQpteptKZlrENlefFraW6b5pWCv/fT+pYI5Vk17Pl4NVK14ixtFGLZBJuET+RsJ/B8w3PET7u0Y32fRnKkCpQlC8xIEtdriI++YTXn9H+Pk/4hM16xYYXF0IEHb/Fpq5EsnTXnDTDFN7VumXwo+mXHQm+gpiFqvQRgaiFtcqiyabTZZ2bdGTGyrii8piakIJWqOVQPDrZ1qlWXEgYr7IssvlVaeSN+M+yX/LaWs7TAuRe3YJaLSw/S2/ydtvb9tODGe6vcy1d/JmO8ny9X3fRD8zzL35DR2RjE+7McWBKnMaSiFH4r1JMKy9h+DIPezJoITo9CKg6ODcoCTN2ltdygPb8IZv5EV+Vu5tEGl4ac6dv27AyKgCcIBITqEDT61u5/ywNfI9L+ZsWKIlfRrQi2hiRsIGRD1WdGna9w8BhK2LJHHIoRkKWxTzLomHopSuoqTsmF8kMqeW7G613Bn/3aYqCPfSKg0QWheglB7Dyy+uG0+63deQqLzbJTZTmE0Qa5HCKuJ1Ea0zAApAmaZIUHVwpzQSmjke1TPvV5OECTQzklV476KL35sR5X+41NkUx6FLbfRlf4mVx3dON2PevrZ6LZSdvqW68+hM3EFJ5w1l1Snw+5BIUeK0ApjHYuAAEMwEQ2VOpcbcYF6uIRVi0QypL/nHk7OXcOH2aI1ERo9mY29X50z3diH67sdAIG/UbMYfOQaUj1vw6OCEg14IQjiWhWmYECywQShKn6EyMAypCSNCCJJedsJ02xHQLjHQRU2kGz9Dz7Q+z+sPEg5zZogNDtBgDtUhge2vIGBFy+EjrPIz01T2Z2ISYFcEuUea35LiEDVPOQEodYpcWNM9M+sxSsYdkhxV0TXUUkcew/VoW/RlbiZq46UE7AyOOOeo8kXLmX+0pVkezoYGlU4aRcvEIJkEooiQmTW1pu6tw0DLwiIAoO07ZBN/5a+3Jeg7fAuj603qAaePDWYjUfgatXBow9/ESN9PnaXH1sOvKBWdtmrVb8hadbP6PfXUy8MYxEaW1wMkU3CVrHlwkzYJB2LwpYRsm23sGLOzXxs1RaMK+uu6jApoDRBaHqCEJccv+aMNh6qrkTN/XNmnbiI8W3VWlzM3s1Y/i0uLHEjvLoq46TelIPQSNwZptSPqFk7TFFyLBikUw6Btx0z+jKpJT/n2iaPP3g5cpeoVnb86H10zbmUdPd8ClWJFylQLiaJPIvA8mM8kvYUCIINlbLCCELy2SRWdSvp6MuccNz/cukRhOFBeBMP9S3rpoKHusMz6vmSgnT3/Z/CsD5CckGSMLAJ4mChCFfiDSQoewomv/2BKHEGYmpNSt0GZWNhxAukETioSpni4AMsOeVaVmWfxDiIH7cmCE1PEESMZ8W1l9jrNly+kE3uJ8kc+x6SIx4qtFGxf3pvPEADgmgbtjIIAQ8xnJCoasebopUI4loQhqRQVh4X5wnHnvJo08cfvByyu1WSNY+9idD6DFbmZEIzIJEtU3ETsQXBl+CkyJgSQVApRaUAqSigvSVBVB6lPH4dC/tuZlX/UMNmTt+o4QhogtBwSBt4Q0lBuvbX78Yd/zitxx1LFGQIxL9gRHiSymgoHAlKbOA0enYYL4aJpPgcHUzDxHB8gj0VwqHHCaPbecvSe7msc7yBI/39W2mC0PQEIbYNiKTvmoEUa6KzKez+ID29J8cFxIQcRLLpWlFNCnyvoNdBfasmc3NJo5QUYUXk23EApQRIGo6NKg1TGL4blb2WHy2T2JvXmRk0me5MUxux6vyTt4ANOz9L4L4bJxfEc+SLUFIsYVGzFE7FYqlS4JVD7CL0dNsYqsiuHXcS9F2nbpnzXLPJVE/TjBwWj2ngznJYjOfI6oR8oBevW8bI0MfoOP7tREEroeQTmBFeUDODxgShga6iqhMQeg6JVIAtZXbtEMMuUhkaoDR0J/OPvoeuvgG1yhBP8sFbIDVBOCIIQvxBynv8j7Rx920rmXviJWD0YSBiPFYc8R5W7fjEfsD8uWn6vOPsBWUS+jZWspaKl8gmMN0nGNv9fdpb7uLaIyX+4GWY/lLluXnkUkYHP0K61cErZwmNEMyQqlRwNSMSUziQhGmDsFLF2OPQJwQhVWTLU4+wJ/vtK95y6m+uvLL+4vPT9CbM+MdognA4vwISC7BqfTu377mQntxlHHNUlozpMDwWUqxWsW3RuK8/r1yElCSEQRZA2zaxLIkpry3k20vjZG2LFjtFNmFipcbwws2Exn08tOYuPvSZbVzZYFGk15qD935zEdXuq5j9xpNwWm1Kw4pySZHJ1dLhhCQJeYkD3+UEui+uIoGcIi4kyv2RIiglMZQVlw0uFMYIg5t4Z/fXubS/3JBXQSmLlTd8jd6zVuJ0pRgbtqgUyrF2hFA5saon7XjbxEKi+SXP/LUfrdIRZig+34iwnKwJ/FgKZXq45V8zv+dL/HPXs00RCb56tcWX7ujktK9eTGnobbT3z8N02qmUPfbsChELdqZFAhblxC5pj7Xgxb0Bgw2ZnAPdRFIlxeax04Ixm2oiQh1Txm238XZ2obb+FKd4DcvPf+yIlAoWi+W31r0Jt/xxOpeuwEkn4zkQcStvWEo5+9gpccHUt29Iiqt8qK3ZJCknTaiqDO0apHPhdfz7wHdB6yEc6M08VP+/vok+VL2cqc8VgnDNwymuN8+lx/xbli7sI5tNsnvQp+BWcZxafYV6z/FRoIjEbignAkcyFkSRTiKVDUbdgEzSpiUHShbvbS9ipu9h3nF3899rnmXLn3nTYlo977vzMNo/R/8bzsRu7cKrKFzPJZNw4mjqV2wcsuvGTOG1kTDjHVnGWPv/Iq4jEdW7Bl/ALd3IuUdfz+VzKg15zYQgnHfT5+hc8V5SPT2UPZtiqUTeSdWi9yMTy45ImqItYYAcnPdBEDzJ25eQ0UhIhEHC8Ak8h6o3zujwvSyZ9Q2uOWZzUxAEAfccbM4aWs7G595Pds5ZtPV1EUYpvCGJkI9iGV+JsxHTvuBUuyYEkhoyO/u/iSF4y7dQiAjdKpFlEs7xY+GlnRtcErtuoVt9n++/bVvTYF4PbHJAuOAXiyhWLqR98buxs7PJtotSq4qDNKNKELscZV2q5/KqIZZh0NIOmYSJW/YZ3j5K5+Lr+dfcd2AaDhz19Fe3fQmB+iZaAzf9CFy42uLFZSeRr3yBOf3LyebSjIxWKBQj0kmRUq6lPdZzSXW9UNWqrSUlyBEjPs3KlcyDnZeiLB7FnZsZfO4BctzDV978FAumUuWmno69rO0H72zHtd5HxzHnk2g7hTAUCbxqfAqPBVgmSljH5X/lFB6YsYjOa11WrrbB4tUUIK0gwndDdo8+yNDgf/En73qoYdHU4st9/09W0jLnApzeUwnDdrAqhL4gbMVETFJHRS7YFD+8CP7sY/785EQ0vSt+2wjLrOLtSVHldwxsu4mT5t3Dvx030lSb1feGW1j9uzMh+y46Fi8nbR+NU4RACgTZQTyWeBYn0g1jEjWNl5yOhSibiYBKJUEoqY6ZnTz32K/pCFdzbnYdl5/ZGDI5jcOa9KM++VQnz246Aye/EidxGp0LOkimHVTVioWp5HBR71WV4tGWQVbWK08xumuUXQPraD3lJm5+9gF4a60QlL4OOwSm9+M77IbfFB0y+MPN84hG/prW1j8gMytPZaRIaQxSLcIO9n0C3dfwglDFgkuRMhHdI9uJsCdqNuQTGczcCC5bqXoPki3/hIL/jLp+gXdQYw5e3ddPP5uk5J6AnXgTqDPw/cWgUhj4KDllTmi+y3mmZjvY97scTZj0CQycVCXOxrASm3DzP2N47AHecOKOhkWkyynsE08twvXfjHJOx6ucgDJaUJGHEdkYcjK2jRjvhJCd/fTbk8OzExB5tWp4FiUidxfpo37B02M/5YJlm7jM8JriLd7bSXE1/HhhDy+6Z5DtPo2OzPGky3OJyjlcOUnGSom1cIR9Eb6DNeA49AATLx9Bu4tfNIgKI6Ts9Ty58SGObnuYW8/ZEbt8jtTrivUJnin0Mza+gqB4Gu2zF5LNLMRQ+XjcQSzEUt/ofdFVSUZkTJtwfISxPb9jbPxhcic/yA+P2TwtFsn6eqxbTyCgCUITvAr5z2/vLAzs/hBB6qOZBHsqAAAFsklEQVTk5szCHS3hjRgke0zwxUdY3ygC+dBlDRbhE0c2ISl8I1HlCmtIKtZtwGm7n/auX3Ca8wwXGdN/YhJ1t9RYK+PlXtzx+VTcRURGGkuFsTUgtghMXKGQBYnHsF975RoPpDSwnMAVjhUQjFbItj5Py4kbSTPY8JgKSU99YmAWZXc2w6OLCaJOLEvS+0ysSOSAwTHlj0EkVZhiAvP7V1EKGxkhRtXENiMMv4IZDLDw7Ge4nRdYS6WprAd7R3iFsnn+qW78zh5mJXtIekfjV7JUvAjlGzFxDSfmV+Zsui4zgEBS+voCgtYAwwsJtg3TxlYeDbZzXvdurlzgTld3Ds1zlMGnn0vwwnA3/mAfLXN7ySfnY4RZrDDEqz/kiXLZJNkWkHcswtII4fBGxpxtJPp3ccORjuehmcVGPVUThEYheRDv03/H2syOO5JnM576S1JzTqHyokswapI5ykK5oPz6nh4YIqE6kbZkWTW1ODGrsoexZx4k3/sgvbMe44SubVw8jW6FV49CTuNrMCltcShna7toaiKn053wq5QjRWbIgJ59Y7A5UvQCxYngqoGNBtneKh2L/IZZDl7xdKkwiMGaJ202dNgMjpgUQkVvL2Slr0x0dz99ljbSb7nKpkFuxKAYKJLjIVef4TX9KVYIoPjH5mMziIMaNakoRSZS5Or1mdX3+h+wddEw2N5lMPIcmL8KWfi8D6uCg/OuHLA3h6bBhcpiyZMW85eaZLEpDBmMhGIFqH/PeHIQFixVdGCS3614ccxn+GB9e4cGriP1qfVP9pGKxGE8rlPVWmfd3+WO53nrMpzZbyEYiYhGLFI9Fkoq1gXqlcHeE9MqJVpjwi//kMPo3r8XZ4EdxsFyZhQQuSWc7Cip9ufZvvF2zlq6ls+zR6LjptWtcBjPge6aRkAjoBGYaQhogtAMMy6BbwXa+dhNnyax+ALaF7TGke/VPR7VcQfsiMiWeglmXM5WJRUqNCjv9rASEhHnYNkmqXyIaYOTt8ikwrgMblDczNDjT+NW1tK24jfcMGfDRFDD9Jl2m2EOdB81AhoBjcAMQ0AThGaZ8NUqwTe/83bsto/Ss2wJtt0Gvk9YqPmplaMIRRMhLUVwpJCTQXt3AgKTwI+IpE0YIBoIZV/K5JYxR7fTkvol+eBRsr3P8I7+3bz1ELoUmmUudD81AhoBjcAMQEAThKaZZGWwct0sxrZewNzTziabOxbHzKGkuqIvMukSER+XXkSKNEip5r4+0TYIKVVcSrsrFHdVqQYVxoYGCMvraWt5lNOWPM0J+RG8rjIXiWqavjQCGgGNgEZAI3C4SJvqmZgcAqtVjn+561z6lpxCW/fptGSPmfhhrZCKGYomgvlSEZyokKA6rijuGcIdWYfvb8RuewEvWE+4fQsrTiqxaqkv8XQ61mByU6BbaQQ0AhqBmYKAtiA000yLSt87nphHzppNyj6JTHIJgWfHQYrxVQXTN2LlM9MIGd1YJQgqqMQ2Wloep+vMAU7vGOdPKWMYdeZGNhNQuq8aAY2ARkAj8HoR0ATh9SI43b8/5z6bQjFBcjRH2s9Rdk28cVE4MzADRS4Xku3z6Z0dUN3hYbSHZHsC+k6tsko04o6gCnTTjb1+nkZAI6ARmEEIaIIwgyZbD1UjoBHQCGgENAKTRUAThMkipdtpBDQCGgGNgEZgBiGgCcIMmmw9VI2ARkAjoBHQCEwWAU0QJouUbqcR0AhoBDQCGoEZhIAmCDNosvVQNQIaAY2ARkAjMFkENEGYLFK6nUZAI6AR0AhoBGYQApogzKDJ1kPVCGgENAIaAY3AZBHQBGGySOl2GgGNgEZAI6ARmEEIaIIwgyZbD1UjoBHQCGgENAKTRUAThMkipdtpBDQCGgGNgEZgBiGgCcIMmmw9VI2ARkAjoBHQCEwWAU0QJouUbqcR0AhoBDQCGoEZhMD/AUAaOLXtQvzaAAAAAElFTkSuQmCC;" parent="1" vertex="1">
                    <mxGeometry x="600" y="80" width="120" height="120" as="geometry"/>
                </mxCell>
                <mxCell id="LGkPL24XH27C2ci5rPlH-10" value="..." style="text;html=1;strokeColor=none;fillColor=none;align=center;verticalAlign=bottom;whiteSpace=wrap;rounded=0;fontSize=42;fontColor=#999999;rotation=-180;" parent="1" vertex="1">
                    <mxGeometry x="790" y="220" width="110" height="20" as="geometry"/>
                </mxCell>
                <mxCell id="LGkPL24XH27C2ci5rPlH-12" style="orthogonalLoop=1;jettySize=auto;html=1;fontSize=32;fontColor=#999999;endArrow=blockThin;endFill=1;strokeWidth=5;strokeColor=#999999;exitX=1;exitY=0.5;exitDx=0;exitDy=0;edgeStyle=orthogonalEdgeStyle;" parent="1" source="LGkPL24XH27C2ci5rPlH-1" target="LGkPL24XH27C2ci5rPlH-10" edge="1">
                    <mxGeometry relative="1" as="geometry">
                        <mxPoint x="370" y="210" as="sourcePoint"/>
                        <mxPoint x="600" y="300" as="targetPoint"/>
                        <Array as="points">
                            <mxPoint x="480" y="200"/>
                            <mxPoint x="480" y="230"/>
                        </Array>
                    </mxGeometry>
                </mxCell>
            </root>
        </mxGraphModel>
    </diagram>
</mxfile>